<?xml version="1.0" standalone="no"?>
<!DOCTYPE svg PUBLIC "-//W3C//DTD SVG 1.1//EN" "http://www.w3.org/Graphics/SVG/1.1/DTD/svg11.dtd">
<svg xmlns="http://www.w3.org/2000/svg"><metadata>This SVG WebFont was generated by YouWorkForThem.
Copyright Â© 2015 by Connary Fagen. All rights reserved.</metadata><defs><font horiz-adv-x="1214" id="ywftsvg"><font-face ascent="1638" bbox="-515.446 -646.111 1999 1853" cap-height="1272" descent="-410" font-family="" font-stretch="normal" font-weight="700" panose-1="0 0 8 0 0 0 0 0 0 0" underline-position="0" underline-thickness="0" unicode-range="U+0020-FB02" units-per-em="2048" x-height="922"/><missing-glyph d="M864 1638v-2109h-667v2109h667zM702 1497h-348v-70h138v-77h-140v-70h350v70h-139v77h139v70zM563 1225h-211v-219h350v71h-139v148zM492 1153v-76h-70v76h70zM702 948h-350v-69h140v-78h-140v-70h211v148h139v69zM702 821h-69v-139h-281v-72h350v211zM702 565h-210v-119 h71v50h70v-101h-211v170h-70v-239h350v239zM702 201h-350v-240h350v240zM633 131v-100h-211v100h211zM702 -88h-350v-70h148l-148 -98v-70h350v70h-215l148 98h67v70z" horiz-adv-x="1054"/><glyph d="M395 995v-59h246q-27 -82 -43 -103.5t-47 -21.5h-156v-672q0 -35 19.5 -46t87.5 -11v-82h-424v82q66 0 85 11t19 46v672h-96q-20 0 -20 20v105h116v35q0 184 111 289.5t325 105.5t346 -71.5t132 -172.5q0 -45 -32 -73.5t-83 -28.5t-86 27.5t-35 74.5q0 143 -227 144 q-147 0 -192.5 -81.5t-45.5 -189.5zM1108 141q0 -57 88 -57v-84h-391v84q90 0 90 57v611q0 35 -13.5 49t-43.5 14h-41v94l245 19q66 6 66 -64v-723z" glyph-name="uniFB01" horiz-adv-x="1245" unicode="fi"/><glyph d="M1110 215q0 -57 28.5 -80.5t106.5 -7.5l-35 -96q-72 -31 -152 -31t-120.5 43t-40.5 115v876q0 88 -94 160t-213 72q-195 0 -195 -271v-59h287q-27 -82 -43 -103.5t-47 -21.5h-197v-672q0 -35 19.5 -46t87.5 -11v-82h-424v82q59 0 81.5 11t22.5 46v672h-96q-20 0 -20 20 v105h116v35q0 178 100 286.5t290 108.5t350 -41l129 18q34 4 42.5 -7t13.5 -21t5 -21l-2 -102v-977z" glyph-name="uniFB02" horiz-adv-x="1286" unicode="fl"/><glyph d="M1260 1264q-147 0 -148 -260v-68h297q-33 -90 -43 -107.5t-39 -17.5h-215v-672q0 -35 19.5 -46t87.5 -11v-82h-414v82q57 0 75.5 11t18.5 46v672h-86q-20 0 -20 20v105h106v51q0 117 -70.5 202t-196.5 85t-181.5 -83t-55.5 -196v-59h279q-29 -84 -44.5 -104.5 t-47.5 -20.5h-187v-672q0 -35 19.5 -46t87.5 -11v-82h-424v82q66 0 85 11t19 46v672h-96q-20 0 -20 20v105h116v35q0 176 117 290.5t325 114.5t361 -116q88 106 254 106q234 0 328 -141q23 -33 13.5 -74t-46.5 -59q-43 -18 -75 -7t-48 39q-20 45 -35.5 69t-46.5 47.5 t-69 23.5z" glyph-name="f_f.liga" horiz-adv-x="1562" unicode="ff"/><glyph d="M864 1638v-2109h-667v2109h667zM702 1497h-348v-70h138v-77h-140v-70h350v70h-139v77h139v70zM563 1225h-211v-219h350v71h-139v148zM492 1153v-76h-70v76h70zM702 948h-350v-69h140v-78h-140v-70h211v148h139v69zM702 821h-69v-139h-281v-72h350v211zM702 565h-210v-119 h71v50h70v-101h-211v170h-70v-239h350v239zM702 201h-350v-240h350v240zM633 131v-100h-211v100h211zM702 -88h-350v-70h148l-148 -98v-70h350v70h-215l148 98h67v70z" glyph-name=".notdef" horiz-adv-x="1054"/><glyph glyph-name="glyph1" horiz-adv-x="0"/><glyph glyph-name="glyph2" horiz-adv-x="681"/><glyph glyph-name="space" horiz-adv-x="450" unicode=" "/><glyph d="M92 1174q0 78 40 120.5t99.5 42.5t99.5 -42.5t40 -120.5t-46 -339.5t-51 -435.5h-86q-4 174 -50 435.5t-46 339.5zM231.5 -20q-53.5 0 -91.5 38.5t-38 92t39 91.5t90.5 38t90 -38t38.5 -91.5t-37.5 -92t-91 -38.5z" glyph-name="exclam" horiz-adv-x="462" unicode="!"/><glyph d="M172 1352q51 0 77.5 -32t18.5 -89l-43 -295q-10 -47 -54 -47t-54 47l-41 295q-8 57 18.5 89t77.5 32zM468 1352q52 0 78.5 -32t18.5 -89l-43 -295q-10 -47 -54 -47t-54 47l-43 295q-8 57 18.5 89t78.5 32z" glyph-name="quotedbl" horiz-adv-x="638" unicode="&quot;"/><glyph d="M1116 954q31 0 29 -30l-8 -84q-2 -31 -33 -31h-195l-82 -324h205q33 0 29 -30l-8 -84q-4 -31 -33 -31h-229l-101 -401h-160l105 401h-211l-102 -401h-160l104 401h-166q-31 0 -28 31l8 84q2 31 33 30h192l82 324h-203q-33 0 -28 31l8 84q4 31 33 30h229l109 422h149 l-106 -422h215l108 422h150l-105 -422h170zM672 485l84 324h-215l-80 -324h211z" glyph-name="numbersign" horiz-adv-x="1206" unicode="#"/><glyph d="M637 -125h-115v98q-63 8 -177 48t-177 18l-107 321l91 33q45 14 67 -26q43 -80 45 -84q80 -164 258 -191v434h-2q-212 65 -306.5 152.5t-115.5 220.5q-20 162 97.5 279.5t326.5 126.5v106h115v-111q109 -14 216.5 -73.5t145.5 -67.5l27 -260l-96 -16q-41 -6 -49 24 l-23 82q-14 66 -76.5 120t-144.5 75v-434q228 -67 296 -126t106 -119t44 -130q14 -123 -81 -253t-365 -151v-96zM354 1120.5q-53 -65.5 -44 -144.5t61.5 -118t150.5 -74v410q-115 -8 -168 -73.5zM637 90q100 10 159.5 61.5t52.5 135.5t-61.5 127t-150.5 75v-399z" glyph-name="dollar" horiz-adv-x="1155" unicode="$"/><glyph d="M347 754q-124 0 -182.5 86t-34.5 196t115 195.5t220 85.5q74 0 125 -39q195 -88 305.5 -57t196.5 82h137l-885 -1313h-199l885 1229q-203 -168 -350 -113q0 -163 -104.5 -257.5t-228.5 -94.5zM440 1229q-62 0 -103.5 -58.5t-57.5 -134.5q-35 -193 83 -192q61 0 101.5 57 t54.5 135q18 66 1 129.5t-79 63.5zM1067 541q123 0 180.5 -88t34.5 -200t-114 -194t-215 -82t-181 86.5t-37 196.5q25 109 117 195t215 86zM1049 453q-61 0 -103.5 -58.5t-58.5 -134.5q-35 -193 84 -192q61 0 101 57t52 135q18 63 2 128t-77 65z" glyph-name="percent" horiz-adv-x="1431" unicode="%"/><glyph d="M326 376q0 -134 102 -216t257 -82t263.5 92t108.5 213q0 76 -36.5 125t-94.5 49t-86.5 -48t10.5 -93h-94q-45 41 -45 93t31.5 82t105.5 79l262 168q70 45 94.5 61t51 56t26.5 103t-46 96.5t-114 19.5l-32 -7q-27 -6 -33 29q-8 35 16 45q68 23 117 31q113 14 205 -55.5 t92 -199.5t-128 -216.5t-315 -175.5q121 -33 174.5 -96.5t55.5 -159.5q2 -174 -175 -287t-423 -113t-415 120t-169 321q0 164 100.5 249.5t229.5 77.5q-98 29 -155.5 99t-57.5 176t101.5 199.5t281.5 93.5q115 0 208 -49.5t126 -143.5q14 -43 -9.5 -80t-64.5 -41t-70.5 21.5 t-31.5 64.5q-8 121 -154 121q-80 0 -122 -54t-42 -143t44 -159t134 -99l-24 -100l-49 6q-74 12 -142.5 -63.5t-68.5 -209.5z" glyph-name="ampersand" horiz-adv-x="1579" unicode="&amp;"/><glyph d="M172 1352q51 0 77.5 -32t18.5 -89l-43 -295q-10 -47 -54 -47t-54 47l-41 295q-8 57 18.5 89t77.5 32z" glyph-name="quotesingle" horiz-adv-x="342" unicode="'"/><glyph d="M594 -340h-43q-23 0 -39 14q-199 158 -309.5 401.5t-110.5 530.5t110.5 530.5t309.5 401.5q16 14 39 14h39q20 0 27.5 -8t-3.5 -18q-141 -152 -222 -396t-81 -522t78 -519t215 -392q33 -37 -10 -37z" glyph-name="parenleft" horiz-adv-x="671" unicode="("/><glyph d="M82 1552h39q23 0 39 -14q201 -158 310.5 -401.5t109.5 -530.5t-110 -530.5t-310 -401.5q-16 -14 -39 -14h-43q-41 0 -10 37q137 152 214.5 392.5t77.5 520.5t-80.5 522t-222.5 394q-10 10 -3 18t28 8z" glyph-name="parenright" horiz-adv-x="671" unicode=")"/><glyph d="M303 1065l-61 160q8 70 82 80q74 -10 82 -80l-64 -160q-10 -28 -22.5 -20t-16.5 20zM272 1040q14 -14 2 -28.5t-34 -10.5l-164 37q-55 41 -27 111q45 57 111 29zM377 1040l112 138q63 27 111 -29q29 -68 -27 -111l-163 -37q-23 -4 -35 10.5t2 28.5zM242 969 q20 4 31.5 -10.5t-3.5 -28.5l-110 -137q-66 -29 -111 28q-29 70 27 113zM408 969l165 -35q53 -45 27 -113q-47 -55 -111 -28l-110 137q-14 14 -2.5 28.5t31.5 10.5zM303 909q8 20 20.5 20.5t20.5 -20.5l62 -159q-8 -70 -82 -80q-74 10 -82 80z" glyph-name="asterisk" horiz-adv-x="649" unicode="*"/><glyph d="M901 586v-142h-307v-311h-141v311h-310v142h310v307h141v-307h307z" glyph-name="plus" horiz-adv-x="1044" unicode="+"/><glyph d="M342 109q19 -91 -9 -187t-112 -166q-23 -16 -39 4l-37 41q107 119 84 185q-86 -21 -124.5 32.5t-31.5 105.5t50 86t95 28t84 -43t40 -86z" glyph-name="comma" horiz-adv-x="423" unicode=","/><glyph d="M92 578h553v-129h-553v129z" glyph-name="hyphen" horiz-adv-x="778" unicode="-"/><glyph d="M200.5 -20q-53.5 0 -91 38.5t-37.5 92t37.5 91.5t91 38t91.5 -38t38 -91.5t-38 -92t-91.5 -38.5z" glyph-name="period" horiz-adv-x="401" unicode="."/><glyph d="M643 1313h162l-547 -1313h-162z" glyph-name="slash" horiz-adv-x="901" unicode="/"/><glyph d="M1143 641q0 -176 -59.5 -324.5t-183.5 -245t-292 -96.5t-291.5 96.5t-184 245t-60.5 323.5t59 323.5t184 244t293 95.5q248 0 391.5 -195t143.5 -467zM606 96q156 0 223.5 140.5t67.5 404.5q0 543 -291 543t-291 -543q0 -264 67.5 -404.5t223.5 -140.5z" glyph-name="zero" unicode="0"/><glyph d="M461 166q0 -22 16.5 -30.5t25.5 -12.5t27.5 -8t42 -10.5t41.5 -6.5v-98h-522v98q121 20 144 43q10 10 10 25v825q0 37 -15.5 54.5t-44.5 9.5l-104 -29v119l303 135q35 14 55.5 3t20.5 -36v-1081z" glyph-name="one" horiz-adv-x="686" unicode="1"/><glyph d="M1018 0h-926q47 253 190 408t315.5 263t203 158t30.5 115q0 115 -66.5 178.5t-166.5 63.5q-209 0 -242 -150q-16 -70 -1.5 -132t12.5 -77q-37 -84 -129 -84q-51 0 -87 33t-36 76q0 211 126 332t351 121t349 -98.5t124 -272.5q0 -114 -39 -168.5t-62.5 -83.5t-69.5 -61.5 t-71.5 -49t-81 -48t-79.5 -47.5t-94 -57.5t-89.5 -56t-60.5 -46t-62.5 -62.5t-42.5 -72l539 -4q70 0 102.5 10.5t59.5 49.5l33 45h79l-47 -236q-12 -47 -61 -47z" glyph-name="two" horiz-adv-x="1208" unicode="2"/><glyph d="M602 1192q-209 0 -209 -121t-4 -141q-35 -39 -86 -42t-90 26.5t-39 76.5q0 119 116 216.5t312 97.5t312 -93.5t116 -196.5t-62.5 -169t-144.5 -86q106 8 211 -82t105 -264t-160 -306.5t-379 -132.5t-352 97.5t-144 259.5q-10 127 105 127q51 0 76.5 -17.5t31 -40 t12.5 -67.5t19 -78q59 -164 273 -164q125 0 204.5 79t79.5 208t-63.5 195.5t-157.5 66.5q-41 0 -78 -12l-82 -29l-39 100l88 35q121 49 179.5 108.5t58.5 149.5t-52 144.5t-157 54.5z" glyph-name="three" horiz-adv-x="1230" unicode="3"/><glyph d="M1057 401h-176v-233q0 -36 35.5 -45.5t48 -13t47.5 -9.5v-100h-486v100q106 18 119.5 35t13.5 33v233h-577v103l645 790q37 45 95.5 28t58.5 -75v-729h176v-117zM659 518v504l-417 -504h417z" glyph-name="four" horiz-adv-x="1148" unicode="4"/><glyph d="M1118 420q0 -195 -150.5 -320t-374.5 -125t-356.5 97.5t-142.5 261.5q-10 123 105 123q51 0 77.5 -17.5t30.5 -39t11.5 -67.5t19.5 -79q61 -162 256 -162q121 0 200.5 74t79.5 226t-91 248.5t-228 96.5q-84 0 -163 -27.5t-124 -68.5h-100l47 631h705l34 26l54 2l-21 -196 l-35 -31h-635l-24 -301q139 104 322 104t296 -79.5t160 -170.5t47 -206z" glyph-name="five" horiz-adv-x="1220" unicode="5"/><glyph d="M652 1184q-187 0 -251 -145t-79 -359q35 43 115.5 87t180.5 44q184 0 314.5 -112.5t130.5 -290.5t-133.5 -305.5t-321.5 -127.5t-353 125.5t-161 489.5q4 408 186.5 560.5t351.5 152.5t271 -76q18 -14 4 -37l-28 -39q-10 -18 -37 -6q-94 39 -190 39zM592 96 q133 0 190.5 88t57.5 218t-63.5 209t-170.5 79t-192.5 -52t-87.5 -87q-10 -209 61.5 -332t204.5 -123z" glyph-name="six" horiz-adv-x="1155" unicode="6"/><glyph d="M197 1272h860l-645 -1282h-66q-29 0 -44 21.5t-1 47.5l533 1008h-629l-43 -92h-80l57 250q10 47 58 47z" glyph-name="seven" horiz-adv-x="1128" unicode="7"/><glyph d="M1118 343q0 -149 -147.5 -260.5t-369.5 -111.5t-360.5 112t-138.5 277q0 117 78 208t211 139q-219 84 -219 268q0 131 121 221t309 90t305 -89t117 -226q0 -84 -64.5 -157.5t-160.5 -100.5q145 -37 232 -129t87 -241zM604 1180q-209 0 -209 -205q0 -158 172 -199l105 -24 q76 -16 132 62.5t56 154.5t-49.5 143.5t-206.5 67.5zM879 352q0 98 -54.5 157.5t-195.5 92.5l-158 37q-68 14 -126 -72.5t-58 -200.5t78.5 -193t238.5 -79q275 0 275 258z" glyph-name="eight" horiz-adv-x="1220" unicode="8"/><glyph d="M502 100q185 0 249 144.5t80 359.5q-35 -43 -115.5 -87t-180.5 -44q-182 0 -312.5 112.5t-130.5 290.5t132 305.5t341 127.5q170 0 335 -125t161 -490q-4 -405 -187.5 -558.5t-351.5 -153.5t-270 75q-18 14 -4 37l26 39q10 18 37 6q95 -39 191 -39zM563 1188 q-133 0 -191.5 -88t-58.5 -218t64.5 -208t171.5 -78t191.5 52t86.5 87q10 207 -60.5 330t-203.5 123z" glyph-name="nine" horiz-adv-x="1153" unicode="9"/><glyph d="M200.5 645q-53.5 0 -91 38t-37.5 91t37.5 91t91 38t91.5 -38t38 -91t-38 -91t-91.5 -38zM200.5 -20q-53.5 0 -91 38.5t-37.5 92t37.5 91.5t91 38t91.5 -38t38 -91.5t-38 -92t-91.5 -38.5z" glyph-name="colon" horiz-adv-x="483" unicode=":"/><glyph d="M190.5 643q-53.5 0 -91.5 38t-38 91t38 91t91.5 38t91 -38t37.5 -91t-37.5 -91t-91 -38zM342 109q19 -91 -9 -187t-112 -166q-23 -16 -39 4l-37 41q107 119 84 185q-86 -21 -124.5 32.5t-31.5 105.5t50 86t95 28t84 -43t40 -86z" glyph-name="semicolon" horiz-adv-x="446" unicode=";"/><glyph d="M143 584q406 156 764 350v-162q-297 -158 -610 -258q330 -109 610 -260v-162q-358 195 -764 350v142z" glyph-name="less" horiz-adv-x="1050" unicode="&lt;"/><glyph d="M143 770h758v-141h-758v141zM143 401h758v-141h-758v141z" glyph-name="equal" horiz-adv-x="1044" unicode="="/><glyph d="M907 584v-142q-406 -156 -764 -350v162q281 152 611 260q-313 100 -611 258v162q358 -194 764 -350z" glyph-name="greater" horiz-adv-x="1050" unicode=">"/><glyph d="M92 1001q0 150 118 248.5t310 98.5q119 0 217.5 -57.5t144.5 -140.5t29.5 -184.5t-106.5 -183.5q-51 -45 -113.5 -88t-91.5 -64.5t-31 -41.5l-20 -164h-98l-25 164q-16 131 96 223q119 94 152 146.5t33 124t-50.5 118.5t-134.5 47q-143 0 -198 -106q-18 -35 18.5 -141.5 t-11.5 -142.5t-100.5 -38t-95.5 48t-43 134zM463 -20q-53 0 -91 38.5t-38 92t38 91.5t91 38t91 -38t38 -91.5t-38 -92t-91 -38.5z" glyph-name="question" horiz-adv-x="1007" unicode="?"/><glyph d="M756 -170q-281 0 -472.5 194.5t-191.5 484.5t192.5 484.5t473.5 194.5t469 -187.5t188 -484.5q0 -160 -55 -249t-222 -124t-225 80q-31 -43 -93 -72.5t-154 -29.5t-169 50t-77 147t100.5 167t372.5 109v18q0 147 -58.5 177.5t-156.5 5.5q-26 -7 -27.5 -54t-7.5 -67 t-41 -35.5t-78 -9.5q-86 20 -63 114q14 55 92 96.5t174 49.5q168 14 257 -57.5t89 -217.5v-327q0 -76 62 -60q96 20 94 273v14q0 260 -125 418t-347 158t-348 -164t-126 -416t130 -418t343 -166q46 0 120 14t97 -30l24 -43q-115 -37 -241 -37zM713 215q102 0 180 123v180 q-174 -31 -228.5 -81t-54.5 -122q1 -100 103 -100z" glyph-name="at" horiz-adv-x="1507" unicode="@"/><glyph d="M1403 0h-479v90q82 14 97 29.5t-3 52.5l-117 270h-467l-106 -260q-14 -35 12.5 -55.5t103.5 -36.5v-90h-403v90q78 18 101.5 35.5t52.5 85.5l452 1077l80 -22q55 -18 74 -64l420 -940q45 -102 75.5 -129t106.5 -43v-90zM477 549h379l-194 448z" glyph-name="A" horiz-adv-x="1443" unicode="A"/><glyph d="M1235 362q0 -180 -137 -274t-379 -88l-180 4q-281 18 -488 -4v102q133 29 133 99v884q0 70 -131 91v96h598q514 0 514 -301q0 -92 -69.5 -171t-210.5 -112q172 -27 261 -114t89 -212zM422 1165v-430h364q49 0 88 62.5t39 167.5q0 201 -245 200h-246zM688 117 q154 0 224.5 52t70.5 193.5t-104.5 211t-348.5 69.5h-108v-440q0 -86 59 -86h207z" glyph-name="B" horiz-adv-x="1306" unicode="B"/><glyph d="M707 1188q-172 0 -276.5 -126t-104.5 -371t122 -409q120 -165 308 -165q188 1 317 199q32 50 52.5 49.5t48.5 -19t33 -40.5t-25 -75q-147 -252 -492 -251q-258 0 -443.5 190t-185.5 480t172.5 472.5t412.5 182.5t380 -168q40 0 57 102q10 39 39 33l60 -10l24 -373 l-98 -33q-35 -10 -47 23q-4 12 -29 73q-92 236 -325 236z" glyph-name="C" horiz-adv-x="1269" unicode="C"/><glyph d="M524 1272q354 0 545 -150.5t191 -484.5q0 -159 -48 -277t-120 -187q-198 -188 -592 -165q-248 14 -449 -8v102q133 29 133 99v884q0 70 -131 95v92h471zM993 634q0 259 -109.5 395t-320.5 136h-141v-958q0 -78 65 -80l109 -6q205 -12 301 121t96 392z" glyph-name="D" horiz-adv-x="1351" unicode="D"/><glyph d="M1036 0h-964v92q63 14 93 33.5t30 60.5v901q0 41 -30 60.5t-93 34.5v90h940q20 0 27.5 -7.5t7.5 -29.5v-221h-91l-30 67q-18 41 -55 54.5t-109 13.5h-326v-442h344q58 1 80 41q8 14 25 57h55v-313h-55q-31 74 -50 87t-55 13h-344v-471l428 4q57 0 83 11t54 48l54 68h108 q-29 -57 -65 -205q-12 -47 -62 -47z" glyph-name="E" unicode="E"/><glyph d="M784 1149h-368v-442h342q56 0 72 27.5t32 70.5h56v-313h-56q-31 74 -50 87t-54 13h-342v-412q0 -41 29.5 -60.5t93.5 -33.5v-86h-488v86q63 14 93 33.5t30 60.5v907q0 41 -29.5 60.5t-93.5 34.5v90h891q80 0 96 -86l35 -172h-92l-33 67q-20 39 -57 53.5t-107 14.5z" glyph-name="F" horiz-adv-x="1134" unicode="F"/><glyph d="M1335 500h-63q-66 0 -66 -66v-424q0 -20 -35.5 -24t-40.5 14l-49 160q-90 -86 -180 -133t-219 -47q-279 0 -450 183t-171 501q0 276 172.5 458.5t412.5 182.5t380 -168q40 0 57 102q10 39 39 33l60 -10l24 -373l-98 -33q-35 -10 -47 23q-4 12 -29 73q-92 236 -325 236 q-172 0 -276.5 -126t-104.5 -385t107.5 -409.5t299.5 -150.5q100 0 177 44t77 105v168q0 66 -65 66h-93v104q238 -14 506 2v-106z" glyph-name="G" horiz-adv-x="1396" unicode="G"/><glyph d="M1225 1087v-907q0 -41 29.5 -60.5t93.5 -33.5v-86h-486v86q63 14 93 33.5t30 60.5v406h-551v-406q0 -41 30 -60.5t93 -33.5v-86h-485v86q63 14 93 33.5t30 60.5v907q0 41 -30 60.5t-93 34.5v90h485v-90q-63 -14 -93 -34t-30 -61v-385h551v385q0 41 -29.5 60.5t-93.5 34.5 v90h486v-90q-63 -14 -93 -34t-30 -61z" glyph-name="H" horiz-adv-x="1419" unicode="H"/><glyph d="M444 180q0 -41 31 -60.5t94 -33.5v-86h-487v86q63 14 94 33.5t31 60.5v907q0 41 -31 60.5t-94 34.5v90h487v-90q-63 -14 -94 -34t-31 -61v-907z" glyph-name="I" horiz-adv-x="651" unicode="I"/><glyph d="M700 1272v-90q-63 -14 -92.5 -34t-29.5 -61v-1103q0 -176 -81 -252t-219 -76t-213 56.5t-75 137.5q0 125 121 125q96 -1 96 -109t65 -108t66 109v1220q0 41 -29.5 60.5t-93.5 34.5v90h485z" glyph-name="J" horiz-adv-x="782" unicode="J"/><glyph d="M1327 0h-530v82q78 23 84 33q4 10 -9 24l-407 424h-62v-383q0 -41 31 -60.5t94 -33.5v-86h-487v86q63 14 94 33.5t31 60.5v907q0 41 -31 60.5t-94 34.5v90h487v-90q-63 -14 -94 -34t-31 -61v-393h35q55 0 99 43l368 389q27 27 4.5 39.5t-67.5 18.5v88h387v-88 q-129 -14 -168 -56l-412 -430l424 -454q57 -61 107.5 -97t75 -45.5t71.5 -19.5v-82z" glyph-name="K" horiz-adv-x="1398" unicode="K"/><glyph d="M1049 0h-977v86q63 14 94 33.5t31 60.5v907q0 41 -31 60.5t-94 34.5v90h487v-90q-63 -14 -94 -34t-31 -61v-886q0 -37 24.5 -62.5t61.5 -23.5l332 16q52 2 76 5q59 8 88 59l33 65h110l-49 -213q-12 -47 -61 -47z" glyph-name="L" horiz-adv-x="1230" unicode="L"/><glyph d="M1583 1081v-899q0 -41 28.5 -62.5t90.5 -33.5v-86h-479v86q63 12 93 33.5t30 62.5v789l-420 -858q-20 -39 -59.5 -39t-61.5 39l-471 819v-750q0 -41 29.5 -61.5t91.5 -34.5v-86h-383v86q63 12 93 33.5t30 62.5v899q0 78 -123 103v88h346l500 -895l450 895h334v-88 q-119 -25 -119 -103z" glyph-name="M" horiz-adv-x="1773" unicode="M"/><glyph d="M1366 1272v-86q-127 -27 -127 -94v-1092q0 -16 -39 -16t-51 16l-821 981v-799q0 -70 127 -94v-88h-383v88q127 25 127 94v910q0 70 -127 94v86h338l682 -862v682q0 70 -125 94v86h399z" glyph-name="N" horiz-adv-x="1437" unicode="N"/><glyph d="M1309 649q0 -283 -179.5 -476t-446.5 -193t-444.5 186t-177.5 479t178.5 476.5t444.5 183.5t445.5 -186.5t179.5 -469.5zM731 121q147 0 231.5 100.5t84.5 370.5t-112 432t-290 162q-322 0 -321 -471q0 -264 115.5 -429t291.5 -165z" glyph-name="O" horiz-adv-x="1370" unicode="O"/><glyph d="M647 1272q242 0 382 -104.5t140 -287t-147.5 -292t-400.5 -109.5h-207v-299q0 -41 30.5 -60.5t94.5 -33.5v-86h-488v86q63 14 94 33.5t31 60.5v907q0 41 -30.5 60.5t-94.5 34.5v90h596zM649 584q273 0 273 296t-246 296h-262v-592h235z" glyph-name="P" horiz-adv-x="1220" unicode="P"/><glyph d="M61 620.5q0 303.5 178.5 486.5t444.5 183t445.5 -186t179.5 -458.5t-156 -460t-395 -216.5l182 -147q86 -59 144.5 -29.5t60.5 101.5q4 110 106 110q51 -2 80 -31.5t27 -76.5q-2 -102 -89 -173t-214 -67t-271 108l-274 203q-84 55 -141.5 36t-59.5 -72.5t-33.5 -82 t-73.5 -27.5t-72 33.5t-29 85.5t45 106.5t114 82.5q-199 188 -199 491.5zM645 1171q-322 0 -321 -471q0 -264 115.5 -429t291.5 -165q147 0 231.5 100.5t84.5 371t-112 432t-290 161.5z" glyph-name="Q" horiz-adv-x="1429" unicode="Q"/><glyph d="M1339 94v-94h-245q-184 72 -271 330q-41 127 -98 176t-160 49h-133v-375q0 -41 30 -60.5t93 -33.5v-86h-483v86q63 14 93 33.5t30 60.5v901q0 78 -123 105v86h618q217 0 348 -97.5t131 -250.5q0 -123 -94 -213t-274 -113q233 -33 303 -254q37 -111 79 -177.5t109 -72.5 h47zM688 670q123 0 175 71.5t52 182t-52 181.5t-158 71h-273v-506h256z" glyph-name="R" horiz-adv-x="1380" unicode="R"/><glyph d="M540.5 1196q-116.5 0 -179 -67.5t-50.5 -161.5q7 -66 57 -107t110.5 -61.5t92 -30.5t75.5 -22.5t62.5 -18.5t64.5 -22.5t71.5 -32t65.5 -38t64 -48.5q24 -24 50 -56q50 -58 60 -156q10 -99 -32 -180q-42 -80 -117 -128q-152 -96 -341 -97q-106 0 -233.5 46t-192.5 24 l-107 321l91 33q45 14 67 -26q43 -80 45 -84q96 -195 326 -195q119 0 193.5 51t63.5 159.5t-129.5 159t-197.5 68.5q-212 65 -306.5 152.5t-115.5 220.5q-20 166 106 286t326 120t362 -100q62 -38 107 -46l27 -260l-96 -16q-41 -6 -49 24l-23 82q-20 84 -110.5 145.5 t-207 61.5z" glyph-name="S" horiz-adv-x="1146" unicode="S"/><glyph d="M965 1155h-240v-975q0 -41 29.5 -60.5t95.5 -33.5v-86h-490v86q63 14 93 33.5t30 60.5v975h-239q-63 0 -97 -63l-32 -68h-74l16 199q4 49 47 49h1000q43 0 47 -49l16 -199h-73l-33 68q-33 63 -96 63z" glyph-name="T" horiz-adv-x="1208" unicode="T"/><glyph d="M401 1118v-526q0 -242 84 -361.5t240 -119.5t253 101t97 331v575q0 33 -23.5 46.5t-72.5 19.5v88h324v-88q-93 -12 -93 -66v-598q0 -248 -133 -394t-358 -146q-264 0 -410.5 146t-146.5 404v588q0 33 -22.5 45.5t-67.5 20.5v88h424v-88q-95 -12 -95 -66z" glyph-name="U" horiz-adv-x="1374" unicode="U"/><glyph d="M1397 1272v-92q-61 -6 -87 -28t-53 -83l-477 -1079h-57q-43 0 -66 49l-440 979q-43 98 -75.5 127t-100.5 35v92h489v-92q-70 -6 -94 -18.5t-14 -39.5l364 -815l347 795q16 35 -17 53.5t-98 24.5v92h379z" glyph-name="V" horiz-adv-x="1437" unicode="V"/><glyph d="M1573 1272h375v-92q-63 -8 -90 -31t-50 -82l-378 -1077h-60q-45 0 -65 49l-306 774l-282 -823h-60q-45 0 -65 49l-385 977q-39 98 -73 126.5t-103 37.5v92h475v-92q-59 -8 -81 -21.5t-13 -38.5l301 -803l221 660l-14 39q-39 98 -73 126.5t-104 37.5v92h476v-92 q-55 -8 -79 -22.5t-16 -37.5l301 -803l269 783q12 35 -22 53t-99 27v92z" glyph-name="W" horiz-adv-x="1978" unicode="W"/><glyph d="M1356 0h-486v96q51 6 78 23.5t6 42.5l-325 395l-289 -375q-25 -35 1 -57.5t87 -28.5v-96h-383v96q61 6 96 32t82 87l336 428l-303 369q-8 10 -27.5 33.5t-25.5 31.5t-20.5 24.5t-21.5 22.5t-29 26.5t-87 29.5v92h483v-92q-47 -8 -73.5 -25.5t-10.5 -38.5l293 -354 l260 334q23 31 -9 53t-97 31v92h395v-92q-104 -12 -182 -117l-299 -385l340 -412q47 -56 56 -69t25.5 -32.5t23.5 -24.5t28.5 -21t77.5 -23v-96z" glyph-name="X" horiz-adv-x="1413" unicode="X"/><glyph d="M901 1272h379v-94q-61 -8 -95 -34t-77 -87l-338 -500v-389q0 -35 48 -48q32 -9 102 -20v-100h-517v100q121 19 136.5 35.5t15.5 32.5v336l-334 502q-78 119 -107.5 142.5t-82.5 29.5v94h465v-94q-47 -8 -70 -25.5t-6 -42.5l297 -448l282 428q25 37 -3.5 58t-94.5 30v94z " glyph-name="Y" horiz-adv-x="1310" unicode="Y"/><glyph d="M129 0q-41 0 -52 33t13 67l733 1055l-565 -8q-16 0 -28.5 -11.5t-15.5 -19.5t-11 -33l-21 -65h-131l55 254h1070l-797 -1157l594 10q34 1 51 31q6 10 14 32l31 78h131l-67 -266h-1004z" glyph-name="Z" horiz-adv-x="1282" unicode="Z"/><glyph d="M528 -289v-51l-436 25v1845l436 24v-51q0 -25 -43 -33l-198 -38v-1649l198 -39q43 -6 43 -33z" glyph-name="bracketleft" horiz-adv-x="579" unicode="["/><glyph d="M254 1313l547 -1313h-162l-547 1313h162z" glyph-name="backslash" horiz-adv-x="892" unicode="\"/><glyph d="M51 1503v51l436 -24v-1845l-436 -25v51q0 27 43 33l199 39v1649l-199 38q-43 8 -43 33z" glyph-name="bracketright" horiz-adv-x="579" unicode="]"/><glyph d="M688 924h-31q-20 0 -57 37l-217 227l-217 -227q-27 -37 -57 -37h-33q-23 0 -32 19.5t5 35.5l303 412q32 32 62 0l305 -412q12 -16 3 -35.5t-34 -19.5z" glyph-name="asciicircum" horiz-adv-x="765" unicode="^"/><glyph d="M61 -41h1049v-133h-1049v133z" glyph-name="underscore" horiz-adv-x="1222" unicode="_"/><glyph d="M494 1178q35 -35 10 -64q-20 -31 -58 -8l-276 160q-47 29 -61.5 69.5t20.5 85.5q66 78 147 -10z" glyph-name="grave" horiz-adv-x="616" unicode="`"/><glyph d="M854 193q0 -49 26.5 -66.5t86.5 -7.5l-6 -82q-117 -49 -181 -49q-115 0 -135 200q-84 -201 -280 -200q-139 0 -231.5 66.5t-92.5 197.5t125 209t471 125v41q0 113 -36 166t-121 53t-120.5 -32t-35.5 -124q0 -31 -37 -48t-84 -17t-76 27.5t-29 70.5q0 102 115 160.5 t276 58.5q365 0 365 -358v-391zM414 121q143 0 223 201v174q-239 -36 -313 -111q-58 -58 -58 -122t42.5 -103t105.5 -39z" glyph-name="a" horiz-adv-x="997" unicode="a"/><glyph d="M655 940q170 0 284 -126t114 -345t-124 -350t-288 -131q-113 0 -192.5 61.5t-104.5 128.5l-70 -147q-23 -49 -77 -43t-54 47v1118q0 68 -55 68h-57v84l278 41q49 6 49 -39v-320q0 -117 -32 -254l34 45q125 162 295 162zM622 109q93 0 148 84.5t55 240.5t-53 257.5 t-145 101.5t-152.5 -31t-114.5 -90v-367q31 -86 100 -141t162 -55z" glyph-name="b" horiz-adv-x="1124" unicode="b"/><glyph d="M496 -12q-166 0 -300.5 134t-134.5 347t135.5 343t312.5 130t281.5 -78t104.5 -176q0 -43 -25.5 -69.5t-77.5 -26.5t-81 23.5t-29 61.5q0 66 -19.5 109t-137 43t-175 -76.5t-57.5 -246.5t78 -283.5t204 -111.5q20 0 39 3t32 5t29.5 11t24 12t22.5 16.5t19 16.5t20.5 20.5 t18.5 19.5q33 37 62 12l49 -45q-39 -74 -134 -134t-261 -60z" glyph-name="c" horiz-adv-x="968" unicode="c"/><glyph d="M950 193q0 -49 27 -66.5t86 -7.5l-6 -84l-166 -39q-49 -12 -96 38t-60 154q-78 -201 -270 -200q-160 0 -282 127t-122 331t118 349t276 145q76 0 135 -24.5t85.5 -49t59.5 -65.5v332q0 49 -26.5 69.5t-85.5 18.5v84l268 38q34 4 42.5 -7t13.5 -21t5 -21l-2 -102v-999z M504 819q-96 0 -155.5 -101.5t-59.5 -242.5t60.5 -241.5t158.5 -100.5q141 0 227 162v401q-104 123 -231 123z" glyph-name="d" horiz-adv-x="1103" unicode="d"/><glyph d="M934 559q0 -59 -30 -94t-85 -35h-524q0 -139 74.5 -231.5t204.5 -92.5t241 134l78 -80q-131 -172 -343 -172t-350.5 136t-138.5 348t133.5 341t309.5 129t303 -111.5t127 -271.5zM717 537q0 143 -52.5 223t-154.5 80t-158.5 -81t-56.5 -222h422z" glyph-name="e" horiz-adv-x="995" unicode="e"/><glyph d="M532 1264q-147 0 -147 -260v-68h297q-33 -90 -43 -107.5t-39 -17.5h-215v-672q0 -35 19.5 -46t87.5 -11v-82h-414v82q57 0 75.5 11t18.5 46v672h-86q-20 0 -20 20v105h106v45q0 186 91 285.5t249 99.5q234 0 328 -141q23 -33 13.5 -74t-46.5 -59q-43 -18 -75 -7t-48 39 q-20 45 -35.5 69t-46.5 47.5t-70 23.5z" glyph-name="f" horiz-adv-x="813" unicode="f"/><glyph d="M528 322q-72 0 -143 22q-100 10 -119.5 -35t47.5 -82q37 -18 88 -26l203 -31q221 -37 314.5 -95.5t93.5 -199t-138.5 -233.5t-345.5 -93q-477 0 -477 258q0 100 64.5 162t165.5 88q-162 29 -209 140q-41 92 20 155t174 51q-129 94 -129 229.5t95.5 220.5t279.5 85 q115 0 201 -39t104 -108q18 147 160 147q37 0 68.5 -27.5t31.5 -69.5t-31.5 -69.5t-70.5 -15.5t-53.5 -13.5t-14.5 -113.5q2 -127 -99 -217t-280 -90zM698 614.5q0 69.5 -3 93t-18 57.5q-28 64 -144.5 64t-150.5 -54t-34 -116.5t4 -91t20 -64.5q32 -75 143 -75t147 58.5 t36 128zM268 -164q0 -184 260 -184q158 0 219.5 41t61.5 164q0 66 -36 94.5t-128 44.5l-270 43q-53 -23 -80 -81t-27 -122z" glyph-name="g" horiz-adv-x="1128" unicode="g"/><glyph d="M1020 205q0 -57 25.5 -81t97.5 -7l-27 -97q-55 -20 -138 -20t-127 42t-44 105v412q0 123 -32 182.5t-120 59.5q-131 0 -280 -174v-486q0 -35 23.5 -46t78.5 -11v-84h-411v84q51 0 73.5 11t22.5 46v992q0 96 -121 79v93l272 36q49 6 58.5 -39t-2.5 -112v-399l-11 -74 q131 227 342 227q156 0 237 -79t83 -279v-381z" glyph-name="h" horiz-adv-x="1173" unicode="h"/><glyph d="M259 1108q-54 0 -93 39t-39 92t39 92t93 39t93 -39t39 -92t-39 -92t-93 -39zM383 141q0 -57 88 -57v-84h-391v84q90 0 90 57v607q0 35 -13.5 49t-43.5 14h-41v94l245 35q66 8 66 -76v-723z" glyph-name="i" horiz-adv-x="542" unicode="i"/><glyph d="M291 1108q-53 0 -92 39t-39 92t39 92t92 39t92 -39t39 -92t-39 -92t-92 -39zM414 864v-1016q0 -188 -166 -258q-111 -43 -205 -17t-131 103q-23 41 -13.5 89.5t50.5 68.5q49 20 84 8t47 -38t23.5 -68.5t21.5 -63t27 -14.5q49 20 49 102v992q0 35 -13.5 49t-44.5 14h-41 v94l246 19q66 6 66 -64z" glyph-name="j" horiz-adv-x="544" unicode="j"/><glyph d="M1071 82v-82h-403v82q72 0 65 27q-2 6 -8 12l-356 336v-318q0 -57 65 -57v-82h-354v82q74 0 74 57v1014q0 68 -56 68h-57v84l278 41q49 6 50 -39v-779l299 254q33 29 0 45q-18 10 -60 11v86q186 -16 373 0v-86q-96 0 -143 -41l-293 -254l411 -410q33 -33 52.5 -42 t62.5 -9z" glyph-name="k" horiz-adv-x="1101" unicode="k"/><glyph d="M379 139q0 -57 65 -57v-82h-354v82q74 0 74 57v1014q0 68 -55 68h-58v84l279 41q49 6 49 -39v-1168z" glyph-name="l" horiz-adv-x="516" unicode="l"/><glyph d="M1583 141q0 -35 23.5 -46t79.5 -11v-84h-412v84q51 0 73.5 11t22.5 46v426q0 229 -141 230q-158 0 -244 -193v-463q0 -33 23.5 -45t76.5 -12v-84h-409v84q51 0 73.5 11t22.5 46v426q0 117 -29 173.5t-101 56.5t-125.5 -35t-77 -69t-54.5 -89v-463q0 -35 23.5 -46 t78.5 -11v-84h-411v84q51 0 73.5 11t22.5 46v590q0 96 -121 80v94l277 35q49 6 56 -39t-9 -115l-8 -79q72 123 120 167q76 68 177 68q268 0 309 -213q77 150 152 181.5t137 31.5q147 0 234 -88t87 -268v-445z" glyph-name="m" horiz-adv-x="1726" unicode="m"/><glyph d="M1030 205q0 -57 25.5 -81t97.5 -7l-27 -97q-57 -20 -139 -20t-126 42t-44 105v412q0 123 -31.5 182.5t-119.5 59.5q-131 0 -281 -174v-486q0 -35 23.5 -46t78.5 -11v-84h-411v84q51 0 73.5 11t22.5 46v590q0 96 -121 80v94l275 35q51 6 58 -39t-7 -113l-8 -71 q131 227 342 227q156 0 236.5 -79t82.5 -279v-381z" glyph-name="n" horiz-adv-x="1183" unicode="n"/><glyph d="M524.5 942q186.5 0 325.5 -129t139 -343t-138 -348t-322.5 -134t-326 132t-141.5 345t138.5 345t325 132zM760 408q0 195 -72 306t-184 111q-213 0 -213 -303q0 -184 71.5 -295.5t182.5 -111.5q215 0 215 293z" glyph-name="o" horiz-adv-x="1050" unicode="o"/><glyph d="M674 938q162 0 270.5 -126t108.5 -346t-121 -349t-281 -129q-96 0 -166.5 46t-107.5 107v-389q0 -35 23.5 -46t78.5 -11v-72h-413v72q51 0 73.5 11t22.5 46v989q0 96 -121 80v84l281 35q51 6 60 -43t-15 -117q145 158 307 158zM630 104q91 0 143 85t52 243t-50 258.5 t-142 100.5q-141 0 -256 -107v-379q31 -90 96.5 -145.5t156.5 -55.5z" glyph-name="p" horiz-adv-x="1114" unicode="p"/><glyph d="M733 -410v353q0 201 37 360l-37 -108q-68 -207 -295 -207q-174 0 -280.5 134t-106.5 354t102.5 344t263.5 124t306 -172l8 -8l100 141q33 45 73 39t40 -53v-1028q0 -31 1 -44.5t11.5 -22.5t32.5 -3l119 35v-92l-315 -170q-23 -12 -41.5 -4t-18.5 28zM331 727.5 q-52 -79.5 -52 -237.5t58.5 -252.5t158.5 -94.5t151 44t84 122v344q-2 2 -19.5 22.5t-23.5 27t-24.5 24.5t-64 49t-130.5 31q-86 0 -138 -79.5z" glyph-name="q" horiz-adv-x="1148" unicode="q"/><glyph d="M358 612q78 322 298 322q104 0 147 -36t0 -91l-51 -66q-38 -51 -83.5 -12t-99 39t-95.5 -48q-70 -80 -89 -206v-375q0 -35 25.5 -46t85.5 -11v-82h-426v82q55 0 79.5 12t24.5 45v592q0 51 -28.5 68.5t-94.5 9.5v94l275 35q49 6 57 -39t-6 -115z" glyph-name="r" horiz-adv-x="856" unicode="r"/><glyph d="M872 268q0 -131 -118.5 -205.5t-276 -74.5t-273.5 55t-130 96q-57 176 37 191q117 20 125 -56q27 -186 223 -186q100 0 153.5 38t53.5 91t-38 85t-78 46t-112 36q-132 39 -226 95q-122 74 -122 198t94.5 194.5t251 70.5t268 -56.5t115.5 -94.5q8 -98 -10 -133t-59 -40 q-115 -8 -105 64q12 68 -39 119t-140 51q-175 0 -175 -115q0 -70 60.5 -103.5t195.5 -73.5t198 -81q127 -80 127 -211z" glyph-name="s" horiz-adv-x="933" unicode="s"/><glyph d="M139 287v518h-98v104q85 0 143 75q39 51 90 149q16 31 50 27.5t34 -34.5v-202h226v-70q0 -49 -45 -49h-181v-553q0 -156 88 -156q50 0 111 41q29 20 56.5 -17.5t-1.5 -58.5q-94 -74 -219 -73q-254 0 -254 299z" glyph-name="t" horiz-adv-x="647" unicode="t"/><glyph d="M987 195q0 -92 115 -74v-84l-158 -43q-66 -18 -112 29t-58 178v4q-16 -49 -45 -92t-97.5 -84t-162.5 -41q-154 0 -247 88t-93 256v422q0 66 -57 65h-31v80l250 37q53 4 53 -43v-539q0 -125 47 -178t143 -53t150.5 54t89.5 161v416q0 35 -12 50t-43 15h-31v80l248 37 q51 10 51 -43v-698z" glyph-name="u" horiz-adv-x="1142" unicode="u"/><glyph d="M535 -8q-57 0 -84 61l-269 627q-55 133 -119 158l-43 16v70q217 -16 433 0v-70l-41 -16q-37 -14 -39 -37t33 -121l190 -498l162 492q40 115 23 134t-44 30l-45 16v70q193 -14 389 0v-70l-47 -16q-82 -27 -137 -162l-281 -684h-81z" glyph-name="v" horiz-adv-x="1101" unicode="v"/><glyph d="M1085 -6q-57 0 -77 57l-195 504l-219 -561h-86q-57 0 -78 57l-248 629q-53 133 -119 158l-43 16v70q217 -16 433 0v-70l-43 -16q-37 -14 -40 -36t31 -122l172 -477l168 530q-41 88 -86 105l-53 16v70q223 -16 442 0v-70l-53 -16q-37 -14 -40 -36t30 -122l172 -477 l147 471q27 100 23 124.5t-43 39.5l-45 16v70q203 -16 389 0v-70l-47 -16q-86 -29 -137 -162l-269 -682h-86z" glyph-name="w" horiz-adv-x="1644" unicode="w"/><glyph d="M1006 102l55 -4v-98q-221 16 -447 0v98l56 2q35 4 43 13.5t-13 44.5l-182 223l-184 -213q-23 -27 -12.5 -45.5t38.5 -22.5l43 -2v-98q-182 16 -362 0v98l55 4q43 6 99 68l256 295l-234 289q-44 54 -69 64.5t-52 17.5l-41 10v76q223 -14 447 0v-76l-56 -8q-53 -8 -12 -62 l146 -182l147 170q53 59 -10 74l-43 8v76q180 -12 360 0v-76l-47 -10q-76 -14 -153 -109l-187 -219l275 -342q45 -58 84 -64z" glyph-name="x" horiz-adv-x="1101" unicode="x"/><glyph d="M1110 924v-70l-29 -12q-20 -10 -36 -16q-41 -14 -50 -40l-420 -958q-59 -137 -123.5 -202.5t-170.5 -65.5q-207 0 -238 127q-16 66 11.5 105.5t87.5 39.5t82 -24q22 -26 24 -54q6 -79 61 -78.5t119 152.5l76 174l-377 784q-16 39 -68 56l-36 12v70h434v-70l-51 -10 q-66 -12 -46 -58l267 -555l225 555q8 20 -6.5 36t-40.5 22l-57 10v70h362z" glyph-name="y" horiz-adv-x="1130" unicode="y"/><glyph d="M885 229l-37 -229q-365 14 -729 0q-41 -2 -53.5 30.5t12.5 67.5l518 717l-375 -12q-35 -2 -63 -68l-11 -30h-81l36 223q399 -14 801 0l-594 -813l418 12q34 0 49 48q4 13 6 18l13 36h90z" glyph-name="z" horiz-adv-x="954" unicode="z"/><glyph d="M418 88q0 -170 19.5 -254t84.5 -119l-59 -55q-98 39 -153.5 109.5t-71 142.5t-15.5 176v363q0 45 -24.5 66.5t-106.5 57.5v60q82 37 106.5 58.5t24.5 66.5v362q0 104 15.5 176t71 142.5t153.5 109.5l59 -55q-66 -35 -85 -119t-19 -254v-336q0 -131 -162 -178v-6 q162 -47 162 -178v-336z" glyph-name="braceleft" horiz-adv-x="573" unicode="{"/><glyph d="M184 1638h156v-2078h-156v2078z" glyph-name="bar" horiz-adv-x="524" unicode="|"/><glyph d="M156 88v336q0 131 161 178v6q-162 47 -161 178v336q0 170 -19.5 254t-85.5 119l60 55q98 -39 153 -109.5t70.5 -142t15.5 -176.5v-362q0 -45 24.5 -66.5t106.5 -58.5v-60q-82 -37 -106.5 -58t-24.5 -66v-363q0 -104 -15.5 -176t-70.5 -142.5t-153 -109.5l-60 55 q66 35 85.5 119t19.5 254z" glyph-name="braceright" horiz-adv-x="573" unicode="}"/><glyph d="M719 379q-76 0 -141.5 36t-116.5 70.5t-90 34.5t-72 -50t-68 -50h-88q29 100 98.5 162.5t158.5 62.5t183.5 -60.5t140.5 -60.5t87 44t63 44h87q-20 -104 -93 -168.5t-149 -64.5z" glyph-name="asciitilde" horiz-adv-x="1103" unicode="~"/><glyph d="M231.5 1153q53.5 0 91 -39t37.5 -91t-38.5 -91t-90 -39t-90.5 39t-39 91t38 91t91.5 39zM371 -41q0 -78 -40 -121t-99.5 -43t-99.5 43t-40 121t46 339t50 435h86q4 -174 50.5 -435t46.5 -339z" glyph-name="exclamdown" horiz-adv-x="514" unicode="¡"/><glyph d="M508 -12q-45 0 -84 8l-33 -121h-117l43 158q-115 55 -185.5 168.5t-70.5 261.5q0 219 135.5 349t319.5 130q33 0 49 -2l33 123h117l-39 -143q102 -31 160.5 -95.5t58.5 -122.5q0 -110 -102 -110q-53 0 -82 23.5t-29 58.5q0 104 -37 131l-182 -668q53 -29 112 -26 q20 0 39 3t32 5t29.5 11t24 12t22.5 16.5t19 16.5t20.5 20.5t18.5 19.5q33 37 62 12l49 -45q-39 -74 -134 -134t-249 -60zM293 503q0 -171 78 -280l164 606q-129 0 -185.5 -77.5t-56.5 -248.5z" glyph-name="cent" horiz-adv-x="1005" unicode="¢"/><glyph d="M961 0h-861v135q197 119 197 250q0 57 -35 127h-170v123h103q-86 150 -86 280q0 160 133 275t355 115t351 -113t129 -287q0 -61 -31.5 -105t-107.5 -44t-115 82q-2 18 11.5 59t13.5 72q0 211 -252 211q-129 0 -194.5 -69t-65.5 -167t30.5 -149.5t62.5 -95.5t44 -64h250 v-123h-201q6 -31 6 -72q0 -199 -184 -305q41 2 183 2t261.5 12.5t145.5 63.5l22 43h121l-51 -209q-12 -47 -65 -47z" glyph-name="sterling" horiz-adv-x="1177" unicode="£"/><glyph d="M608 39q-141 0 -254 84l-135 -133l-82 80l137 133q-90 117 -90 261t86 261l-131 131l80 84l133 -133q117 86 259 86t257 -88l136 135l79 -84l-133 -133q86 -117 86 -259t-90 -259l139 -135l-81 -80l-138 135q-117 -86 -258 -86zM309 467q0 -127 88 -221t213 -94t216.5 94 t91.5 221t-91.5 219t-217.5 92t-213 -92t-87 -219z" glyph-name="currency" horiz-adv-x="1222" unicode="¤"/><glyph d="M901 1272h379v-94q-61 -8 -95 -34t-77 -87l-248 -367h230v-123h-312l-8 -10v-90h320v-123h-320v-176q0 -35 40 -46t110 -22v-100h-517v100q121 19 136.5 35.5t15.5 32.5v176h-305v123h305v37l-43 63h-262v123h182l-211 316q-77 118 -107 142t-83 30v94h465v-94 q-47 -8 -70 -25.5t-6 -42.5l297 -448l282 428q25 37 -3.5 58t-94.5 30v94z" glyph-name="yen" horiz-adv-x="1306" unicode="¥"/><glyph d="M184 924v714h156v-714h-156zM184 -440v714h156v-714h-156z" glyph-name="brokenbar" horiz-adv-x="524" unicode="¦"/><glyph d="M586 -207q-86 0 -135.5 6t-81 13.5t-69.5 20.5t-54.5 21.5t-48 24t-37.5 19.5l-92 319l59 23q59 23 72 -29q10 -20 37 -109q63 -201 303 -200q82 0 135 11t90 55t24 124q-7 67 -36 89t-39.5 31t-33 18.5t-33.5 13.5t-39.5 11t-39 10t-41 9.5t-36.5 7.5t-53.5 11t-62 14 t-58.5 17.5t-89.5 37t-83.5 72t-49 119.5q-23 133 72 242q-53 59 -64 137q-27 156 86 264.5t310 108.5t291 -57.5t118 -65.5l23 -260l-62 -15q-51 -14 -61 29q-4 25 -35 113q-23 82 -84.5 116.5t-177.5 34.5t-176 -56.5t-48 -139.5t65.5 -106.5t111 -32.5t71.5 -11t46 -8 t48.5 -9t53.5 -12.5t59.5 -17.5t57.5 -22.5t78 -42.5t78.5 -75.5t43.5 -115.5q14 -143 -71 -240q64 -63 77 -165t-54.5 -188.5t-173 -125.5t-191.5 -39zM297 717q-35 -86 -6.5 -134.5t52.5 -62.5t35 -19t41 -12.5t39 -10.5t44 -8t41 -7t87.5 -18.5t151.5 -45.5 q14 63 1 105.5t-27.5 59t-24.5 27.5t-33.5 21.5t-36 17.5t-43 14t-42 10t-46 10.5t-46.5 10.5t-76 14.5t-111 27.5z" glyph-name="section" horiz-adv-x="1067" unicode="§"/><glyph d="M272.5 1133q-57.5 0 -98.5 40.5t-41 98t41 98.5t98.5 41t98.5 -41t41 -98.5t-41 -98t-98.5 -40.5zM716.5 1133q-57.5 0 -98 40.5t-40.5 98t40.5 98.5t98 41t97.5 -41t40 -98.5t-40 -98t-97.5 -40.5z" glyph-name="dieresis" horiz-adv-x="987" unicode="¨"/><glyph d="M782 1188q293 0 486.5 -194.5t193.5 -502t-193.5 -502t-486.5 -194.5t-488.5 194.5t-195.5 502t195.5 502t488.5 194.5zM1303 491.5q0 264.5 -138.5 430t-382 165.5t-382 -165.5t-138.5 -430t138.5 -430t382 -165.5t382 165.5t138.5 430zM786 82q-134 0 -232.5 111.5 t-98.5 288.5t99.5 284.5t239.5 107.5t218 -65.5t78 -153.5q0 -29 -20.5 -50t-59.5 -21q-84 0 -84 65q0 71 -10.5 97t-33 33t-63.5 7q-106 0 -152 -64.5t-46 -203.5t64.5 -236.5t164.5 -97.5q43 0 74.5 14.5t43 28t38.5 47.5t57 9l35 -35q-29 -63 -103.5 -114.5t-208.5 -51.5 z" glyph-name="copyright" horiz-adv-x="1560" unicode="©"/><glyph d="M590 805q0 -33 14 -36t58 17v-77l-99 -31q-37 -12 -65.5 14.5t-40.5 79.5q-61 -96 -181 -98q-86 -2 -145 37t-59 117t79.5 133t294.5 86v12q0 164 -108 153q-73 -5 -77.5 -23t-4.5 -40.5t-4 -36.5q-4 -20 -34 -32.5t-60 -8.5q-70 10 -49 90q10 43 69.5 77t130.5 40 q131 12 206 -45t75 -172v-256zM301 752q39 0 69.5 21.5t43 39.5t32.5 55v117q-96 -16 -149 -46t-64.5 -54.5t-11.5 -57.5q0 -75 80 -75zM111 553h510v-104h-510v104z" glyph-name="ordfeminine" horiz-adv-x="733" unicode="ª"/><glyph d="M98 469l365 338v-141l-137 -197l137 -197v-141zM508 469l364 338v-141l-137 -197l137 -197v-141z" glyph-name="guillemotleft" horiz-adv-x="937" unicode="«"/><glyph d="M1032 770v-477h-141v336h-748v141h889z" glyph-name="logicalnot" horiz-adv-x="1175" unicode="¬"/><glyph d="M92 578h553v-129h-553v129z" glyph-name="uni00AD" horiz-adv-x="778" unicode="­"/><glyph d="M783 1194q296 0 490.5 -196.5t194.5 -506t-194.5 -506t-490.5 -196.5t-493.5 196.5t-197.5 506t197.5 506t493.5 196.5zM781 -111q245 0 385.5 168t140.5 434.5t-140.5 434.5t-385.5 168t-384 -168t-139 -434.5t139 -434.5t384 -168zM1124 184v-59h-94q-119 0 -170 194 q-20 78 -46 104t-85 26h-49v-203q0 -27 11 -38t46 -24v-57h-272v57q35 10 44 21.5t9 40.5v497q0 31 -11 44.5t-42 23.5v55h319q121 0 200 -60.5t79 -148.5q0 -152 -176 -178q59 -14 85 -49t39 -91t47 -105.5t66 -49.5zM791 522q109 0 108 135q0 59 -24.5 96.5t-73.5 37.5 h-121v-269h111z" glyph-name="registered" horiz-adv-x="1560" unicode="®"/><glyph d="M119 1303q0 35 41 34h579q41 0 41 -34v-72q0 -35 -41 -35h-579q-41 0 -41 35v72z" glyph-name="macron" horiz-adv-x="899" unicode="¯"/><glyph d="M313.5 1298q96.5 0 163 -67.5t66.5 -167.5t-66.5 -168t-163 -68t-164 68t-67.5 168t67.5 167.5t164 67.5zM422 1062.5q0 61.5 -30 102.5t-81 41t-79.5 -41t-28.5 -102.5t28.5 -102t79.5 -40.5t81 40.5t30 102z" glyph-name="degree" horiz-adv-x="624" unicode="°"/><glyph d="M594 793h307v-142h-307v-311h-141v311h-310v142h310v307h141v-307zM143 -8v141h758v-141h-758z" glyph-name="plusminus" horiz-adv-x="1044" unicode="±"/><glyph d="M387 1163q0 35 -21.5 58.5t-54.5 23.5q-63 0 -78 -49q-4 -20 1.5 -44t3.5 -34q-14 -31 -46 -35t-57.5 13.5t-25.5 40.5q0 76 52 126t147 50t144.5 -42t49.5 -114q0 -35 -10.5 -52.5t-15.5 -27.5t-17.5 -21.5t-18.5 -17.5t-23.5 -17t-22.5 -14t-24.5 -15t-41.5 -24 t-51 -31t-41 -54h176q33 0 43 16l18 27h57l-20 -105q-6 -29 -43 -28h-375q31 152 201 256q94 57 94 114z" glyph-name="uni00B2" horiz-adv-x="622" unicode="²"/><glyph d="M551 967q0 -78 -62.5 -130.5t-156.5 -52.5t-151.5 48.5t-57.5 106.5t53 58q31 0 43 -11t16.5 -41t6.5 -36q20 -61 90 -61q41 0 68.5 31t27.5 85t-44 67t-95 -15l-27 57l49 23q76 27 76 90t-65 63q-45 0 -61.5 -40t-4.5 -81l-90 13q-25 10 -25 28q-2 63 48.5 104.5 t137.5 41.5t136 -40t49 -92t-55 -81q94 -35 94 -135z" glyph-name="uni00B3" horiz-adv-x="653" unicode="³"/><glyph d="M121 1178l217 233q80 88 149 10q33 -45 19 -86t-62 -69l-276 -160q-37 -23 -57 8q-23 31 10 64z" glyph-name="acute" horiz-adv-x="616" unicode="´"/><glyph d="M1128 1108v-1081q0 -37 19.5 -53.5t73.5 -24.5v-86h-775v86q74 8 97.5 24.5t23.5 53.5v465h-35q-219 0 -355 105t-136 283.5t144.5 285t365.5 106.5h670v-96q-60 -11 -76.5 -28.5t-16.5 -39.5zM504 598h63v565h-45q-244 0 -243.5 -282.5t225.5 -282.5zM922 27v1079 q0 35 -10.5 46t-37.5 11h-100v-1136q0 -37 16.5 -52.5t57.5 -15.5t57.5 15.5t16.5 52.5z" glyph-name="paragraph" horiz-adv-x="1312" unicode="¶"/><glyph d="M190.5 473q-53.5 0 -91.5 38t-38 91t38 91t91.5 38t91 -38t37.5 -91t-37.5 -91t-91 -38z" glyph-name="periodcentered" horiz-adv-x="462" unicode="·"/><glyph d="M91 -225q36 0 71 -31q11 -82 36 -95.5t50 -13.5q94 -4 110 93q8 49 -19 75.5t-61 23.5t-59.5 -8t-34.5 -5q-35 -6 -50.5 18t6.5 56t57 112h139l-43 -94q90 12 158.5 -44.5t53.5 -145.5t-93 -132t-174 -39t-156 47.5t-68 87.5t16.5 69.5t60.5 25.5z" glyph-name="cedilla" horiz-adv-x="528" unicode="¸"/><glyph d="M264 897q0 -33 60 -37v-57h-238v57q59 4 59 37v313l-63 -20v70l115 51q27 12 48 -0.5t19 -30.5v-383z" glyph-name="uni00B9" horiz-adv-x="395" unicode="¹"/><glyph d="M657 979q0 -133 -86.5 -218t-204.5 -85t-206 83t-88 216t87 217t206 84t205.5 -82t86.5 -215zM375 752q137 0 137 198q0 104 -47 179t-100 75q-147 0 -148 -209q0 -96 47 -169.5t111 -73.5zM111 553h510v-104h-510v104z" glyph-name="ordmasculine" horiz-adv-x="729" unicode="º"/><glyph d="M430 469l-364 -338v141l137 197l-137 197v141zM840 469l-365 -338v141l137 197l-137 197v141z" glyph-name="guillemotright" horiz-adv-x="937" unicode="»"/><glyph d="M145 897v313l-63 -20v70l115 51q27 12 48 -0.5t19 -30.5v-383q0 -33 60 -37v-57h-238v57q59 4 59 37zM963 1303h141l-885 -1313h-141zM1255 137h-69v-65q0 -37 51 -37v-47h-225v47q49 0 49 37v65h-203v70l246 295q18 23 50 14.5t32 -33.5v-272h69v-74zM1061 211v127 l-107 -127h107z" glyph-name="onequarter" horiz-adv-x="1357" unicode="¼"/><glyph d="M264 897q0 -33 60 -37v-57h-238v57q59 4 59 37v313l-63 -20v70l115 51q27 12 48 -0.5t19 -30.5v-383zM963 1303h141l-885 -1313h-141zM1057 440q-63 0 -78 -49q-4 -20 1 -43.5t3 -34.5q-14 -31 -46 -35t-57.5 13.5t-25.5 40.5q0 76 52 126t148 50t144.5 -42t48.5 -114 q0 -35 -10 -52t-15 -27.5t-17.5 -21.5t-18.5 -17.5t-23.5 -17.5t-22.5 -14t-24.5 -14.5t-41.5 -23.5t-52 -32t-41 -54h176q33 0 43 16l19 27h57l-21 -105q-6 -29 -43 -28h-374q31 152 200 256q94 57 95 114q0 35 -21.5 58.5t-54.5 23.5z" glyph-name="onehalf" horiz-adv-x="1368" unicode="½"/><glyph d="M551 967q0 -78 -62.5 -130.5t-156.5 -52.5t-151.5 48.5t-57.5 106.5t53 58q31 0 43 -11t16.5 -41t6.5 -36q20 -61 90 -61q41 0 68.5 31t27.5 85t-44 67t-95 -15l-27 57l49 23q76 27 76 90t-65 63q-45 0 -61.5 -40t-4.5 -81l-90 13q-25 10 -25 28q-2 63 48.5 104.5 t137.5 41.5t136 -40t49 -92t-55 -81q94 -35 94 -135zM1145 1303h141l-885 -1313h-141zM1415 137h-69v-65q0 -37 51 -37v-47h-223v47q49 0 49 37v65h-205v70l246 295q18 23 50 14.5t32 -33.5v-272h69v-74zM1223 211v127l-109 -127h109z" glyph-name="threequarters" horiz-adv-x="1548" unicode="¾"/><glyph d="M545 1153q53 0 91 -39t38 -91t-38 -91t-91 -39t-91 39t-38 91t38 91t91 39zM915 131q0 -150 -117.5 -248t-310.5 -98q-119 0 -216 57.5t-144 140.5t-30.5 184t108.5 183q51 47 112.5 89t90 63.5t30.5 42.5l21 164h100l23 -164q16 -133 -100 -226t-148.5 -145.5 t-31.5 -123.5t50 -118t133 -47q147 0 199 107q18 35 -18.5 142.5t16.5 141.5q45 35 96 37t94 -48t43 -134z" glyph-name="questiondown" horiz-adv-x="1007" unicode="¿"/><glyph d="M520 1614q-47 29 -61.5 69.5t18.5 85.5q70 78 150 -10l217 -233q33 -33 11.5 -64t-58.5 -8zM1403 0h-479v90q82 14 97 29.5t-3 52.5l-117 270h-467l-106 -260q-14 -35 12.5 -55.5t103.5 -36.5v-90h-403v90q78 18 101.5 35.5t52.5 85.5l452 1077l80 -22q55 -18 74 -64 l420 -940q45 -102 75.5 -129t106.5 -43v-90zM477 549h379l-194 448z" glyph-name="Agrave" horiz-adv-x="1443" unicode="À"/><glyph d="M686 1454q-37 -23 -57 8q-23 31 10 64l217 233q80 88 150 10q33 -45 18.5 -86t-61.5 -69zM1403 0h-479v90q82 14 97 29.5t-3 52.5l-117 270h-467l-106 -260q-14 -35 12.5 -55.5t103.5 -36.5v-90h-403v90q78 18 101.5 35.5t52.5 85.5l452 1077l80 -22q55 -18 74 -64 l420 -940q45 -102 75.5 -129t106.5 -43v-90zM477 549h379l-194 448z" glyph-name="Aacute" horiz-adv-x="1443" unicode="Á"/><glyph d="M719 1579l-197 -137h-141l338 364l338 -364h-142zM1403 0h-479v90q82 14 97 29.5t-3 52.5l-117 270h-467l-106 -260q-14 -35 12.5 -55.5t103.5 -36.5v-90h-403v90q78 18 101.5 35.5t52.5 85.5l452 1077l80 -22q55 -18 74 -64l420 -940q45 -102 75.5 -129t106.5 -43v-90z M477 549h379l-194 448z" glyph-name="Acircumflex" horiz-adv-x="1443" unicode="Â"/><glyph d="M552 1718q91 0 177 -59.5t139 -59.5t90 32t33 55h105q-10 -104 -81 -167t-164 -63t-186.5 69.5t-142.5 69.5t-77.5 -36.5t-24.5 -61.5h-84q-25 92 50 156.5t166 64.5zM1403 0h-479v90q82 14 97 29.5t-3 52.5l-117 270h-467l-106 -260q-14 -35 12.5 -55.5t103.5 -36.5v-90 h-403v90q78 18 101.5 35.5t52.5 85.5l452 1077l80 -22q55 -18 74 -64l420 -940q45 -102 75.5 -129t106.5 -43v-90zM477 549h379l-194 448z" glyph-name="Atilde" horiz-adv-x="1443" unicode="Ã"/><glyph d="M479.5 1481q-57.5 0 -98.5 41t-41 98t41 98t98.5 41t98 -41t40.5 -98t-40.5 -98t-98 -41zM923.5 1481q-57.5 0 -98.5 41t-41 98t41 98t98.5 41t97.5 -41t40 -98t-40 -98t-97.5 -41zM1403 0h-479v90q82 14 97 29.5t-3 52.5l-117 270h-467l-106 -260q-14 -35 12.5 -55.5 t103.5 -36.5v-90h-403v90q78 18 101.5 35.5t52.5 85.5l452 1077l80 -22q55 -18 74 -64l420 -940q45 -102 75.5 -129t106.5 -43v-90zM477 549h379l-194 448z" glyph-name="Adieresis" horiz-adv-x="1443" unicode="Ä"/><glyph d="M714 1458q-85 0 -146.5 58.5t-61.5 139.5t61.5 139t146.5 58t144.5 -58t59.5 -139t-59.5 -139.5t-144.5 -58.5zM710 1751q-30 0 -53.5 -29.5t-23.5 -67.5t23.5 -66.5t53.5 -28.5t53 29.5t23 66.5t-23 66.5t-53 29.5zM1403 0h-479v90q82 14 97 29.5t-3 52.5l-117 270h-467 l-106 -260q-14 -35 12.5 -55.5t103.5 -36.5v-90h-403v90q78 18 101.5 35.5t52.5 85.5l452 1077l80 -22q55 -18 74 -64l420 -940q45 -102 75.5 -129t106.5 -43v-90zM477 549h379l-194 448z" glyph-name="Aring" horiz-adv-x="1443" unicode="Å"/><glyph d="M1853 0h-964v92q63 14 93 33.5t30 60.5v246h-459l-180 -239q-31 -39 2 -64t125 -41v-88h-459v88q82 14 117 36.5t86 88.5l655 860q33 41 32 66.5t-38 42.5h-4v90h940q20 0 27.5 -7.5t7.5 -29.5v-221h-90l-31 67q-18 41 -55 54.5t-109 13.5h-326v-442h344q57 1 81 41 q8 14 24 57h55v-313h-55q-31 74 -50 87t-55 13h-344v-471l428 4q57 0 83 11t55 48l53 68h108q-29 -57 -65 -205q-12 -47 -62 -47zM1012 539v497l-377 -497h377z" glyph-name="AE" horiz-adv-x="2052" unicode="Æ"/><glyph d="M503 -225q36 0 70 -31q3 -29 7 -38q4 -8 12 -30q15 -40 67 -41q94 -4 111 93q8 49 -18.5 75.5t-61 23.5t-60.5 -8t-34 -5q-35 -6 -50.5 17.5t4.5 51t52 103.5q-229 33 -385 218t-156 460.5t172.5 458t412.5 182.5t380 -168q40 0 57 102q10 39 39 33l60 -10l24 -373 l-98 -33q-35 -10 -47 23q-4 12 -29 73q-92 236 -325 236q-172 0 -276.5 -126t-104.5 -371t122 -409q120 -165 308 -165q188 1 317 199q32 50 52.5 49.5t48.5 -19.5t33 -40.5t-25 -74.5q-137 -233 -443 -249l-34 -76q90 12 158.5 -44.5t53 -145.5t-93.5 -132t-174 -39 t-155.5 47t-67.5 87.5t16.5 70t60.5 25.5z" glyph-name="Ccedilla" horiz-adv-x="1269" unicode="Ç"/><glyph d="M731 1526q33 -33 11.5 -64t-58.5 -8l-276 160q-47 29 -61.5 69.5t18.5 85.5q70 78 149 -10zM1036 0h-964v92q63 14 93 33.5t30 60.5v901q0 41 -30 60.5t-93 34.5v90h940q20 0 27.5 -7.5t7.5 -29.5v-221h-91l-30 67q-18 41 -55 54.5t-109 13.5h-326v-442h344q58 1 80 41 q8 14 25 57h55v-313h-55q-31 74 -50 87t-55 13h-344v-471l428 4q57 0 83 11t54 48l54 68h108q-29 -57 -65 -205q-12 -47 -62 -47z" glyph-name="Egrave" unicode="È"/><glyph d="M524 1526l217 233q80 88 150 10q33 -45 18.5 -86t-61.5 -69l-277 -160q-37 -23 -57 8q-23 31 10 64zM1036 0h-964v92q63 14 93 33.5t30 60.5v901q0 41 -30 60.5t-93 34.5v90h940q20 0 27.5 -7.5t7.5 -29.5v-221h-91l-30 67q-18 41 -55 54.5t-109 13.5h-326v-442h344 q58 1 80 41q8 14 25 57h55v-313h-55q-31 74 -50 87t-55 13h-344v-471l428 4q57 0 83 11t54 48l54 68h108q-29 -57 -65 -205q-12 -47 -62 -47z" glyph-name="Eacute" unicode="É"/><glyph d="M604 1806l338 -364h-141l-197 137l-196 -137h-142zM1036 0h-964v92q63 14 93 33.5t30 60.5v901q0 41 -30 60.5t-93 34.5v90h940q20 0 27.5 -7.5t7.5 -29.5v-221h-91l-30 67q-18 41 -55 54.5t-109 13.5h-326v-442h344q58 1 80 41q8 14 25 57h55v-313h-55q-31 74 -50 87 t-55 13h-344v-471l428 4q57 0 83 11t54 48l54 68h108q-29 -57 -65 -205q-12 -47 -62 -47z" glyph-name="Ecircumflex" unicode="Ê"/><glyph d="M366.5 1481q-57.5 0 -98.5 41t-41 98t41 98t98.5 41t98.5 -41t41 -98t-41 -98t-98.5 -41zM811 1481q-57 0 -98 41t-41 98t41 98t98 41t97 -41t40 -98t-40 -98t-97 -41zM1036 0h-964v92q63 14 93 33.5t30 60.5v901q0 41 -30 60.5t-93 34.5v90h940q20 0 27.5 -7.5 t7.5 -29.5v-221h-91l-30 67q-18 41 -55 54.5t-109 13.5h-326v-442h344q58 1 80 41q8 14 25 57h55v-313h-55q-31 74 -50 87t-55 13h-344v-471l428 4q57 0 83 11t54 48l54 68h108q-29 -57 -65 -205q-12 -47 -62 -47z" glyph-name="Edieresis" unicode="Ë"/><glyph d="M461 1526q33 -33 11 -64t-58 -8l-277 160q-47 29 -61.5 69.5t18.5 85.5q70 78 150 -10zM444 180q0 -41 31 -60.5t94 -33.5v-86h-487v86q63 14 94 33.5t31 60.5v907q0 41 -31 60.5t-94 34.5v90h487v-90q-63 -14 -94 -34t-31 -61v-907z" glyph-name="Igrave" horiz-adv-x="651" unicode="Ì"/><glyph d="M254 1526l217 233q80 88 150 10q33 -45 18.5 -86t-61.5 -69l-277 -160q-37 -23 -57 8q-23 31 10 64zM444 180q0 -41 31 -60.5t94 -33.5v-86h-487v86q63 14 94 33.5t31 60.5v907q0 41 -31 60.5t-94 34.5v90h487v-90q-63 -14 -94 -34t-31 -61v-907z" glyph-name="Iacute" horiz-adv-x="651" unicode="Í"/><glyph d="M336 1806l338 -364h-142l-196 137l-197 -137h-141zM444 180q0 -41 31 -60.5t94 -33.5v-86h-487v86q63 14 94 33.5t31 60.5v907q0 41 -31 60.5t-94 34.5v90h487v-90q-63 -14 -94 -34t-31 -61v-907z" glyph-name="Icircumflex" horiz-adv-x="651" unicode="Î"/><glyph d="M96.5 1481q-57.5 0 -98.5 41t-41 98t41 98t98.5 41t98.5 -41t41 -98t-41 -98t-98.5 -41zM540.5 1481q-57.5 0 -98.5 41t-41 98t41 98t98.5 41t97.5 -41t40 -98t-40 -98t-97.5 -41zM444 180q0 -41 31 -60.5t94 -33.5v-86h-487v86q63 14 94 33.5t31 60.5v907q0 41 -31 60.5 t-94 34.5v90h487v-90q-63 -14 -94 -34t-31 -61v-907z" glyph-name="Idieresis" horiz-adv-x="651" unicode="Ï"/><glyph d="M532 1272q354 0 545 -150.5t191 -484.5q0 -158 -47 -276.5t-120 -187.5q-199 -188 -593 -165q-247 14 -449 -8v102q133 29 134 99v379h-162v112h162v393q0 70 -132 95v92h471zM1001 634q0 259 -109.5 395t-320.5 136h-141v-473h154v-112h-154v-373q0 -78 66 -80l108 -6 q205 -12 301 121t96 392z" glyph-name="Eth" horiz-adv-x="1339" unicode="Ð"/><glyph d="M861 1456q-93 0 -186 69.5t-142 69.5t-78 -36.5t-25 -61.5h-84q-25 92 50 156.5t166 64.5t177 -59.5t139.5 -59.5t90.5 32t32 55h105q-10 -104 -81 -167t-164 -63zM1366 1272v-86q-127 -27 -127 -94v-1092q0 -16 -39 -16t-51 16l-821 981v-799q0 -70 127 -94v-88h-383v88 q127 25 127 94v910q0 70 -127 94v86h338l682 -862v682q0 70 -125 94v86h399z" glyph-name="Ntilde" horiz-adv-x="1437" unicode="Ñ"/><glyph d="M817 1526q33 -33 11.5 -64t-58.5 -8l-276 160q-47 29 -61.5 69.5t18.5 85.5q70 78 149 -10zM1309 649q0 -283 -179.5 -476t-446.5 -193t-444.5 186t-177.5 479t178.5 476.5t444.5 183.5t445.5 -186.5t179.5 -469.5zM731 121q147 0 231.5 100.5t84.5 370.5t-112 432 t-290 162q-322 0 -321 -471q0 -264 115.5 -429t291.5 -165z" glyph-name="Ograve" horiz-adv-x="1370" unicode="Ò"/><glyph d="M612 1526l217 233q80 88 150 10q33 -45 18.5 -86t-61.5 -69l-277 -160q-37 -23 -57 8q-23 31 10 64zM1309 649q0 -283 -179.5 -476t-446.5 -193t-444.5 186t-177.5 479t178.5 476.5t444.5 183.5t445.5 -186.5t179.5 -469.5zM731 121q147 0 231.5 100.5t84.5 370.5 t-112 432t-290 162q-322 0 -321 -471q0 -264 115.5 -429t291.5 -165z" glyph-name="Oacute" horiz-adv-x="1370" unicode="Ó"/><glyph d="M692 1806l338 -364h-141l-197 137l-196 -137h-142zM1309 649q0 -283 -179.5 -476t-446.5 -193t-444.5 186t-177.5 479t178.5 476.5t444.5 183.5t445.5 -186.5t179.5 -469.5zM731 121q147 0 231.5 100.5t84.5 370.5t-112 432t-290 162q-322 0 -321 -471q0 -264 115.5 -429 t291.5 -165z" glyph-name="Ocircumflex" horiz-adv-x="1370" unicode="Ô"/><glyph d="M824.5 1456q-93.5 0 -186.5 69.5t-142 69.5t-78 -36.5t-25 -61.5h-84q-25 92 50 156.5t166.5 64.5t177 -59.5t139 -59.5t90.5 32t33 55h104q-10 -104 -80.5 -167t-164 -63zM1309 649q0 -283 -179.5 -476t-446.5 -193t-444.5 186t-177.5 479t178.5 476.5t444.5 183.5 t445.5 -186.5t179.5 -469.5zM731 121q147 0 231.5 100.5t84.5 370.5t-112 432t-290 162q-322 0 -321 -471q0 -264 115.5 -429t291.5 -165z" glyph-name="Otilde" horiz-adv-x="1370" unicode="Õ"/><glyph d="M452.5 1481q-57.5 0 -98.5 41t-41 98t41 98t98.5 41t98.5 -41t41 -98t-41 -98t-98.5 -41zM897 1481q-57 0 -98 41t-41 98t41 98t98 41t97 -41t40 -98t-40 -98t-97 -41zM1309 649q0 -283 -179.5 -476t-446.5 -193t-444.5 186t-177.5 479t178.5 476.5t444.5 183.5 t445.5 -186.5t179.5 -469.5zM731 121q147 0 231.5 100.5t84.5 370.5t-112 432t-290 162q-322 0 -321 -471q0 -264 115.5 -429t291.5 -165z" glyph-name="Odieresis" horiz-adv-x="1370" unicode="Ö"/><glyph d="M793 739l-224 -223l224 -225l-101 -103l-223 226l-225 -226l-101 103l224 225l-224 223l101 103l225 -226l223 226z" glyph-name="multiply" horiz-adv-x="935" unicode="×"/><glyph d="M686 -20q-193 0 -344 98l-82 -109l-102 82l84 111q-180 190 -180.5 483t178 476.5t446.5 183.5q193 0 342 -103l78 103l102 -82l-78 -105q178 -188 178.5 -470t-179 -475t-443.5 -193zM324 715q0 -205 69 -350l520 686q-106 135 -268 135q-321 0 -321 -471zM727.5 121 q150.5 0 235 100.5t84.5 370.5q0 195 -62 336l-516 -682q108 -125 258.5 -125z" glyph-name="Oslash" horiz-adv-x="1394" unicode="Ø"/><glyph d="M860 1526q33 -33 11.5 -64t-58.5 -8l-276 160q-47 29 -61.5 69.5t18.5 85.5q70 78 149 -10zM401 1118v-526q0 -242 84 -361.5t240 -119.5t253 101t97 331v575q0 33 -23.5 46.5t-72.5 19.5v88h324v-88q-93 -12 -93 -66v-598q0 -248 -133 -394t-358 -146q-264 0 -410.5 146 t-146.5 404v588q0 33 -22.5 45.5t-67.5 20.5v88h424v-88q-95 -12 -95 -66z" glyph-name="Ugrave" horiz-adv-x="1374" unicode="Ù"/><glyph d="M655 1526l217 233q80 88 150 10q33 -45 18.5 -86t-61.5 -69l-277 -160q-37 -23 -57 8q-23 31 10 64zM401 1118v-526q0 -242 84 -361.5t240 -119.5t253 101t97 331v575q0 33 -23.5 46.5t-72.5 19.5v88h324v-88q-93 -12 -93 -66v-598q0 -248 -133 -394t-358 -146 q-264 0 -410.5 146t-146.5 404v588q0 33 -22.5 45.5t-67.5 20.5v88h424v-88q-95 -12 -95 -66z" glyph-name="Uacute" horiz-adv-x="1374" unicode="Ú"/><glyph d="M735 1806l338 -364h-141l-197 137l-196 -137h-142zM401 1118v-526q0 -242 84 -361.5t240 -119.5t253 101t97 331v575q0 33 -23.5 46.5t-72.5 19.5v88h324v-88q-93 -12 -93 -66v-598q0 -248 -133 -394t-358 -146q-264 0 -410.5 146t-146.5 404v588q0 33 -22.5 45.5 t-67.5 20.5v88h424v-88q-95 -12 -95 -66z" glyph-name="Ucircumflex" horiz-adv-x="1374" unicode="Û"/><glyph d="M495.5 1481q-57.5 0 -98.5 41t-41 98t41 98t98.5 41t98.5 -41t41 -98t-41 -98t-98.5 -41zM940 1481q-57 0 -98 41t-41 98t41 98t98 41t97 -41t40 -98t-40 -98t-97 -41zM401 1118v-526q0 -242 84 -361.5t240 -119.5t253 101t97 331v575q0 33 -23.5 46.5t-72.5 19.5v88h324 v-88q-93 -12 -93 -66v-598q0 -248 -133 -394t-358 -146q-264 0 -410.5 146t-146.5 404v588q0 33 -22.5 45.5t-67.5 20.5v88h424v-88q-95 -12 -95 -66z" glyph-name="Udieresis" horiz-adv-x="1374" unicode="Ü"/><glyph d="M629 1526l217 233q80 88 149 10q33 -45 18.5 -86t-61.5 -69l-276 -160q-37 -23 -58.5 8t11.5 64zM901 1272h379v-94q-61 -8 -95 -34t-77 -87l-338 -500v-389q0 -35 48 -48q32 -9 102 -20v-100h-517v100q121 19 136.5 35.5t15.5 32.5v336l-334 502q-78 119 -107.5 142.5 t-82.5 29.5v94h465v-94q-47 -8 -70 -25.5t-6 -42.5l297 -448l282 428q25 37 -3.5 58t-94.5 30v94z" glyph-name="Yacute" horiz-adv-x="1310" unicode="Ý"/><glyph d="M539 1049q242 0 394 -111t152 -287t-149.5 -275.5t-394.5 -99.5h-154v-96q0 -41 31 -60.5t94 -33.5v-86h-487v86q63 14 94 33.5t31 60.5v907q0 41 -31 60.5t-94 34.5v90h487v-90q-63 -14 -94 -34t-31 -61v-38h152zM567 383q271 1 271 281t-271 280h-180v-561h180z" glyph-name="Thorn" horiz-adv-x="1126" unicode="Þ"/><glyph d="M1055 379q0 -174 -158 -277.5t-408 -103.5v119q330 0 330 262q0 131 -58.5 213t-260.5 86v102q86 0 148.5 66.5t62.5 161t-46.5 171t-144.5 76.5q-156 0 -155 -229v-813q0 -213 -230 -213h-78v86q59 8 77 20.5t18 47.5v858q0 166 98 260t272 94t278.5 -101t104.5 -251 t-141 -250q123 -37 207 -138.5t84 -246.5z" glyph-name="germandbls" horiz-adv-x="1130" unicode="ß"/><glyph d="M623 1178q33 -33 11.5 -64t-59.5 -8l-276 160q-47 29 -61.5 69.5t18.5 85.5q70 78 150 -10zM854 193q0 -49 26.5 -66.5t86.5 -7.5l-6 -82q-117 -49 -181 -49q-115 0 -135 200q-84 -201 -280 -200q-139 0 -231.5 66.5t-92.5 197.5t125 209t471 125v41q0 113 -36 166 t-121 53t-120.5 -32t-35.5 -124q0 -31 -37 -48t-84 -17t-76 27.5t-29 70.5q0 102 115 160.5t276 58.5q365 0 365 -358v-391zM414 121q143 0 223 201v174q-239 -36 -313 -111q-58 -58 -58 -122t42.5 -103t105.5 -39z" glyph-name="agrave" horiz-adv-x="997" unicode="à"/><glyph d="M416 1178l217 233q80 88 149 10q33 -45 18.5 -86t-61.5 -69l-276 -160q-37 -23 -57 8q-23 31 10 64zM854 193q0 -49 26.5 -66.5t86.5 -7.5l-6 -82q-117 -49 -181 -49q-115 0 -135 200q-84 -201 -280 -200q-139 0 -231.5 66.5t-92.5 197.5t125 209t471 125v41 q0 113 -36 166t-121 53t-120.5 -32t-35.5 -124q0 -31 -37 -48t-84 -17t-76 27.5t-29 70.5q0 102 115 160.5t276 58.5q365 0 365 -358v-391zM414 121q143 0 223 201v174q-239 -36 -313 -111q-58 -58 -58 -122t42.5 -103t105.5 -39z" glyph-name="aacute" horiz-adv-x="997" unicode="á"/><glyph d="M496 1458l338 -364h-142l-196 137l-197 -137h-141zM854 193q0 -49 26.5 -66.5t86.5 -7.5l-6 -82q-117 -49 -181 -49q-115 0 -135 200q-84 -201 -280 -200q-139 0 -231.5 66.5t-92.5 197.5t125 209t471 125v41q0 113 -36 166t-121 53t-120.5 -32t-35.5 -124q0 -31 -37 -48 t-84 -17t-76 27.5t-29 70.5q0 102 115 160.5t276 58.5q365 0 365 -358v-391zM414 121q143 0 223 201v174q-239 -36 -313 -111q-58 -58 -58 -122t42.5 -103t105.5 -39z" glyph-name="acircumflex" horiz-adv-x="997" unicode="â"/><glyph d="M627.5 1108q-93.5 0 -186.5 69.5t-142 69.5t-77.5 -36.5t-24.5 -61.5h-84q-25 92 50 156.5t166 64.5t177 -59.5t139 -59.5t90 32t33 54h104q-10 -104 -80.5 -166.5t-164 -62.5zM854 193q0 -49 26.5 -66.5t86.5 -7.5l-6 -82q-117 -49 -181 -49q-115 0 -135 200 q-84 -201 -280 -200q-139 0 -231.5 66.5t-92.5 197.5t125 209t471 125v41q0 113 -36 166t-121 53t-120.5 -32t-35.5 -124q0 -31 -37 -48t-84 -17t-76 27.5t-29 70.5q0 102 115 160.5t276 58.5q365 0 365 -358v-391zM414 121q143 0 223 201v174q-239 -36 -313 -111 q-58 -58 -58 -122t42.5 -103t105.5 -39z" glyph-name="atilde" horiz-adv-x="997" unicode="ã"/><glyph d="M258 1133q-57 0 -98 40.5t-41 98t41 98.5t98 41t98 -41t41 -98.5t-41 -98t-98 -40.5zM702.5 1133q-57.5 0 -98.5 40.5t-41 98t41 98.5t98.5 41t97.5 -41t40 -98.5t-40 -98t-97.5 -40.5zM854 193q0 -49 26.5 -66.5t86.5 -7.5l-6 -82q-117 -49 -181 -49q-115 0 -135 200 q-84 -201 -280 -200q-139 0 -231.5 66.5t-92.5 197.5t125 209t471 125v41q0 113 -36 166t-121 53t-120.5 -32t-35.5 -124q0 -31 -37 -48t-84 -17t-76 27.5t-29 70.5q0 102 115 160.5t276 58.5q365 0 365 -358v-391zM414 121q143 0 223 201v174q-239 -36 -313 -111 q-58 -58 -58 -122t42.5 -103t105.5 -39z" glyph-name="adieresis" horiz-adv-x="997" unicode="ä"/><glyph d="M490 1110q-85 0 -146 58.5t-61 139.5t61.5 139t146 58t144 -58t59.5 -139t-59.5 -139.5t-144.5 -58.5zM486 1210q30 0 53.5 30t23.5 66.5t-23.5 66.5t-53.5 30t-53 -30t-23 -67.5t23 -66.5t53 -29zM854 193q0 -49 26.5 -66.5t86.5 -7.5l-6 -82q-117 -49 -181 -49 q-115 0 -135 200q-84 -201 -280 -200q-139 0 -231.5 66.5t-92.5 197.5t125 209t471 125v41q0 113 -36 166t-121 53t-120.5 -32t-35.5 -124q0 -31 -37 -48t-84 -17t-76 27.5t-29 70.5q0 102 115 160.5t276 58.5q365 0 365 -358v-391zM414 121q143 0 223 201v174 q-239 -36 -313 -111q-58 -58 -58 -122t42.5 -103t105.5 -39z" glyph-name="aring" horiz-adv-x="997" unicode="å"/><glyph d="M1526 559q0 -59 -30 -94t-85 -35h-526q0 -139 75.5 -231.5t205.5 -92.5t241 134l76 -80q-131 -172 -360.5 -172t-370.5 180q-125 -178 -373 -182q-135 -2 -226.5 64.5t-91.5 191.5q-1 90 45 150q97 129 545 196v39q0 141 -63.5 189t-200.5 11q-29 -8 -37 -26.5t-8 -56 t-6 -62.5t-45 -46.5t-89 -14t-75 47.5t-10 95q16 70 108 119t219 59q256 20 357 -115q127 115 299 115t299 -111.5t127 -271.5zM1101.5 840q-102.5 0 -159.5 -82t-57 -221h422q2 141 -50.5 222t-155 81zM291 241q0 -44 38 -82t97 -38q155 0 225 201v167q-237 -40 -307 -114 q-33 -35 -43 -62.5t-10 -71.5z" glyph-name="ae" horiz-adv-x="1597" unicode="æ"/><glyph d="M355 -225q36 0 71 -31q11 -82 44 -100q17 -10 42 -9q94 -4 111 93q8 49 -18.5 75.5t-61.5 23.5t-60.5 -8t-33.5 -5q-35 -6 -50.5 17.5t9 62t49.5 98.5q-164 18 -280 149t-116 336t135.5 335t312.5 130t281.5 -78t104.5 -176q0 -43 -25.5 -69.5t-77.5 -26.5t-81 23.5 t-29 61.5q0 66 -19.5 109t-137 43t-175 -76.5t-57.5 -246.5t78 -283.5t204 -111.5q20 0 39 3t32 5t29.5 11t24 12t22.5 16.5t19 16.5t20.5 20.5t18.5 19.5q33 37 62 12l49 -45q-31 -61 -104.5 -115.5t-188.5 -72.5l-41 -88q90 12 158.5 -44.5t53.5 -145.5t-93 -132t-174 -39 t-155.5 47t-68 87.5t16 70t60.5 25.5z" glyph-name="ccedilla" horiz-adv-x="968" unicode="ç"/><glyph d="M645 1178q33 -33 11 -64t-58 -8l-276 160q-47 29 -61.5 69.5t18.5 85.5q70 78 149 -10zM934 559q0 -59 -30 -94t-85 -35h-524q0 -139 74.5 -231.5t204.5 -92.5t241 134l78 -80q-131 -172 -343 -172t-350.5 136t-138.5 348t133.5 341t309.5 129t303 -111.5t127 -271.5z M717 537q0 143 -52.5 223t-154.5 80t-158.5 -81t-56.5 -222h422z" glyph-name="egrave" horiz-adv-x="995" unicode="è"/><glyph d="M438 1178l217 233q80 88 150 10q33 -45 18.5 -86t-61.5 -69l-277 -160q-37 -23 -57 8q-23 31 10 64zM934 559q0 -59 -30 -94t-85 -35h-524q0 -139 74.5 -231.5t204.5 -92.5t241 134l78 -80q-131 -172 -343 -172t-350.5 136t-138.5 348t133.5 341t309.5 129t303 -111.5 t127 -271.5zM717 537q0 143 -52.5 223t-154.5 80t-158.5 -81t-56.5 -222h422z" glyph-name="eacute" horiz-adv-x="995" unicode="é"/><glyph d="M518 1458l338 -364h-141l-197 137l-196 -137h-142zM934 559q0 -59 -30 -94t-85 -35h-524q0 -139 74.5 -231.5t204.5 -92.5t241 134l78 -80q-131 -172 -343 -172t-350.5 136t-138.5 348t133.5 341t309.5 129t303 -111.5t127 -271.5zM717 537q0 143 -52.5 223t-154.5 80 t-158.5 -81t-56.5 -222h422z" glyph-name="ecircumflex" horiz-adv-x="995" unicode="ê"/><glyph d="M280.5 1133q-57.5 0 -98.5 40.5t-41 98t41 98.5t98.5 41t98.5 -41t41 -98.5t-41 -98t-98.5 -40.5zM725 1133q-57 0 -98 40.5t-41 98t41 98.5t98 41t97 -41t40 -98.5t-40 -98t-97 -40.5zM934 559q0 -59 -30 -94t-85 -35h-524q0 -139 74.5 -231.5t204.5 -92.5t241 134 l78 -80q-131 -172 -343 -172t-350.5 136t-138.5 348t133.5 341t309.5 129t303 -111.5t127 -271.5zM717 537q0 143 -52.5 223t-154.5 80t-158.5 -81t-56.5 -222h422z" glyph-name="edieresis" horiz-adv-x="995" unicode="ë"/><glyph d="M379 1178q33 -33 11 -64t-58 -8l-277 160q-47 29 -61 69.5t18 85.5q70 78 150 -10zM383 141q0 -57 88 -57v-84h-391v84q90 0 90 57v611q0 35 -13.5 49t-43.5 14h-41v94l245 19q66 6 66 -64v-723z" glyph-name="igrave" horiz-adv-x="552" unicode="ì"/><glyph d="M172 1178l217 233q80 88 150 10q33 -45 18.5 -86t-61.5 -69l-277 -160q-37 -23 -57 8q-23 31 10 64zM383 141q0 -57 88 -57v-84h-391v84q90 0 90 57v611q0 35 -13.5 49t-43.5 14h-41v94l245 19q66 6 66 -64v-723z" glyph-name="iacute" horiz-adv-x="552" unicode="í"/><glyph d="M254 1458l338 -364h-141l-197 137l-197 -137h-141zM383 141q0 -57 88 -57v-84h-391v84q90 0 90 57v611q0 35 -13.5 49t-43.5 14h-41v94l245 19q66 6 66 -64v-723z" glyph-name="icircumflex" horiz-adv-x="552" unicode="î"/><glyph d="M14.5 1133q-57.5 0 -98.5 40.5t-41 98t41 98.5t98.5 41t98.5 -41t41 -98.5t-41 -98t-98.5 -40.5zM458.5 1133q-57.5 0 -98.5 40.5t-41 98t41 98.5t98.5 41t97.5 -41t40 -98.5t-40 -98t-97.5 -40.5zM383 141q0 -57 88 -57v-84h-391v84q90 0 90 57v611q0 35 -13.5 49 t-43.5 14h-41v94l245 19q66 6 66 -64v-723z" glyph-name="idieresis" horiz-adv-x="552" unicode="ï"/><glyph d="M940 913v-266q0 -330 -111.5 -494.5t-349.5 -164.5q-195 0 -306.5 123t-111.5 353t102.5 356t256.5 126q106 0 152 -31.5t58.5 -40t31 -24.5t24.5 -22.5t10 -11.5l31 -30v179q0 43 -4 96l-178 -49l-33 104l180 49q-39 70 -164 80l-63 4v97l20 -3h35q36 0 139 -21.5 t187 -113.5l192 56l33 -105l-166 -47q35 -82 35 -199zM727 639q0 53 -72.5 128t-205.5 75q-180 0 -181 -369q0 -186 49 -275t169 -89t175 80.5t60.5 207.5t5.5 242z" glyph-name="eth" horiz-adv-x="1153" unicode="ð"/><glyph d="M726 1108q-93 0 -186.5 69.5t-142.5 69.5t-77.5 -36.5t-24.5 -61.5h-84q-25 92 50 156.5t166 64.5t177 -59.5t139.5 -59.5t90 32t32.5 54h105q-10 -104 -81 -166.5t-164 -62.5zM1030 205q0 -57 25.5 -81t97.5 -7l-27 -97q-57 -20 -139 -20t-126 42t-44 105v412 q0 123 -31.5 182.5t-119.5 59.5q-131 0 -281 -174v-486q0 -35 23.5 -46t78.5 -11v-84h-411v84q51 0 73.5 11t22.5 46v590q0 96 -121 80v94l275 35q51 6 58 -39t-7 -113l-8 -71q131 227 342 227q156 0 236.5 -79t82.5 -279v-381z" glyph-name="ntilde" horiz-adv-x="1183" unicode="ñ"/><glyph d="M662 1178q34 -33 12 -64t-60 -8l-276 160q-47 29 -61.5 69.5t18.5 85.5q70 78 149 -10zM524.5 942q186.5 0 325.5 -129t139 -343t-138 -348t-322.5 -134t-326 132t-141.5 345t138.5 345t325 132zM760 408q0 195 -72 306t-184 111q-213 0 -213 -303q0 -184 71.5 -295.5 t182.5 -111.5q215 0 215 293z" glyph-name="ograve" horiz-adv-x="1050" unicode="ò"/><glyph d="M455 1178l217 233q80 88 149 10q33 -45 18.5 -86t-61.5 -69l-276 -160q-36 -23 -58 8t11 64zM524.5 942q186.5 0 325.5 -129t139 -343t-138 -348t-322.5 -134t-326 132t-141.5 345t138.5 345t325 132zM760 408q0 195 -72 306t-184 111q-213 0 -213 -303 q0 -184 71.5 -295.5t182.5 -111.5q215 0 215 293z" glyph-name="oacute" horiz-adv-x="1050" unicode="ó"/><glyph d="M537 1458l337 -364h-141l-196 137l-197 -137h-141zM524.5 942q186.5 0 325.5 -129t139 -343t-138 -348t-322.5 -134t-326 132t-141.5 345t138.5 345t325 132zM760 408q0 195 -72 306t-184 111q-213 0 -213 -303q0 -184 71.5 -295.5t182.5 -111.5q215 0 215 293z" glyph-name="ocircumflex" horiz-adv-x="1050" unicode="ô"/><glyph d="M668.5 1108q-93.5 0 -186.5 69.5t-142 69.5t-78 -36.5t-24 -61.5h-84q-25 92 50 156.5t166 64.5t177 -59.5t139 -59.5t90 32t33 54h104q-10 -104 -80.5 -166.5t-164 -62.5zM524.5 942q186.5 0 325.5 -129t139 -343t-138 -348t-322.5 -134t-326 132t-141.5 345t138.5 345 t325 132zM760 408q0 195 -72 306t-184 111q-213 0 -213 -303q0 -184 71.5 -295.5t182.5 -111.5q215 0 215 293z" glyph-name="otilde" horiz-adv-x="1050" unicode="õ"/><glyph d="M297 1133q-57 0 -98 40.5t-41 98t41 98.5t98 41t98 -41t41 -98.5t-41 -98t-98 -40.5zM741.5 1133q-57.5 0 -98.5 40.5t-41 98t41 98.5t98.5 41t97.5 -41t40 -98.5t-40 -98t-97.5 -40.5zM524.5 942q186.5 0 325.5 -129t139 -343t-138 -348t-322.5 -134t-326 132 t-141.5 345t138.5 345t325 132zM760 408q0 195 -72 306t-184 111q-213 0 -213 -303q0 -184 71.5 -295.5t182.5 -111.5q215 0 215 293z" glyph-name="odieresis" horiz-adv-x="1050" unicode="ö"/><glyph d="M526 723q-43 0 -74.5 30.5t-31.5 74.5t31.5 75t74.5 31t74 -31t31 -75t-31 -74.5t-74 -30.5zM143 586h758v-142h-758v142zM526 96q-43 0 -74.5 31t-31.5 75t31.5 74.5t74.5 30.5t74 -30.5t31 -74.5t-31 -75t-74 -31z" glyph-name="divide" horiz-adv-x="1044" unicode="÷"/><glyph d="M989 462q0 -206 -138 -340t-323 -134q-121 0 -227 59l-47 -63l-104 82l47 59q-135 135 -135.5 344t138 341t324.5 132q127 0 238 -63l35 45l102 -82l-33 -45q123 -129 123 -335zM291 522q0 -131 37 -223l336 449q-66 78 -160 77q-213 0 -213 -303zM545 115q215 0 215 293 q0 119 -29 210l-332 -440q64 -63 146 -63z" glyph-name="oslash" horiz-adv-x="1050" unicode="ø"/><glyph d="M373 1266q-47 29 -61.5 69.5t18.5 85.5q70 78 149 -10l217 -233q33 -33 12 -64t-59 -8zM987 195q0 -92 115 -74v-84l-158 -43q-66 -18 -112 29t-58 178v4q-16 -49 -45 -92t-97.5 -84t-162.5 -41q-154 0 -247 88t-93 256v422q0 66 -57 65h-31v80l250 37q53 4 53 -43v-539 q0 -125 47 -178t143 -53t150.5 54t89.5 161v416q0 35 -12 50t-43 15h-31v80l248 37q51 10 51 -43v-698z" glyph-name="ugrave" horiz-adv-x="1142" unicode="ù"/><glyph d="M539 1106q-37 -23 -59 8t12 64l217 233q80 88 149 10q33 -45 18.5 -86t-61.5 -69zM987 195q0 -92 115 -74v-84l-158 -43q-66 -18 -112 29t-58 178v4q-16 -49 -45 -92t-97.5 -84t-162.5 -41q-154 0 -247 88t-93 256v422q0 66 -57 65h-31v80l250 37q53 4 53 -43v-539 q0 -125 47 -178t143 -53t150.5 54t89.5 161v416q0 35 -12 50t-43 15h-31v80l248 37q51 10 51 -43v-698z" glyph-name="uacute" horiz-adv-x="1142" unicode="ú"/><glyph d="M571 1231l-196 -137h-142l338 364l338 -364h-141zM987 195q0 -92 115 -74v-84l-158 -43q-66 -18 -112 29t-58 178v4q-16 -49 -45 -92t-97.5 -84t-162.5 -41q-154 0 -247 88t-93 256v422q0 66 -57 65h-31v80l250 37q53 4 53 -43v-539q0 -125 47 -178t143 -53t150.5 54 t89.5 161v416q0 35 -12 50t-43 15h-31v80l248 37q51 10 51 -43v-698z" glyph-name="ucircumflex" horiz-adv-x="1142" unicode="û"/><glyph d="M331.5 1133q-57.5 0 -98 40.5t-40.5 98t40.5 98.5t98 41t98.5 -41t41 -98.5t-41 -98t-98.5 -40.5zM776.5 1133q-57.5 0 -98.5 40.5t-41 98t41 98.5t98.5 41t97 -41t39.5 -98.5t-39.5 -98t-97 -40.5zM987 195q0 -92 115 -74v-84l-158 -43q-66 -18 -112 29t-58 178v4 q-16 -49 -45 -92t-97.5 -84t-162.5 -41q-154 0 -247 88t-93 256v422q0 66 -57 65h-31v80l250 37q53 4 53 -43v-539q0 -125 47 -178t143 -53t150.5 54t89.5 161v416q0 35 -12 50t-43 15h-31v80l248 37q51 10 51 -43v-698z" glyph-name="udieresis" horiz-adv-x="1142" unicode="ü"/><glyph d="M528 1178l217 233q80 88 150 10q33 -45 18.5 -86t-61.5 -69l-277 -160q-37 -23 -57 8q-23 31 10 64zM1110 924v-70l-29 -12q-20 -10 -36 -16q-41 -14 -50 -40l-420 -958q-59 -137 -123.5 -202.5t-170.5 -65.5q-207 0 -238 127q-16 66 11.5 105.5t87.5 39.5t82 -24 q22 -26 24 -54q6 -79 61 -78.5t119 152.5l76 174l-377 784q-16 39 -68 56l-36 12v70h434v-70l-51 -10q-66 -12 -46 -58l267 -555l225 555q8 20 -6.5 36t-40.5 22l-57 10v70h362z" glyph-name="yacute" horiz-adv-x="1130" unicode="ý"/><glyph d="M660 940q165 0 276 -127t111 -347t-121 -349t-283 -129t-283 155v-391q0 -35 24 -46t79 -11v-72h-416v72q51 0 73.5 11t22.5 46v1442q0 68 -55 68h-57v73l278 31q49 6 49 -39v-340q0 -129 -32 -254l34 45q135 162 300 162zM622 104q93 0 145 85t52 243t-50 259.5 t-142 101.5t-152.5 -31t-114.5 -90v-371q31 -86 100 -141.5t162 -55.5z" glyph-name="thorn" horiz-adv-x="1128" unicode="þ"/><glyph d="M370.5 1133q-57.5 0 -98.5 40.5t-41 98t41 98.5t98.5 41t98.5 -41t41 -98.5t-41 -98t-98.5 -40.5zM815 1133q-57 0 -98 40.5t-41 98t41 98.5t98 41t97 -41t40 -98.5t-40 -98t-97 -40.5zM1110 924v-70l-29 -12q-20 -10 -36 -16q-41 -14 -50 -40l-420 -958 q-59 -137 -123.5 -202.5t-170.5 -65.5q-207 0 -238 127q-16 66 11.5 105.5t87.5 39.5t82 -24q22 -26 24 -54q6 -79 61 -78.5t119 152.5l76 174l-377 784q-16 39 -68 56l-36 12v70h434v-70l-51 -10q-66 -12 -46 -58l267 -555l225 555q8 20 -6.5 36t-40.5 22l-57 10v70h362z " glyph-name="ydieresis" horiz-adv-x="1130" unicode="ÿ"/><glyph d="M426 1544q-41 0 -41 35v72q0 35 41 35h580q41 0 41 -35v-72q0 -35 -41 -35h-580zM1403 0h-479v90q82 14 97 29.5t-3 52.5l-117 270h-467l-106 -260q-14 -35 12.5 -55.5t103.5 -36.5v-90h-403v90q78 18 101.5 35.5t52.5 85.5l452 1077l80 -22q55 -18 74 -64l420 -940 q45 -102 75.5 -129t106.5 -43v-90zM477 549h379l-194 448z" glyph-name="Amacron" horiz-adv-x="1443" unicode="Ā"/><glyph d="M162 1303q0 35 41 34h579q41 0 41 -34v-72q0 -35 -41 -35h-579q-41 0 -41 35v72zM854 193q0 -49 26.5 -66.5t86.5 -7.5l-6 -82q-117 -49 -181 -49q-115 0 -135 200q-84 -201 -280 -200q-139 0 -231.5 66.5t-92.5 197.5t125 209t471 125v41q0 113 -36 166t-121 53 t-120.5 -32t-35.5 -124q0 -31 -37 -48t-84 -17t-76 27.5t-29 70.5q0 102 115 160.5t276 58.5q365 0 365 -358v-391zM414 121q143 0 223 201v174q-239 -36 -313 -111q-58 -58 -58 -122t42.5 -103t105.5 -39z" glyph-name="amacron" horiz-adv-x="997" unicode="ā"/><glyph d="M706.5 1468q-122.5 0 -203.5 76t-87 197q0 23 20 22h60q20 0 22 -22q6 -47 57.5 -79t131 -32t131 32t57.5 79q2 23 23 22h59q20 0 20 -22q-6 -121 -87 -197t-203.5 -76zM1403 0h-479v90q82 14 97 29.5t-3 52.5l-117 270h-467l-106 -260q-14 -35 12.5 -55.5t103.5 -36.5 v-90h-403v90q78 18 101.5 35.5t52.5 85.5l452 1077l80 -22q55 -18 74 -64l420 -940q45 -102 75.5 -129t106.5 -43v-90zM477 549h379l-194 448z" glyph-name="Abreve" horiz-adv-x="1443" unicode="Ă"/><glyph d="M483 1120q-123 0 -203.5 76t-86.5 197q0 23 20 22h59q20 0 23 -22q6 -47 57 -79t131 -32t131.5 32t55.5 67t24 34h60q20 0 20 -22q-6 -121 -87 -197t-204 -76zM854 193q0 -49 26.5 -66.5t86.5 -7.5l-6 -82q-117 -49 -181 -49q-115 0 -135 200q-84 -201 -280 -200 q-139 0 -231.5 66.5t-92.5 197.5t125 209t471 125v41q0 113 -36 166t-121 53t-120.5 -32t-35.5 -124q0 -31 -37 -48t-84 -17t-76 27.5t-29 70.5q0 102 115 160.5t276 58.5q365 0 365 -358v-391zM414 121q143 0 223 201v174q-239 -36 -313 -111q-58 -58 -58 -122t42.5 -103 t105.5 -39z" glyph-name="abreve" horiz-adv-x="997" unicode="ă"/><glyph d="M1051 -231q0 -49 32.5 -82t81.5 -33q109 0 152 113h72q-16 -65 -62 -120q-86 -102 -240 -102q-96 0 -167.5 48.5t-71.5 143.5t81 163.5t181 99.5h-186v90q82 14 97 29.5t-3 52.5l-117 270h-467l-106 -260q-14 -35 12.5 -55.5t103.5 -36.5v-90h-403v90q78 18 101.5 35.5 t52.5 85.5l452 1077l80 -22q55 -18 74 -64l420 -940q45 -102 75.5 -129t106.5 -43v-90h-182q-170 -115 -170 -231zM477 549h379l-194 448z" glyph-name="Aogonek" horiz-adv-x="1443" unicode="Ą"/><glyph d="M709.5 -428q-111.5 0 -177 47t-65.5 143q0 170 248 250q-57 47 -70 176q-84 -201 -280 -200q-139 0 -231.5 66.5t-92.5 197.5t125 209t471 125v41q0 113 -36 166t-121 53t-120.5 -32t-35.5 -124q0 -31 -37 -48t-84 -17t-76 27.5t-29 70.5q0 102 115 160.5t276 58.5 q365 0 365 -358v-391q0 -49 26.5 -66.5t86.5 -7.5l-6 -82l-66 -27v-6q-223 -61 -223 -203q0 -57 28.5 -88.5t79.5 -31.5q86 -1 129 118h74q-20 -78 -91 -152.5t-182.5 -74.5zM266 246q0 -47 42 -86t106 -39q143 0 223 201v174q-239 -36 -313 -111q-34 -35 -46 -63.5 t-12 -75.5z" glyph-name="aogonek" horiz-adv-x="1024" unicode="ą"/><glyph d="M604 1526l217 233q80 88 150 10q33 -45 18.5 -86t-61.5 -69l-277 -160q-37 -23 -57 8q-23 31 10 64zM707 1188q-172 0 -276.5 -126t-104.5 -371t122 -409q120 -165 308 -165q188 1 317 199q32 50 52.5 49.5t48.5 -19t33 -40.5t-25 -75q-147 -252 -492 -251 q-258 0 -443.5 190t-185.5 480t172.5 472.5t412.5 182.5t380 -168q40 0 57 102q10 39 39 33l60 -10l24 -373l-98 -33q-35 -10 -47 23q-4 12 -29 73q-92 236 -325 236z" glyph-name="Cacute" horiz-adv-x="1269" unicode="Ć"/><glyph d="M465 1178l217 233q80 88 149 10q33 -45 19 -86t-62 -69l-276 -160q-37 -23 -57 8q-23 31 10 64zM496 -12q-166 0 -300.5 134t-134.5 347t135.5 343t312.5 130t281.5 -78t104.5 -176q0 -43 -25.5 -69.5t-77.5 -26.5t-81 23.5t-29 61.5q0 66 -19.5 109t-137 43t-175 -76.5 t-57.5 -246.5t78 -283.5t204 -111.5q20 0 39 3t32 5t29.5 11t24 12t22.5 16.5t19 16.5t20.5 20.5t18.5 19.5q33 37 62 12l49 -45q-39 -74 -134 -134t-261 -60z" glyph-name="cacute" horiz-adv-x="968" unicode="ć"/><glyph d="M657.5 1479q-55.5 0 -95.5 40t-40 95t40 94t95.5 39t95.5 -39t40 -94t-40 -95t-95.5 -40zM707 1188q-172 0 -276.5 -126t-104.5 -371t122 -409q120 -165 308 -165q188 1 317 199q32 50 52.5 49.5t48.5 -19t33 -40.5t-25 -75q-147 -252 -492 -251q-258 0 -443.5 190 t-185.5 480t172.5 472.5t412.5 182.5t380 -168q40 0 57 102q10 39 39 33l60 -10l24 -373l-98 -33q-35 -10 -47 23q-4 12 -29 73q-92 236 -325 236z" glyph-name="Cdotaccent" horiz-adv-x="1269" unicode="Ċ"/><glyph d="M518 1130q-55 0 -95 40t-40 95.5t40 94.5t95 39t95 -39t40 -94.5t-40 -95.5t-95 -40zM496 -12q-166 0 -300.5 134t-134.5 347t135.5 343t312.5 130t281.5 -78t104.5 -176q0 -43 -25.5 -69.5t-77.5 -26.5t-81 23.5t-29 61.5q0 66 -19.5 109t-137 43t-175 -76.5 t-57.5 -246.5t78 -283.5t204 -111.5q20 0 39 3t32 5t29.5 11t24 12t22.5 16.5t19 16.5t20.5 20.5t18.5 19.5q33 37 62 12l49 -45q-39 -74 -134 -134t-261 -60z" glyph-name="cdotaccent" horiz-adv-x="968" unicode="ċ"/><glyph d="M653 1415l-338 365h142l196 -138l197 138h141zM707 1188q-172 0 -276.5 -126t-104.5 -371t122 -409q120 -165 308 -165q188 1 317 199q32 50 52.5 49.5t48.5 -19t33 -40.5t-25 -75q-147 -252 -492 -251q-258 0 -443.5 190t-185.5 480t172.5 472.5t412.5 182.5t380 -168 q40 0 57 102q10 39 39 33l60 -10l24 -373l-98 -33q-35 -10 -47 23q-4 12 -29 73q-92 236 -325 236z" glyph-name="Ccaron" horiz-adv-x="1269" unicode="Č"/><glyph d="M514 1067l-338 365h141l197 -138l197 138h141zM496 -12q-166 0 -300.5 134t-134.5 347t135.5 343t312.5 130t281.5 -78t104.5 -176q0 -43 -25.5 -69.5t-77.5 -26.5t-81 23.5t-29 61.5q0 66 -19.5 109t-137 43t-175 -76.5t-57.5 -246.5t78 -283.5t204 -111.5q20 0 39 3 t32 5t29.5 11t24 12t22.5 16.5t19 16.5t20.5 20.5t18.5 19.5q33 37 62 12l49 -45q-39 -74 -134 -134t-261 -60z" glyph-name="ccaron" horiz-adv-x="968" unicode="č"/><glyph d="M631 1415l-338 365h141l197 -138l196 138h142zM524 1272q354 0 545 -150.5t191 -484.5q0 -159 -48 -277t-120 -187q-198 -188 -592 -165q-248 14 -449 -8v102q133 29 133 99v884q0 70 -131 95v92h471zM993 634q0 259 -109.5 395t-320.5 136h-141v-958q0 -78 65 -80 l109 -6q205 -12 301 121t96 392z" glyph-name="Dcaron" horiz-adv-x="1351" unicode="Ď"/><glyph d="M1133 1352q51 0 76.5 -34t2.5 -93l-69 -191q-18 -51 -60 -51q-25 0 -39 14.5t-12 38.5l6 211q5 105 95 105zM950 193q0 -49 27 -66.5t86 -7.5l-6 -84l-166 -39q-49 -12 -96 38t-60 154q-78 -201 -270 -200q-160 0 -282 127t-122 331t118 349t276 145q76 0 135 -24.5 t85.5 -49t59.5 -65.5v332q0 49 -26.5 69.5t-85.5 18.5v84l268 38q34 4 42.5 -7t13.5 -21t5 -21l-2 -102v-999zM504 819q-96 0 -155.5 -101.5t-59.5 -242.5t60.5 -241.5t158.5 -100.5q141 0 227 162v401q-104 123 -231 123z" glyph-name="dcaron" horiz-adv-x="1245" unicode="ď"/><glyph d="M532 1272q354 0 545 -150.5t191 -484.5q0 -158 -47 -276.5t-120 -187.5q-199 -188 -593 -165q-247 14 -449 -8v102q133 29 134 99v379h-162v112h162v393q0 70 -132 95v92h471zM1001 634q0 259 -109.5 395t-320.5 136h-141v-473h154v-112h-154v-373q0 -78 66 -80l108 -6 q205 -12 301 121t96 392z" glyph-name="Dcroat" horiz-adv-x="1339" unicode="Đ"/><glyph d="M950 1114h90q41 0 41 -35v-71q0 -35 -41 -35h-90v-780q0 -49 27 -66.5t86 -7.5l-6 -84l-166 -39q-49 -12 -96 38t-60 154q-78 -201 -270 -200q-160 0 -282 127t-122 331t118 349t276 145q76 0 135 -24.5t85.5 -49t59.5 -65.5v172h-274q-41 0 -41 35v71q0 35 41 35h274v19 q0 49 -26.5 69.5t-85.5 18.5v84l268 38q34 4 42.5 -7t13.5 -21t5 -21l-2 -102v-78zM504 819q-96 0 -155.5 -101.5t-59.5 -242.5t60.5 -241.5t158.5 -100.5q141 0 227 162v401q-104 123 -231 123z" glyph-name="dcroat" horiz-adv-x="1136" unicode="đ"/><glyph d="M270 1651q0 35 41 35h580q41 0 41 -35v-72q0 -35 -41 -35h-580q-41 0 -41 35v72zM1036 0h-964v92q63 14 93 33.5t30 60.5v901q0 41 -30 60.5t-93 34.5v90h940q20 0 27.5 -7.5t7.5 -29.5v-221h-91l-30 67q-18 41 -55 54.5t-109 13.5h-326v-442h344q58 1 80 41q8 14 25 57 h55v-313h-55q-31 74 -50 87t-55 13h-344v-471l428 4q57 0 83 11t54 48l54 68h108q-29 -57 -65 -205q-12 -47 -62 -47z" glyph-name="Emacron" unicode="Ē"/><glyph d="M184 1303q0 35 41 34h580q41 0 41 -34v-72q0 -35 -41 -35h-580q-41 0 -41 35v72zM934 559q0 -59 -30 -94t-85 -35h-524q0 -139 74.5 -231.5t204.5 -92.5t241 134l78 -80q-131 -172 -343 -172t-350.5 136t-138.5 348t133.5 341t309.5 129t303 -111.5t127 -271.5zM717 537 q0 143 -52.5 223t-154.5 80t-158.5 -81t-56.5 -222h422z" glyph-name="emacron" horiz-adv-x="995" unicode="ē"/><glyph d="M577.5 1479q-55.5 0 -95.5 40t-40 95t40 94t95.5 39t95.5 -39t40 -94t-40 -95t-95.5 -40zM1036 0h-964v92q63 14 93 33.5t30 60.5v901q0 41 -30 60.5t-93 34.5v90h940q20 0 27.5 -7.5t7.5 -29.5v-221h-91l-30 67q-18 41 -55 54.5t-109 13.5h-326v-442h344q58 1 80 41 q8 14 25 57h55v-313h-55q-31 74 -50 87t-55 13h-344v-471l428 4q57 0 83 11t54 48l54 68h108q-29 -57 -65 -205q-12 -47 -62 -47z" glyph-name="Edotaccent" unicode="Ė"/><glyph d="M491.5 1130q-55.5 0 -95.5 40t-40 95.5t40 94.5t95.5 39t95.5 -39t40 -94.5t-40 -95.5t-95.5 -40zM934 559q0 -59 -30 -94t-85 -35h-524q0 -139 74.5 -231.5t204.5 -92.5t241 134l78 -80q-131 -172 -343 -172t-350.5 136t-138.5 348t133.5 341t309.5 129t303 -111.5 t127 -271.5zM717 537q0 143 -52.5 223t-154.5 80t-158.5 -81t-56.5 -222h422z" glyph-name="edotaccent" horiz-adv-x="995" unicode="ė"/><glyph d="M901 -346q109 0 152 113h71q-16 -64 -81 -143q-66 -79 -220 -79q-96 0 -167.5 48.5t-71.5 143.5t80.5 163.5t181.5 99.5h-774v92q63 14 93 33.5t30 60.5v901q0 41 -30 60.5t-93 34.5v90h940q20 0 27.5 -7.5t7.5 -29.5v-221h-91l-30 67q-18 41 -55 54.5t-109 13.5h-326 v-442h344q58 1 80 41q8 14 25 57h55v-313h-55q-31 74 -50 87t-55 13h-344v-471l428 4q57 0 83 11t54 48l54 68h108q-29 -57 -65 -205q-12 -47 -62 -47h-80q-170 -115 -170 -231q0 -49 33 -82t82 -33z" glyph-name="Eogonek" unicode="Ę"/><glyph d="M934 559q0 -59 -30 -94t-85 -35h-524q0 -139 74.5 -231.5t204.5 -92.5t241 134l78 -80q-74 -92 -160 -131v-9q-100 -47 -151.5 -95t-51.5 -113.5t30 -97t79 -31.5q88 0 131 118h74q-21 -70 -67 -124q-88 -103 -232 -103q-88 0 -152.5 46t-64.5 140q0 141 172 230 q-186 12 -312.5 146t-126.5 341t133.5 336t309.5 129t303 -111.5t127 -271.5zM717 537q0 143 -52.5 223t-154.5 80t-158.5 -81t-56.5 -222h422z" glyph-name="eogonek" horiz-adv-x="995" unicode="ę"/><glyph d="M573 1415l-337 365h141l196 -138l197 138h141zM1036 0h-964v92q63 14 93 33.5t30 60.5v901q0 41 -30 60.5t-93 34.5v90h940q20 0 27.5 -7.5t7.5 -29.5v-221h-91l-30 67q-18 41 -55 54.5t-109 13.5h-326v-442h344q58 1 80 41q8 14 25 57h55v-313h-55q-31 74 -50 87t-55 13 h-344v-471l428 4q57 0 83 11t54 48l54 68h108q-29 -57 -65 -205q-12 -47 -62 -47z" glyph-name="Ecaron" unicode="Ě"/><glyph d="M487 1067l-337 365h141l196 -138l197 138h141zM934 559q0 -59 -30 -94t-85 -35h-524q0 -139 74.5 -231.5t204.5 -92.5t241 134l78 -80q-131 -172 -343 -172t-350.5 136t-138.5 348t133.5 341t309.5 129t303 -111.5t127 -271.5zM717 537q0 143 -52.5 223t-154.5 80 t-158.5 -81t-56.5 -222h422z" glyph-name="ecaron" horiz-adv-x="995" unicode="ě"/><glyph d="M672 1468q-123 0 -204 76t-87 197q0 23 20 22h60q20 0 22 -22q6 -47 57.5 -79t131.5 -32t131 32t57 79q2 23 23 22h59q20 0 21 -22q-6 -121 -87 -197t-204 -76zM1335 500h-63q-66 0 -66 -66v-424q0 -20 -35.5 -24t-40.5 14l-49 160q-90 -86 -180 -133t-219 -47 q-279 0 -450 183t-171 501q0 276 172.5 458.5t412.5 182.5t380 -168q40 0 57 102q10 39 39 33l60 -10l24 -373l-98 -33q-35 -10 -47 23q-4 12 -29 73q-92 236 -325 236q-172 0 -276.5 -126t-104.5 -385t107.5 -409.5t299.5 -150.5q100 0 177 44t77 105v168q0 66 -65 66h-93 v104q238 -14 506 2v-106z" glyph-name="Gbreve" horiz-adv-x="1396" unicode="Ğ"/><glyph d="M569 1120q-123 0 -203.5 76t-86.5 197q0 23 20 22h59q20 0 23 -22q6 -47 57 -79t131 -32t131.5 32t55.5 67t24 34h60q20 0 20 -22q-6 -121 -87 -197t-204 -76zM528 322q-72 0 -143 22q-100 10 -119.5 -35t47.5 -82q37 -18 88 -26l203 -31q221 -37 314.5 -95.5t93.5 -199 t-138.5 -233.5t-345.5 -93q-477 0 -477 258q0 100 64.5 162t165.5 88q-162 29 -209 140q-41 92 20 155t174 51q-129 94 -129 229.5t95.5 220.5t279.5 85q115 0 201 -39t104 -108q18 147 160 147q37 0 68.5 -27.5t31.5 -69.5t-31.5 -69.5t-70.5 -15.5t-53.5 -13.5 t-14.5 -113.5q2 -127 -99 -217t-280 -90zM698 614.5q0 69.5 -3 93t-18 57.5q-28 64 -144.5 64t-150.5 -54t-34 -116.5t4 -91t20 -64.5q32 -75 143 -75t147 58.5t36 128zM268 -164q0 -184 260 -184q158 0 219.5 41t61.5 164q0 66 -36 94.5t-128 44.5l-270 43q-53 -23 -80 -81 t-27 -122z" glyph-name="gbreve" horiz-adv-x="1128" unicode="ğ"/><glyph d="M657.5 1479q-55.5 0 -95.5 40t-40 95t40 94t95.5 39t95.5 -39t40 -94t-40 -95t-95.5 -40zM1335 500h-63q-66 0 -66 -66v-424q0 -20 -35.5 -24t-40.5 14l-49 160q-90 -86 -180 -133t-219 -47q-279 0 -450 183t-171 501q0 276 172.5 458.5t412.5 182.5t380 -168 q40 0 57 102q10 39 39 33l60 -10l24 -373l-98 -33q-35 -10 -47 23q-4 12 -29 73q-92 236 -325 236q-172 0 -276.5 -126t-104.5 -385t107.5 -409.5t299.5 -150.5q100 0 177 44t77 105v168q0 66 -65 66h-93v104q238 -14 506 2v-106z" glyph-name="Gdotaccent" horiz-adv-x="1396" unicode="Ġ"/><glyph d="M555 1130q-55 0 -95 40t-40 95.5t40 94.5t95 39t95 -39t40 -94.5t-40 -95.5t-95 -40zM528 322q-72 0 -143 22q-100 10 -119.5 -35t47.5 -82q37 -18 88 -26l203 -31q221 -37 314.5 -95.5t93.5 -199t-138.5 -233.5t-345.5 -93q-477 0 -477 258q0 100 64.5 162t165.5 88 q-162 29 -209 140q-41 92 20 155t174 51q-129 94 -129 229.5t95.5 220.5t279.5 85q115 0 201 -39t104 -108q18 147 160 147q37 0 68.5 -27.5t31.5 -69.5t-31.5 -69.5t-70.5 -15.5t-53.5 -13.5t-14.5 -113.5q2 -127 -99 -217t-280 -90zM698 614.5q0 69.5 -3 93t-18 57.5 q-28 64 -144.5 64t-150.5 -54t-34 -116.5t4 -91t20 -64.5q32 -75 143 -75t147 58.5t36 128zM268 -164q0 -184 260 -184q158 0 219.5 41t61.5 164q0 66 -36 94.5t-128 44.5l-270 43q-53 -23 -80 -81t-27 -122z" glyph-name="gdotaccent" horiz-adv-x="1128" unicode="ġ"/><glyph d="M1335 500h-63q-66 0 -66 -66v-424q0 -20 -35.5 -24t-40.5 14l-49 160q-90 -86 -180 -133t-219 -47q-279 0 -450 183t-171 501q0 276 172.5 458.5t412.5 182.5t380 -168q40 0 57 102q10 39 39 33l60 -10l24 -373l-98 -33q-35 -10 -47 23q-4 12 -29 73q-92 236 -325 236 q-172 0 -276.5 -126t-104.5 -385t107.5 -409.5t299.5 -150.5q100 0 177 44t77 105v168q0 66 -65 66h-93v104q238 -14 506 2v-106zM829 -287q19 -90 -9 -186t-111 -166q-23 -16 -39 4l-37 41q107 118 84 184q-85 -20 -133 44q-31 42 -24 94.5t50 86t94.5 27.5t84 -44 t40.5 -85z" glyph-name="Gcommaaccent" horiz-adv-x="1396" unicode="Ģ"/><glyph d="M622.5 1112q-43.5 -33 -95.5 -27t-83.5 43t-45 106.5t14.5 166t111 166.5q23 12 39 -4l37 -43q-105 -114 -86 -183q20 4 62 0t72 -45t24 -94t-49.5 -86zM528 322q-72 0 -143 22q-100 10 -119.5 -35t47.5 -82q37 -18 88 -26l203 -31q221 -37 314.5 -95.5t93.5 -199 t-138.5 -233.5t-345.5 -93q-477 0 -477 258q0 100 64.5 162t165.5 88q-162 29 -209 140q-41 92 20 155t174 51q-129 94 -129 229.5t95.5 220.5t279.5 85q115 0 201 -39t104 -108q18 147 160 147q37 0 68.5 -27.5t31.5 -69.5t-31.5 -69.5t-70.5 -15.5t-53.5 -13.5 t-14.5 -113.5q2 -127 -99 -217t-280 -90zM698 614.5q0 69.5 -3 93t-18 57.5q-28 64 -144.5 64t-150.5 -54t-34 -116.5t4 -91t20 -64.5q32 -75 143 -75t147 58.5t36 128zM268 -164q0 -184 260 -184q158 0 219.5 41t61.5 164q0 66 -36 94.5t-128 44.5l-270 43q-53 -23 -80 -81 t-27 -122z" glyph-name="gcommaaccent" horiz-adv-x="1118" unicode="ģ"/><glyph d="M1225 1087v-907q0 -41 29.5 -60.5t93.5 -33.5v-86h-486v86q63 14 93 33.5t30 60.5v406h-551v-406q0 -41 30 -60.5t93 -33.5v-86h-485v86q63 14 93 33.5t30 60.5v907q0 41 -30 60.5t-93 34.5v90h485v-90q-63 -14 -93 -34t-30 -61v-149h551v149q0 41 -29.5 60.5t-93.5 34.5 v90h486v-90q-63 -14 -93 -34t-30 -61zM434 702h551v97h-551v-97z" glyph-name="Hbar" horiz-adv-x="1454" unicode="Ħ"/><glyph d="M1020 205q0 -57 25.5 -81t97.5 -7l-27 -97q-55 -20 -138 -20t-127 42t-44 105v412q0 123 -32 182.5t-120 59.5q-131 0 -280 -174v-486q0 -35 23.5 -46t78.5 -11v-84h-411v84q51 0 73.5 11t22.5 46v854h-121v123h121v15q0 96 -121 79v93l272 36q49 6 58.5 -39t-2.5 -112 v-72h366v-123h-366v-204l-11 -74q131 227 342 227q156 0 237 -79t83 -279v-381z" glyph-name="hbar" horiz-adv-x="1191" unicode="ħ"/><glyph d="M0 1651q0 35 41 35h580q41 0 41 -35v-72q0 -35 -41 -35h-580q-41 0 -41 35v72zM444 180q0 -41 31 -60.5t94 -33.5v-86h-487v86q63 14 94 33.5t31 60.5v907q0 41 -31 60.5t-94 34.5v90h487v-90q-63 -14 -94 -34t-31 -61v-907z" glyph-name="Imacron" horiz-adv-x="651" unicode="Ī"/><glyph d="M-82 1303q0 35 41 34h580q41 0 41 -34v-72q0 -35 -41 -35h-580q-41 0 -41 35v72zM383 141q0 -57 88 -57v-84h-391v84q90 0 90 57v611q0 35 -13.5 49t-43.5 14h-41v94l245 19q66 6 66 -64v-723z" glyph-name="imacron" horiz-adv-x="552" unicode="ī"/><glyph d="M444 1087v-907q0 -41 31 -60.5t94 -33.5v-86h-186q-170 -115 -170 -231q0 -49 33 -82t82 -33q109 0 151 113h72q-16 -65 -62 -120q-86 -102 -239 -102q-96 0 -168 48.5t-72 143.5t81 163.5t181 99.5h-190v86q63 14 94 33.5t31 60.5v907q0 41 -31 60.5t-94 34.5v90h487 v-90q-63 -14 -94 -34t-31 -61z" glyph-name="Iogonek" horiz-adv-x="651" unicode="Į"/><glyph d="M225.5 1130q-55.5 0 -95.5 40t-40 95.5t40 94.5t95.5 39t95 -39t39.5 -94.5t-39.5 -95.5t-95 -40zM186.5 -455q-85.5 0 -157.5 48.5t-72 143.5t81 163.5t181 99.5h-139v84q90 0 90 57v611q0 35 -13.5 49t-43.5 14h-41v94l245 19q66 6 66 -64v-723q0 -57 88 -57v-84h-141 q-170 -115 -170 -231q0 -49 32.5 -82t81.5 -33q109 0 152 113h72q-16 -65 -62.5 -120t-105 -78.5t-144 -23.5z" glyph-name="iogonek" horiz-adv-x="552" unicode="į"/><glyph d="M307 1479q-55 0 -95 40t-40 95t40 94t95 39t95 -39t40 -94t-40 -95t-95 -40zM444 180q0 -41 31 -60.5t94 -33.5v-86h-487v86q63 14 94 33.5t31 60.5v907q0 41 -31 60.5t-94 34.5v90h487v-90q-63 -14 -94 -34t-31 -61v-907z" glyph-name="Idotaccent" horiz-adv-x="651" unicode="İ"/><glyph d="M383 141q0 -57 88 -57v-84h-391v84q90 0 90 57v611q0 35 -13.5 49t-43.5 14h-41v94l245 19q66 6 66 -64v-723z" glyph-name="dotlessi" horiz-adv-x="552" unicode="ı"/><glyph d="M444 180q0 -41 31 -60.5t94 -33.5v-86h-487v86q63 14 94 33.5t31 60.5v907q0 41 -31 60.5t-94 34.5v90h487v-90q-63 -14 -94 -34t-31 -61v-907zM1352 1272v-90q-63 -14 -93 -34t-30 -61v-1103q0 -176 -81 -252q-82 -76 -220 -76t-212.5 56.5t-74.5 137.5q0 125 121 125 q96 -1 96 -109t68 -108q63 0 63 109v1220q0 41 -29.5 60.5t-93.5 34.5v90h486z" glyph-name="IJ" horiz-adv-x="1433" unicode="Ĳ"/><glyph d="M259 1108q-54 0 -93 39t-39 92t39 92t93 39t93 -39t39 -92t-39 -92t-93 -39zM833.5 1108q-53.5 0 -92.5 39t-39 92t39 92t92.5 39t92.5 -39t39 -92t-39 -92t-92.5 -39zM383 141q0 -57 88 -57v-84h-391v84q90 0 90 57v607q0 35 -13.5 49t-43.5 14h-41v94l245 35 q66 8 66 -76v-723zM956 -152q0 -188 -165 -258q-111 -43 -205 -17t-131 103q-23 41 -13.5 89.5t50.5 68.5q97 40 135 -39q8 -18 19 -60t21.5 -62.5t26.5 -14.5q49 20 49 102v992q0 35 -13 49t-44 14h-41v94l246 19q66 6 65 -64v-1016z" glyph-name="ij" horiz-adv-x="1087" unicode="ĳ"/><glyph d="M1327 0h-530v82q78 23 84 33q4 10 -9 24l-407 424h-62v-383q0 -41 31 -60.5t94 -33.5v-86h-487v86q63 14 94 33.5t31 60.5v907q0 41 -31 60.5t-94 34.5v90h487v-90q-63 -14 -94 -34t-31 -61v-393h35q55 0 99 43l368 389q27 27 4.5 39.5t-67.5 18.5v88h387v-88 q-129 -14 -168 -56l-412 -430l424 -454q57 -61 107.5 -97t75 -45.5t71.5 -19.5v-82zM553 -185.5q43 33.5 94 27.5t84 -44t46 -106.5t-14.5 -164.5t-111.5 -166q-23 -16 -39 4l-37 41q107 118 84 184q-87 -21 -133 44q-30 42 -23 94.5t50 86z" glyph-name="Kcommaaccent" horiz-adv-x="1398" unicode="Ķ"/><glyph d="M1071 82v-82h-403v82q72 0 65 27q-2 6 -8 12l-356 336v-318q0 -57 65 -57v-82h-354v82q74 0 74 57v1014q0 68 -56 68h-57v84l278 41q49 6 50 -39v-779l299 254q33 29 0 45q-18 10 -60 11v86q186 -16 373 0v-86q-96 0 -143 -41l-293 -254l411 -410q33 -33 52.5 -42 t62.5 -9zM475 -185.5q43 33.5 94 27.5t84 -44t46 -106.5t-14.5 -164.5t-111.5 -166q-23 -16 -38 4l-37 41q105 117 84 184q-86 -21 -134 44q-30 42 -23 94.5t50 86z" glyph-name="kcommaaccent" horiz-adv-x="1101" unicode="ķ"/><glyph d="M268 1526l217 233q80 88 150 10q33 -45 18.5 -86t-61.5 -69l-277 -160q-37 -23 -57 8q-23 31 10 64zM1049 0h-977v86q63 14 94 33.5t31 60.5v907q0 41 -31 60.5t-94 34.5v90h487v-90q-63 -14 -94 -34t-31 -61v-886q0 -37 24.5 -62.5t61.5 -23.5l332 16q52 2 76 5 q59 8 88 59l33 65h110l-49 -213q-12 -47 -61 -47z" glyph-name="Lacute" horiz-adv-x="1230" unicode="Ĺ"/><glyph d="M211 1526l217 233q80 88 150 10q33 -45 18.5 -86t-61.5 -69l-277 -160q-37 -23 -57 8q-23 31 10 64zM379 139q0 -57 65 -57v-82h-354v82q74 0 74 57v1014q0 68 -55 68h-58v84l279 41q49 6 49 -39v-1168z" glyph-name="lacute" horiz-adv-x="516" unicode="ĺ"/><glyph d="M1049 0h-977v86q63 14 94 33.5t31 60.5v907q0 41 -31 60.5t-94 34.5v90h487v-90q-63 -14 -94 -34t-31 -61v-886q0 -37 24.5 -62.5t61.5 -23.5l332 16q52 2 76 5q59 8 88 59l33 65h110l-49 -213q-12 -47 -61 -47zM743 -287q19 -90 -9 -186t-111 -166q-23 -16 -39 4l-37 41 q107 118 84 184q-85 -21 -133 44q-30 42 -23.5 94.5t49.5 86t94.5 27.5t84 -44t40.5 -85z" glyph-name="Lcommaaccent" horiz-adv-x="1230" unicode="Ļ"/><glyph d="M379 139q0 -57 65 -57v-82h-354v82q74 0 74 57v1014q0 68 -55 68h-58v84l279 41q49 6 49 -39v-1168zM385 -287q19 -90 -9 -186t-112 -166q-23 -16 -39 4l-37 41q107 118 84 184q-86 -21 -132 44q-30 42 -23.5 94.5t49.5 86t94 27.5t84 -44t41 -85z" glyph-name="lcommaaccent" horiz-adv-x="516" unicode="ļ"/><glyph d="M913 1145q19 -92 -9 -186t-111 -168q-25 -14 -39 4l-37 41q63 70 74 104q23 53 10 80q-18 -4 -60.5 0t-73 46t-23.5 94t50 85t95.5 27t84 -43t39.5 -84zM1049 0h-977v86q63 14 94 33.5t31 60.5v907q0 41 -31 60.5t-94 34.5v90h487v-90q-63 -14 -94 -34t-31 -61v-886 q0 -37 24.5 -62.5t61.5 -23.5l332 16q52 2 76 5q59 8 88 59l33 65h110l-49 -213q-12 -47 -61 -47z" glyph-name="Lcaron" horiz-adv-x="1193" unicode="Ľ"/><glyph d="M483 983q-25 0 -39 14t-12 39l6 211q4 104 94 105q51 0 77 -34t3 -93l-69 -191q-18 -51 -60 -51zM379 139q0 -57 65 -57v-82h-354v82q74 0 74 57v1014q0 68 -55 68h-58v84l279 41q49 6 49 -39v-1168z" glyph-name="lcaron" horiz-adv-x="645" unicode="ľ"/><glyph d="M1049 0h-977v86q63 14 94 33.5t31 60.5v907q0 41 -31 60.5t-94 34.5v90h487v-90q-63 -14 -94 -34t-31 -61v-886q0 -37 24.5 -62.5t61.5 -23.5l332 16q52 2 76 5q59 8 88 59l33 65h110l-49 -213q-12 -47 -61 -47zM708.5 680q-53.5 0 -91 39t-37.5 92t37.5 91t91 38 t91.5 -38t38 -91t-38 -92t-91.5 -39z" glyph-name="Ldot" horiz-adv-x="1193" unicode="Ŀ"/><glyph d="M379 139q0 -57 65 -57v-82h-354v82q74 0 74 57v1014q0 68 -55 68h-58v84l279 41q49 6 49 -39v-1168zM581.5 676q-53.5 0 -91 39t-37.5 92t37.5 91t91 38t91.5 -38t38 -91t-38 -92t-91.5 -39z" glyph-name="ldot" horiz-adv-x="786" unicode="ŀ"/><glyph d="M1135 0h-975v86q63 14 93 33.5t30 60.5v334l-246 -76v158l246 76v415q0 41 -30 60.5t-93 34.5v90h485v-90q-63 -14 -93 -34t-30 -61v-339l338 102v-158l-338 -104v-387q0 -37 23.5 -62.5t62.5 -23.5l330 16q78 4 110.5 14.5t53.5 49.5l35 65h108l-49 -213 q-10 -47 -61 -47z" glyph-name="Lslash" horiz-adv-x="1282" unicode="Ł"/><glyph d="M410 139q0 -57 65 -57v-82h-354v82q74 0 74 57v393l-175 -53v158l175 55v461q0 68 -56 68h-57v84l278 41q49 6 50 -39v-549l174 53v-158l-174 -55v-459z" glyph-name="lslash" horiz-adv-x="604" unicode="ł"/><glyph d="M647 1526l217 233q80 88 150 10q33 -45 18.5 -86t-61.5 -69l-277 -160q-37 -23 -57 8q-23 31 10 64zM1366 1272v-86q-127 -27 -127 -94v-1092q0 -16 -39 -16t-51 16l-821 981v-799q0 -70 127 -94v-88h-383v88q127 25 127 94v910q0 70 -127 94v86h338l682 -862v682 q0 70 -125 94v86h399z" glyph-name="Nacute" horiz-adv-x="1437" unicode="Ń"/><glyph d="M512 1178l217 233q80 88 150 10q33 -45 18.5 -86t-61.5 -69l-277 -160q-37 -23 -57 8q-23 31 10 64zM1030 205q0 -57 25.5 -81t97.5 -7l-27 -97q-57 -20 -139 -20t-126 42t-44 105v412q0 123 -31.5 182.5t-119.5 59.5q-131 0 -281 -174v-486q0 -35 23.5 -46t78.5 -11v-84 h-411v84q51 0 73.5 11t22.5 46v590q0 96 -121 80v94l275 35q51 6 58 -39t-7 -113l-8 -71q131 227 342 227q156 0 236.5 -79t82.5 -279v-381z" glyph-name="nacute" horiz-adv-x="1183" unicode="ń"/><glyph d="M1366 1272v-86q-127 -27 -127 -94v-1092q0 -16 -39 -16t-51 16l-821 981v-799q0 -70 127 -94v-88h-383v88q127 25 127 94v910q0 70 -127 94v86h338l682 -862v682q0 70 -125 94v86h399zM883 -287q19 -90 -9 -186t-112 -166q-23 -16 -39 4l-37 41q107 118 84 184 q-85 -20 -133 44q-31 42 -24 94.5t50.5 86t94.5 27.5t83.5 -44t41.5 -85z" glyph-name="Ncommaaccent" horiz-adv-x="1437" unicode="Ņ"/><glyph d="M1030 205q0 -57 25.5 -81t97.5 -7l-27 -97q-57 -20 -139 -20t-126 42t-44 105v412q0 123 -31.5 182.5t-119.5 59.5q-131 0 -281 -174v-486q0 -35 23.5 -46t78.5 -11v-84h-411v84q51 0 73.5 11t22.5 46v590q0 96 -121 80v94l275 35q51 6 58 -39t-7 -113l-8 -71 q131 227 342 227q156 0 236.5 -79t82.5 -279v-381zM625 -158q99 -12 127 -150q14 -68 -14 -164.5t-111 -166.5q-23 -16 -39 4l-37 41q107 118 84 184q-85 -20 -133 44q-31 42 -24 94.5t50 86t97 27.5z" glyph-name="ncommaaccent" horiz-adv-x="1183" unicode="ņ"/><glyph d="M696 1415l-338 365h142l196 -138l197 138h141zM1366 1272v-86q-127 -27 -127 -94v-1092q0 -16 -39 -16t-51 16l-821 981v-799q0 -70 127 -94v-88h-383v88q127 25 127 94v910q0 70 -127 94v86h338l682 -862v682q0 70 -125 94v86h399z" glyph-name="Ncaron" horiz-adv-x="1437" unicode="Ň"/><glyph d="M561 1067l-338 365h142l196 -138l197 138h141zM1030 205q0 -57 25.5 -81t97.5 -7l-27 -97q-57 -20 -139 -20t-126 42t-44 105v412q0 123 -31.5 182.5t-119.5 59.5q-131 0 -281 -174v-486q0 -35 23.5 -46t78.5 -11v-84h-411v84q51 0 73.5 11t22.5 46v590q0 96 -121 80v94 l275 35q51 6 58 -39t-7 -113l-8 -71q131 227 342 227q156 0 236.5 -79t82.5 -279v-381z" glyph-name="ncaron" horiz-adv-x="1183" unicode="ň"/><glyph d="M967 1272h399v-86q-127 -27 -127 -94v-1092q0 -10 -20 -14v-21q0 -211 -195 -266q-150 -41 -250 -17.5t-125 103.5q-28 108 51 143q35 14 69 4t46 -34q2 -4 13.5 -33t22.5 -50.5t33.5 -38t49.5 -12.5q47 10 47 103v334l-653 780v-799q0 -70 127 -94v-88h-383v88 q127 25 127 94v910q0 70 -127 94v86h338l682 -862v682q0 70 -125 94v86z" glyph-name="Eng" horiz-adv-x="1406" unicode="Ŋ"/><glyph d="M715 944q156 0 238.5 -79t82.5 -279v-738q0 -186 -172 -258q-111 -43 -205 -17t-131 103q-23 41 -13.5 89.5t50.5 68.5q49 20 84 8t51 -47q8 -16 20.5 -59t23 -63.5t26.5 -14.5q49 20 49 102v799q0 123 -30.5 182.5t-118.5 59.5q-131 0 -281 -174v-486q0 -35 23.5 -46 t79.5 -11v-84h-416v84q51 0 73.5 11t22.5 46v590q0 96 -121 80v94l279 35q51 6 58 -39t-7 -113l-8 -71q131 227 342 227z" glyph-name="eng" horiz-adv-x="1159" unicode="ŋ"/><glyph d="M358 1651q0 35 41 35h580q41 0 41 -35v-72q0 -35 -41 -35h-580q-41 0 -41 35v72zM1309 649q0 -283 -179.5 -476t-446.5 -193t-444.5 186t-177.5 479t178.5 476.5t444.5 183.5t445.5 -186.5t179.5 -469.5zM731 121q147 0 231.5 100.5t84.5 370.5t-112 432t-290 162 q-322 0 -321 -471q0 -264 115.5 -429t291.5 -165z" glyph-name="Omacron" horiz-adv-x="1370" unicode="Ō"/><glyph d="M201 1303q0 35 41 34h579q41 0 41 -34v-72q0 -35 -41 -35h-579q-41 0 -41 35v72zM524.5 942q186.5 0 325.5 -129t139 -343t-138 -348t-322.5 -134t-326 132t-141.5 345t138.5 345t325 132zM760 408q0 195 -72 306t-184 111q-213 0 -213 -303q0 -184 71.5 -295.5 t182.5 -111.5q215 0 215 293z" glyph-name="omacron" horiz-adv-x="1050" unicode="ō"/><glyph d="M350 1526l217 233q80 88 150 10q33 -45 18.5 -86t-61.5 -69l-277 -160q-37 -23 -57 8q-23 31 10 64zM774 1526l217 233q80 88 150 10q33 -45 18.5 -86t-61.5 -69l-277 -160q-37 -23 -57 8q-23 31 10 64zM1309 649q0 -283 -179.5 -476t-446.5 -193t-444.5 186t-177.5 479 t178.5 476.5t444.5 183.5t445.5 -186.5t179.5 -469.5zM731 121q147 0 231.5 100.5t84.5 370.5t-112 432t-290 162q-322 0 -321 -471q0 -264 115.5 -429t291.5 -165z" glyph-name="Ohungarumlaut" horiz-adv-x="1370" unicode="Ő"/><glyph d="M195 1178l217 233q80 88 149 10q33 -45 18.5 -86t-61.5 -69l-276 -160q-36 -23 -58 8t11 64zM618 1178l218 233q80 88 149 10q33 -45 18.5 -86t-61.5 -69l-276 -160q-37 -23 -59 8t11 64zM524.5 942q186.5 0 325.5 -129t139 -343t-138 -348t-322.5 -134t-326 132 t-141.5 345t138.5 345t325 132zM760 408q0 195 -72 306t-184 111q-213 0 -213 -303q0 -184 71.5 -295.5t182.5 -111.5q215 0 215 293z" glyph-name="ohungarumlaut" horiz-adv-x="1050" unicode="ő"/><glyph d="M1849 0h-958q-92 -31 -193 -31q-272 0 -454.5 187.5t-182.5 483.5t183.5 480.5t453.5 184.5q100 0 203 -33h926q20 0 27.5 -7.5t7.5 -29.5v-221h-93l-30 67q-18 41 -55 54.5t-109 13.5h-326v-442h346q58 1 80 41q8 14 25 57h53v-313h-53q-31 74 -50 87t-55 13h-346v-471 l430 4q57 0 83 11t55 48l53 68h106q-29 -57 -65 -205q-12 -47 -62 -47zM326 708q0 -259 115.5 -428t267.5 -169q221 0 299 151v658q-49 125 -132 195.5t-178 70.5q-180 0 -276 -109.5t-96 -368.5z" glyph-name="OE" horiz-adv-x="2048" unicode="Œ"/><glyph d="M1630 561q0 -59 -29.5 -94t-84.5 -35h-527q0 -139 76 -231t206 -92t240 133l78 -80q-131 -172 -354 -172t-361 160q-137 -162 -333.5 -162t-338 132t-141.5 345t138.5 345t335 132t335.5 -149q129 152 336 151q170 0 297 -111.5t127 -271.5zM1206.5 842 q-102.5 0 -160 -82t-57.5 -221h422q2 141 -50 222t-154.5 81zM760 408v22q-2 10 -2 33q-10 170 -80 266t-174 96q-213 0 -213 -303q0 -184 71.5 -295.5t182.5 -111.5q215 0 215 293z" glyph-name="oe" horiz-adv-x="1695" unicode="œ"/><glyph d="M598 1526l217 233q80 88 150 10q33 -45 18.5 -86t-61.5 -69l-277 -160q-37 -23 -57 8q-23 31 10 64zM1339 94v-94h-245q-184 72 -271 330q-41 127 -98 176t-160 49h-133v-375q0 -41 30 -60.5t93 -33.5v-86h-483v86q63 14 93 33.5t30 60.5v901q0 78 -123 105v86h618 q217 0 348 -97.5t131 -250.5q0 -123 -94 -213t-274 -113q233 -33 303 -254q37 -111 79 -177.5t109 -72.5h47zM688 670q123 0 175 71.5t52 182t-52 181.5t-158 71h-273v-506h256z" glyph-name="Racute" horiz-adv-x="1380" unicode="Ŕ"/><glyph d="M399 1178l217 233q80 88 150 10q33 -45 18.5 -86t-61.5 -69l-277 -160q-37 -23 -57 8q-23 31 10 64zM358 612q78 322 298 322q104 0 147 -36t0 -91l-51 -66q-38 -51 -83.5 -12t-99 39t-95.5 -48q-70 -80 -89 -206v-375q0 -35 25.5 -46t85.5 -11v-82h-426v82q55 0 79.5 12 t24.5 45v592q0 51 -28.5 68.5t-94.5 9.5v94l275 35q49 6 57 -39t-6 -115z" glyph-name="racute" horiz-adv-x="856" unicode="ŕ"/><glyph d="M1339 94v-94h-245q-184 72 -271 330q-41 127 -98 176t-160 49h-133v-375q0 -41 30 -60.5t93 -33.5v-86h-483v86q63 14 93 33.5t30 60.5v901q0 78 -123 105v86h618q217 0 348 -97.5t131 -250.5q0 -123 -94 -213t-274 -113q233 -33 303 -254q37 -111 79 -177.5t109 -72.5 h47zM688 670q123 0 175 71.5t52 182t-52 181.5t-158 71h-273v-506h256zM821 -287q19 -90 -9 -186t-112 -166q-23 -16 -38 4l-37 41q105 117 84 184q-85 -21 -133 44q-30 42 -23.5 94.5t49.5 86t94 27.5t84 -44t41 -85z" glyph-name="Rcommaaccent" horiz-adv-x="1380" unicode="Ŗ"/><glyph d="M358 612q78 322 298 322q104 0 147 -36t0 -91l-51 -66q-38 -51 -83.5 -12t-99 39t-95.5 -48q-70 -80 -89 -206v-375q0 -35 25.5 -46t85.5 -11v-82h-426v82q55 0 79.5 12t24.5 45v592q0 51 -28.5 68.5t-94.5 9.5v94l275 35q49 6 57 -39t-6 -115zM283 -158q99 -12 127 -150 q14 -68 -14 -164.5t-111 -166.5q-23 -16 -39 4l-37 41q107 118 84 184q-85 -20 -133 44q-31 42 -24 94.5t50 86t97 27.5z" glyph-name="rcommaaccent" horiz-adv-x="856" unicode="ŗ"/><glyph d="M647 1415l-338 365h142l196 -138l197 138h141zM1339 94v-94h-245q-184 72 -271 330q-41 127 -98 176t-160 49h-133v-375q0 -41 30 -60.5t93 -33.5v-86h-483v86q63 14 93 33.5t30 60.5v901q0 78 -123 105v86h618q217 0 348 -97.5t131 -250.5q0 -123 -94 -213t-274 -113 q233 -33 303 -254q37 -111 79 -177.5t109 -72.5h47zM688 670q123 0 175 71.5t52 182t-52 181.5t-158 71h-273v-506h256z" glyph-name="Rcaron" horiz-adv-x="1380" unicode="Ř"/><glyph d="M449 1067l-338 365h141l197 -138l196 138h141zM358 612q78 322 298 322q104 0 147 -36t0 -91l-51 -66q-38 -51 -83.5 -12t-99 39t-95.5 -48q-70 -80 -89 -206v-375q0 -35 25.5 -46t85.5 -11v-82h-426v82q55 0 79.5 12t24.5 45v592q0 51 -28.5 68.5t-94.5 9.5v94l275 35 q49 6 57 -39t-6 -115z" glyph-name="rcaron" horiz-adv-x="856" unicode="ř"/><glyph d="M532 1526l218 233q80 88 149 10q33 -45 18.5 -86t-61.5 -69l-276 -160q-37 -23 -59 8t11 64zM540.5 1196q-116.5 0 -179 -67.5t-50.5 -161.5q7 -66 57 -107t110.5 -61.5t92 -30.5t75.5 -22.5t62.5 -18.5t64.5 -22.5t71.5 -32t65.5 -38t64 -48.5q24 -24 50 -56 q50 -58 60 -156q10 -99 -32 -180q-42 -80 -117 -128q-152 -96 -341 -97q-106 0 -233.5 46t-192.5 24l-107 321l91 33q45 14 67 -26q43 -80 45 -84q96 -195 326 -195q119 0 193.5 51t63.5 159.5t-129.5 159t-197.5 68.5q-212 65 -306.5 152.5t-115.5 220.5q-20 166 106 286 t326 120t362 -100q62 -38 107 -46l27 -260l-96 -16q-41 -6 -49 24l-23 82q-20 84 -110.5 145.5t-207 61.5z" glyph-name="Sacute" horiz-adv-x="1146" unicode="Ś"/><glyph d="M414 1178l217 233q80 88 149 10q33 -45 18.5 -86t-61.5 -69l-276 -160q-37 -23 -58.5 8t11.5 64zM872 268q0 -131 -118.5 -205.5t-276 -74.5t-273.5 55t-130 96q-57 176 37 191q117 20 125 -56q27 -186 223 -186q100 0 153.5 38t53.5 91t-38 85t-78 46t-112 36 q-132 39 -226 95q-122 74 -122 198t94.5 194.5t251 70.5t268 -56.5t115.5 -94.5q8 -98 -10 -133t-59 -40q-115 -8 -105 64q12 68 -39 119t-140 51q-175 0 -175 -115q0 -70 60.5 -103.5t195.5 -73.5t198 -81q127 -80 127 -211z" glyph-name="sacute" horiz-adv-x="933" unicode="ś"/><glyph d="M423 -225q36 0 71 -31q12 -82 44 -100q18 -10 42 -9q94 -4 110 93q8 49 -19.5 75.5t-61 23.5t-59.5 -8t-34 -5q-35 -6 -50 17.5t4.5 53t45.5 88.5q-57 8 -171 47t-177 19l-107 321l91 33q45 14 67 -26q43 -80 45 -84q96 -195 326 -195q119 0 193.5 51t63.5 160t-129 159 t-198 68q-212 65 -306 152q-95 88 -116 221q-20 166 106 286t326 120t362 -100q62 -38 107 -46l27 -260l-96 -16q-41 -6 -49 24l-23 82q-20 84 -110.5 145.5t-207 61.5t-179 -67.5t-50.5 -161.5q7 -66 57 -107t110.5 -61.5t92 -30.5t75.5 -22.5t62.5 -18.5t64.5 -22.5 t71.5 -32t65.5 -38t64 -48.5q24 -24 50 -56q50 -58 59.5 -152.5t-24 -170.5t-99.5 -123q-131 -94 -305 -113l-30 -65q90 12 158.5 -44.5t53.5 -145.5t-93 -132t-174.5 -39t-156 47t-67.5 87.5t16.5 70t60.5 25.5z" glyph-name="Scedilla" horiz-adv-x="1146" unicode="Ş"/><glyph d="M872 262q0 -109 -91 -179.5t-236 -88.5l-39 -88q90 12 158.5 -44.5t53.5 -145.5t-93 -132t-174 -39t-155.5 47t-68 87.5t16 70t60.5 25.5t71 -31q11 -82 43 -100q18 -10 43 -9q94 -4 110 93q8 49 -19.5 75.5t-61 23.5t-59 -8t-34.5 -5q-35 -6 -50 17.5t9.5 61t49.5 97.5 q-125 10 -223.5 61t-108.5 88q-57 176 37 191q117 20 125 -56q27 -186 223 -186q100 0 153.5 38t53.5 91t-38 85t-78 46t-112 36q-132 39 -226 95q-122 74 -122 198t94.5 194.5t251 70.5t268 -56.5t115.5 -94.5q8 -98 -10 -133t-59 -40q-115 -8 -105 64q12 68 -39 119 t-140 51q-175 0 -175 -115q0 -70 60.5 -103.5t195.5 -73.5t198 -81q127 -80 127 -217z" glyph-name="scedilla" horiz-adv-x="933" unicode="ş"/><glyph d="M582 1415l-338 365h141l197 -138l196 138h142zM540.5 1196q-116.5 0 -179 -67.5t-50.5 -161.5q7 -66 57 -107t110.5 -61.5t92 -30.5t75.5 -22.5t62.5 -18.5t64.5 -22.5t71.5 -32t65.5 -38t64 -48.5q24 -24 50 -56q50 -58 60 -156q10 -99 -32 -180q-42 -80 -117 -128 q-152 -96 -341 -97q-106 0 -233.5 46t-192.5 24l-107 321l91 33q45 14 67 -26q43 -80 45 -84q96 -195 326 -195q119 0 193.5 51t63.5 159.5t-129.5 159t-197.5 68.5q-212 65 -306.5 152.5t-115.5 220.5q-20 166 106 286t326 120t362 -100q62 -38 107 -46l27 -260l-96 -16 q-41 -6 -49 24l-23 82q-20 84 -110.5 145.5t-207 61.5z" glyph-name="Scaron" horiz-adv-x="1146" unicode="Š"/><glyph d="M463 1067l-338 365h141l197 -138l196 138h142zM872 268q0 -131 -118.5 -205.5t-276 -74.5t-273.5 55t-130 96q-57 176 37 191q117 20 125 -56q27 -186 223 -186q100 0 153.5 38t53.5 91t-38 85t-78 46t-112 36q-132 39 -226 95q-122 74 -122 198t94.5 194.5t251 70.5 t268 -56.5t115.5 -94.5q8 -98 -10 -133t-59 -40q-115 -8 -105 64q12 68 -39 119t-140 51q-175 0 -175 -115q0 -70 60.5 -103.5t195.5 -73.5t198 -81q127 -80 127 -211z" glyph-name="scaron" horiz-adv-x="933" unicode="š"/><glyph d="M965 1155h-240v-975q0 -41 29.5 -60.5t95.5 -33.5v-86h-164l-43 -94q90 12 158.5 -44.5t53.5 -145.5t-93 -132t-174 -39t-155.5 47t-68 87.5t16.5 70t60.5 25.5t70.5 -31q11 -82 44 -100q17 -10 42 -9q94 -4 111 93q8 49 -18.5 75.5t-61.5 23.5t-60.5 -8t-33.5 -5 q-35 -6 -50.5 17.5t6 56t56.5 112.5h-187v86q63 14 93 33.5t30 60.5v975h-239q-63 0 -97 -63l-32 -68h-74l16 199q4 49 47 49h1000q43 0 47 -49l16 -199h-73l-33 68q-33 63 -96 63z" glyph-name="Tcommaaccent" horiz-adv-x="1208" unicode="Ţ"/><glyph d="M204 -225q36 0 70 -31q4 -29 8 -38q4 -8 11 -30q15 -40 67 -41q94 -4 111 93q8 49 -18.5 75.5t-61 23.5t-60.5 -8t-34 -5q-35 -6 -50.5 17.5t7.5 58t55 108.5q-170 45 -170 289v518h-98v104q85 0 143 75q39 51 90 149q16 31 50 27.5t34 -34.5v-202h226v-70q0 -49 -45 -49 h-181v-553q0 -156 88 -156q49 0 111 41q29 20 56.5 -17.5t-1.5 -58.5q-74 -59 -168 -71l-38 -84q90 12 158.5 -44.5t53 -145.5t-93.5 -132t-174 -39t-155.5 47t-67.5 87.5t16.5 70t60.5 25.5z" glyph-name="tcommaaccent" horiz-adv-x="647" unicode="ţ"/><glyph d="M938 1780l-338 -365l-338 365h141l197 -138l197 138h141zM965 1155h-240v-975q0 -41 29.5 -60.5t95.5 -33.5v-86h-490v86q63 14 93 33.5t30 60.5v975h-239q-63 0 -97 -63l-32 -68h-74l16 199q4 49 47 49h1000q43 0 47 -49l16 -199h-73l-33 68q-33 63 -96 63z" glyph-name="Tcaron" horiz-adv-x="1208" unicode="Ť"/><glyph d="M492 983q-52 0 -52 53l6 211q4 104 95 105q51 0 77.5 -34t4.5 -93l-72 -191q-18 -51 -59 -51zM139 287v518h-98v104q85 0 143 75q39 51 90 149q16 31 50 27.5t34 -34.5v-202h226v-70q0 -49 -45 -49h-181v-553q0 -156 88 -156q50 0 111 41q29 20 56.5 -17.5t-1.5 -58.5 q-94 -74 -219 -73q-254 0 -254 299z" glyph-name="tcaron" horiz-adv-x="681" unicode="ť"/><glyph d="M965 1155h-240v-244h199q41 0 41 -34v-72q0 -35 -41 -35h-199v-590q0 -41 29.5 -60.5t95.5 -33.5v-86h-490v86q63 14 93 33.5t30 60.5v590h-180q-41 0 -41 35v72q0 35 41 34h180v244h-239q-63 0 -97 -63l-32 -68h-74l16 199q4 49 47 49h1000q43 0 47 -49l16 -199h-73 l-33 68q-33 63 -96 63z" glyph-name="Tbar" horiz-adv-x="1228" unicode="Ŧ"/><glyph d="M657 610q41 0 41 -35v-71q0 -35 -41 -35h-297v-217q0 -156 89 -156q49 0 110 41q29 20 56.5 -16.5t-1.5 -59.5q-94 -74 -219 -73q-254 0 -254 299v182h-63q-41 0 -41 35v71q0 35 41 35h63v195h-98v104q85 0 143 75q39 51 90 149q14 31 49 27.5t35 -34.5v-202h226v-70 q0 -49 -45 -49h-181v-195h297z" glyph-name="tbar" horiz-adv-x="759" unicode="ŧ"/><glyph d="M401 1651q0 35 41 35h580q41 0 41 -35v-72q0 -35 -41 -35h-580q-41 0 -41 35v72zM401 1118v-526q0 -242 84 -361.5t240 -119.5t253 101t97 331v575q0 33 -23.5 46.5t-72.5 19.5v88h324v-88q-93 -12 -93 -66v-598q0 -248 -133 -394t-358 -146q-264 0 -410.5 146 t-146.5 404v588q0 33 -22.5 45.5t-67.5 20.5v88h424v-88q-95 -12 -95 -66z" glyph-name="Umacron" horiz-adv-x="1374" unicode="Ū"/><glyph d="M279 1196q-41 0 -41 35v72q0 35 41 34h579q41 0 41 -34v-72q0 -35 -41 -35h-579zM987 195q0 -92 115 -74v-84l-158 -43q-66 -18 -112 29t-58 178v4q-16 -49 -45 -92t-97.5 -84t-162.5 -41q-154 0 -247 88t-93 256v422q0 66 -57 65h-31v80l250 37q53 4 53 -43v-539 q0 -125 47 -178t143 -53t150.5 54t89.5 161v416q0 35 -12 50t-43 15h-31v80l248 37q51 10 51 -43v-698z" glyph-name="umacron" horiz-adv-x="1142" unicode="ū"/><glyph d="M559 1120q-123 0 -204 76t-87 197q0 23 21 22h59q20 0 23 -22q6 -47 57 -79t131 -32t131 32q52 32 56 67t24 34h59q20 0 21 -22q-6 -121 -87 -197t-204 -76zM987 195q0 -92 115 -74v-84l-158 -43q-66 -18 -112 29t-58 178v4q-16 -49 -45 -92t-97.5 -84t-162.5 -41 q-154 0 -247 88t-93 256v422q0 66 -57 65h-31v80l250 37q53 4 53 -43v-539q0 -125 47 -178t143 -53t150.5 54t89.5 161v416q0 35 -12 50t-43 15h-31v80l248 37q51 10 51 -43v-698z" glyph-name="ubreve" horiz-adv-x="1142" unicode="ŭ"/><glyph d="M730 1458q-85 0 -146.5 58.5t-61.5 139.5t61.5 139t146.5 58t144.5 -58t59.5 -139t-59.5 -139.5t-144.5 -58.5zM726 1559q30 0 53.5 29.5t23.5 66.5t-23.5 66.5t-53.5 29.5t-53.5 -29.5t-23.5 -67.5t23.5 -66.5t53.5 -28.5zM401 1118v-526q0 -242 84 -361.5t240 -119.5 t253 101t97 331v575q0 33 -23.5 46.5t-72.5 19.5v88h324v-88q-93 -12 -93 -66v-598q0 -248 -133 -394t-358 -146q-264 0 -410.5 146t-146.5 404v588q0 33 -22.5 45.5t-67.5 20.5v88h424v-88q-95 -12 -95 -66z" glyph-name="Uring" horiz-adv-x="1374" unicode="Ů"/><glyph d="M566 1110q-85 0 -146.5 58.5t-61.5 139.5t61.5 139t146.5 58t144.5 -58t59.5 -139t-59.5 -139.5t-144.5 -58.5zM562 1403q-30 0 -53.5 -30t-23.5 -67.5t23.5 -66.5t53.5 -29t53.5 30t23.5 66.5t-23.5 66.5t-53.5 30zM987 195q0 -92 115 -74v-84l-158 -43q-66 -18 -112 29 t-58 178v4q-16 -49 -45 -92t-97.5 -84t-162.5 -41q-154 0 -247 88t-93 256v422q0 66 -57 65h-31v80l250 37q53 4 53 -43v-539q0 -125 47 -178t143 -53t150.5 54t89.5 161v416q0 35 -12 50t-43 15h-31v80l248 37q51 10 51 -43v-698z" glyph-name="uring" horiz-adv-x="1142" unicode="ů"/><glyph d="M393 1526l217 233q80 88 150 10q33 -45 18.5 -86t-61.5 -69l-277 -160q-37 -23 -57 8q-23 31 10 64zM817 1526l217 233q80 88 150 10q33 -45 18.5 -86t-61.5 -69l-277 -160q-37 -23 -57 8q-23 31 10 64zM401 1118v-526q0 -242 84 -361.5t240 -119.5t253 101t97 331v575 q0 33 -23.5 46.5t-72.5 19.5v88h324v-88q-93 -12 -93 -66v-598q0 -248 -133 -394t-358 -146q-264 0 -410.5 146t-146.5 404v588q0 33 -22.5 45.5t-67.5 20.5v88h424v-88q-95 -12 -95 -66z" glyph-name="Uhungarumlaut" horiz-adv-x="1374" unicode="Ű"/><glyph d="M276 1106q-37 -23 -57 8q-23 31 10 64l217 233q80 88 150 10q33 -45 18.5 -86t-61.5 -69zM700 1106q-37 -23 -57 8q-23 31 10 64l217 233q80 88 150 10q33 -45 18.5 -86t-61.5 -69zM987 195q0 -92 115 -74v-84l-158 -43q-66 -18 -112 29t-58 178v4q-16 -49 -45 -92 t-97.5 -84t-162.5 -41q-154 0 -247 88t-93 256v422q0 66 -57 65h-31v80l250 37q53 4 53 -43v-539q0 -125 47 -178t143 -53t150.5 54t89.5 161v416q0 35 -12 50t-43 15h-31v80l248 37q51 10 51 -43v-698z" glyph-name="uhungarumlaut" horiz-adv-x="1142" unicode="ű"/><glyph d="M401 1118v-526q0 -242 84 -361.5t240 -119.5t253 101t97 331v575q0 33 -23.5 46.5t-72.5 19.5v88h324v-88q-93 -12 -93 -66v-598q0 -201 -89 -337t-249 -183q-172 -115 -172 -231q0 -49 33 -82t82 -33q109 0 152 113h71q-16 -64 -81.5 -143t-219.5 -79q-96 0 -167.5 48.5 t-71.5 136.5t60 150.5t147 99.5q-258 4 -400.5 150t-142.5 400v588q0 33 -22.5 45.5t-67.5 20.5v88h424v-88q-95 -12 -95 -66z" glyph-name="Uogonek" horiz-adv-x="1374" unicode="Ų"/><glyph d="M778 -188.5q0 -67.5 30 -99t79 -31.5q86 0 131 118h72q-15 -63 -79 -145t-216 -82q-92 0 -157 47t-65 143q0 178 265 256q-51 51 -64 183v4q-16 -49 -45 -92t-97.5 -84t-162.5 -41q-154 0 -247 88t-93 256v422q0 66 -57 65h-31v80l250 37q53 4 53 -43v-539 q0 -125 47 -178t143 -53t150.5 54t89.5 161v416q0 35 -12 50t-43 15h-31v80l248 37q51 10 51 -43v-698q0 -92 115 -74v-84l-86 -25l2 -2q-121 -39 -180.5 -85t-59.5 -113.5z" glyph-name="uogonek" horiz-adv-x="1163" unicode="ų"/><glyph d="M1010 1579l-197 -137h-141l338 364l338 -364h-142zM1573 1272h375v-92q-63 -8 -90 -31t-50 -82l-378 -1077h-60q-45 0 -65 49l-306 774l-282 -823h-60q-45 0 -65 49l-385 977q-39 98 -73 126.5t-103 37.5v92h475v-92q-59 -8 -81 -21.5t-13 -38.5l301 -803l221 660l-14 39 q-39 98 -73 126.5t-104 37.5v92h476v-92q-55 -8 -79 -22.5t-16 -37.5l301 -803l269 783q12 35 -22 53t-99 27v92z" glyph-name="Wcircumflex" horiz-adv-x="1978" unicode="Ŵ"/><glyph d="M840 1231l-197 -137h-141l338 364l338 -364h-142zM1085 -6q-57 0 -77 57l-195 504l-219 -561h-86q-57 0 -78 57l-248 629q-53 133 -119 158l-43 16v70q217 -16 433 0v-70l-43 -16q-37 -14 -40 -36t31 -122l172 -477l168 530q-41 88 -86 105l-53 16v70q223 -16 442 0v-70 l-53 -16q-37 -14 -40 -36t30 -122l172 -477l147 471q27 100 23 124.5t-43 39.5l-45 16v70q203 -16 389 0v-70l-47 -16q-86 -29 -137 -162l-269 -682h-86z" glyph-name="wcircumflex" horiz-adv-x="1644" unicode="ŵ"/><glyph d="M709 1806l338 -364h-142l-196 137l-197 -137h-141zM901 1272h379v-94q-61 -8 -95 -34t-77 -87l-338 -500v-389q0 -35 48 -48q32 -9 102 -20v-100h-517v100q121 19 136.5 35.5t15.5 32.5v336l-334 502q-78 119 -107.5 142.5t-82.5 29.5v94h465v-94q-47 -8 -70 -25.5 t-6 -42.5l297 -448l282 428q25 37 -3.5 58t-94.5 30v94z" glyph-name="Ycircumflex" horiz-adv-x="1310" unicode="Ŷ"/><glyph d="M610 1458l338 -364h-141l-197 137l-196 -137h-142zM1110 924v-70l-29 -12q-20 -10 -36 -16q-41 -14 -50 -40l-420 -958q-59 -137 -123.5 -202.5t-170.5 -65.5q-207 0 -238 127q-16 66 11.5 105.5t87.5 39.5t82 -24q22 -26 24 -54q6 -79 61 -78.5t119 152.5l76 174 l-377 784q-16 39 -68 56l-36 12v70h434v-70l-51 -10q-66 -12 -46 -58l267 -555l225 555q8 20 -6.5 36t-40.5 22l-57 10v70h362z" glyph-name="ycircumflex" horiz-adv-x="1130" unicode="ŷ"/><glyph d="M469 1481q-57 0 -98 41t-41 98t41 98t98 41t98 -41t41 -98t-41 -98t-98 -41zM913.5 1481q-57.5 0 -98.5 41t-41 98t41 98t98.5 41t97.5 -41t40 -98t-40 -98t-97.5 -41zM901 1272h379v-94q-61 -8 -95 -34t-77 -87l-338 -500v-389q0 -35 48 -48q32 -9 102 -20v-100h-517 v100q121 19 136.5 35.5t15.5 32.5v336l-334 502q-78 119 -107.5 142.5t-82.5 29.5v94h465v-94q-47 -8 -70 -25.5t-6 -42.5l297 -448l282 428q25 37 -3.5 58t-94.5 30v94z" glyph-name="Ydieresis" horiz-adv-x="1310" unicode="Ÿ"/><glyph d="M584 1526l217 233q80 88 149 10q33 -45 18.5 -86t-61.5 -69l-276 -160q-37 -23 -58.5 8t11.5 64zM129 0q-41 0 -52 33t13 67l733 1055l-565 -8q-16 0 -28.5 -11.5t-15.5 -19.5t-11 -33l-21 -65h-131l55 254h1070l-797 -1157l594 10q34 1 51 31q6 10 14 32l31 78h131 l-67 -266h-1004z" glyph-name="Zacute" horiz-adv-x="1282" unicode="Ź"/><glyph d="M442 1178l217 233q80 88 150 10q33 -45 18.5 -86t-61.5 -69l-277 -160q-37 -23 -57 8q-23 31 10 64zM885 229l-37 -229q-365 14 -729 0q-41 -2 -53.5 30.5t12.5 67.5l518 717l-375 -12q-35 -2 -63 -68l-11 -30h-81l36 223q399 -14 801 0l-594 -813l418 12q34 0 49 48 q4 13 6 18l13 36h90z" glyph-name="zacute" horiz-adv-x="954" unicode="ź"/><glyph d="M637 1479q-55 0 -95 40t-40 95t40 94t95 39t95 -39t40 -94t-40 -95t-95 -40zM129 0q-41 0 -52 33t13 67l733 1055l-565 -8q-16 0 -28.5 -11.5t-15.5 -19.5t-11 -33l-21 -65h-131l55 254h1070l-797 -1157l594 10q34 1 51 31q6 10 14 32l31 78h131l-67 -266h-1004z" glyph-name="Zdotaccent" horiz-adv-x="1282" unicode="Ż"/><glyph d="M495.5 1130q-55.5 0 -95.5 40t-40 95.5t40 94.5t95.5 39t95.5 -39t40 -94.5t-40 -95.5t-95.5 -40zM885 229l-37 -229q-365 14 -729 0q-41 -2 -53.5 30.5t12.5 67.5l518 717l-375 -12q-35 -2 -63 -68l-11 -30h-81l36 223q399 -14 801 0l-594 -813l418 12q34 0 49 48 q4 13 6 18l13 36h90z" glyph-name="zdotaccent" horiz-adv-x="954" unicode="ż"/><glyph d="M633 1415l-338 365h141l197 -138l196 138h142zM129 0q-41 0 -52 33t13 67l733 1055l-565 -8q-16 0 -28.5 -11.5t-15.5 -19.5t-11 -33l-21 -65h-131l55 254h1070l-797 -1157l594 10q34 1 51 31q6 10 14 32l31 78h131l-67 -266h-1004z" glyph-name="Zcaron" horiz-adv-x="1282" unicode="Ž"/><glyph d="M492 1067l-338 365h141l197 -138l196 138h141zM885 229l-37 -229q-365 14 -729 0q-41 -2 -53.5 30.5t12.5 67.5l518 717l-375 -12q-35 -2 -63 -68l-11 -30h-81l36 223q399 -14 801 0l-594 -813l418 12q34 0 49 48q4 13 6 18l13 36h90z" glyph-name="zcaron" horiz-adv-x="954" unicode="ž"/><glyph d="M1000 1278q-28 0 -59.5 -14.5t-47.5 -30.5t-29.5 -60.5t-17.5 -69t-15 -87.5l-10 -80h277q10 0 17 -5t3 -13l-10 -23q-10 -18 -21 -38.5t-47 -20.5h-233l-123 -871q-27 -180 -122 -279.5t-236 -99.5q-92 0 -163 44t-97 106q-16 25 -6 61.5t46 53.5t66.5 7t38.5 -38 q5 -10 8.5 -30.5t7.5 -36t8.5 -21.5t17 -32t64.5 -26q86 0 125 68t58 199l127 895h-109q-23 0 -18 20l10 80h131l6 55q53 375 379 375q190 0 270 -141q18 -25 11 -62t-41 -57t-65.5 -13t-41.5 33q-2 4 -7 20.5t-7 22t-7 20.5t-9.5 20t-11.5 17.5t-13 17.5t-16.5 13.5 t-20.5 11.5t-24.5 6t-42.5 3z" glyph-name="florin" horiz-adv-x="1286" unicode="ƒ"/><glyph d="M540.5 1196q-116.5 0 -179 -67.5t-50.5 -161.5q7 -66 57 -107t110.5 -61.5t92 -30.5t75.5 -22.5t62.5 -18.5t64.5 -22.5t71.5 -32t65.5 -38t64 -48.5q24 -24 50 -56q50 -58 60 -156q10 -99 -32 -180q-42 -80 -117 -128q-152 -96 -341 -97q-106 0 -233.5 46t-192.5 24 l-107 321l91 33q45 14 67 -26q43 -80 45 -84q96 -195 326 -195q119 0 193.5 51t63.5 159.5t-129.5 159t-197.5 68.5q-212 65 -306.5 152.5t-115.5 220.5q-20 166 106 286t326 120t362 -100q62 -38 107 -46l27 -260l-96 -16q-41 -6 -49 24l-23 82q-20 84 -110.5 145.5 t-207 61.5zM584 -158q100 -12 128 -150q14 -68 -14.5 -164.5t-111.5 -166.5q-23 -16 -39 4l-37 41q107 118 84 184q-85 -20 -133 44q-31 42 -24 94.5t50 86t97 27.5z" glyph-name="Scommaaccent" horiz-adv-x="1146" unicode="Ș"/><glyph d="M872 268q0 -131 -118.5 -205.5t-276 -74.5t-273.5 55t-130 96q-57 176 37 191q117 20 125 -56q27 -186 223 -186q100 0 153.5 38t53.5 91t-38 85t-78 46t-112 36q-132 39 -226 95q-122 74 -122 198t94.5 194.5t251 70.5t268 -56.5t115.5 -94.5q8 -98 -10 -133t-59 -40 q-115 -8 -105 64q12 68 -39 119t-140 51q-175 0 -175 -115q0 -70 60.5 -103.5t195.5 -73.5t198 -81q127 -80 127 -211zM588 -287q19 -90 -9 -186t-112 -166q-23 -16 -39 4l-37 41q107 118 84 184q-85 -20 -133 44q-31 42 -24 94.5t50.5 86t94.5 27.5t84 -44t41 -85z" glyph-name="scommaaccent" horiz-adv-x="933" unicode="ș"/><glyph d="M965 1155h-240v-975q0 -41 29.5 -60.5t95.5 -33.5v-86h-490v86q63 14 93 33.5t30 60.5v975h-239q-63 0 -97 -63l-32 -68h-74l16 199q4 49 47 49h1000q43 0 47 -49l16 -199h-73l-33 68q-33 63 -96 63zM506 -185.5q43 33.5 94 27.5t84 -44t46 -106.5t-14.5 -164.5 t-111.5 -166q-23 -16 -39 4l-37 41q107 118 84 184q-86 -21 -132 44q-30 42 -23.5 94.5t49.5 86z" glyph-name="uni021A" horiz-adv-x="1208" unicode="Ț"/><glyph d="M139 287v518h-98v104q85 0 143 75q39 51 90 149q16 31 50 27.5t34 -34.5v-202h226v-70q0 -49 -45 -49h-181v-553q0 -156 88 -156q50 0 111 41q29 20 56.5 -17.5t-1.5 -58.5q-94 -74 -219 -73q-254 0 -254 299zM487 -287q19 -90 -9 -186t-111 -166q-23 -16 -39 4l-37 41 q107 118 84 184q-85 -21 -133 44q-30 42 -23.5 94.5t49.5 86t94.5 27.5t84 -44t40.5 -85z" glyph-name="uni021B" horiz-adv-x="647" unicode="ț"/><glyph d="M414 864v-1016q0 -188 -166 -258q-111 -43 -205 -17t-131 103q-23 41 -13.5 89.5t50.5 68.5q49 20 84 8t47 -38.5t23.5 -68.5t21.5 -62.5t27 -14.5q49 20 49 102v992q0 35 -13.5 49t-44.5 14h-41v94l246 19q66 6 66 -64z" glyph-name="uni0237" horiz-adv-x="536" unicode="ȷ"/><glyph d="M451 1458l335 -364h-141l-194 137l-197 -137h-141z" glyph-name="circumflex" horiz-adv-x="899" unicode="ˆ"/><glyph d="M418 1067l-338 365h141l197 -138l196 138h142z" glyph-name="caron" horiz-adv-x="835" unicode="ˇ"/><glyph d="M393 1120q-123 0 -203.5 76t-87.5 197q0 23 21 22h59q20 0 23 -22q6 -47 57 -79t131 -32t131.5 32t55.5 67t24 34h60q20 0 20 -22q-6 -121 -87 -197t-204 -76z" glyph-name="breve" horiz-adv-x="786" unicode="˘"/><glyph d="M239.5 1130q-55.5 0 -95.5 40t-40 95.5t40 94.5t95.5 39t95.5 -39t40 -94.5t-40 -95.5t-95.5 -40z" glyph-name="dotaccent" horiz-adv-x="479" unicode="˙"/><glyph d="M400 1110q-85 0 -146 58.5t-61 139.5t61 139t146 58t144.5 -58t59.5 -139t-59.5 -139.5t-144.5 -58.5zM396 1210q30 0 53.5 30t23.5 66.5t-23.5 66.5t-53.5 30t-53.5 -29.5t-23.5 -67.5t23.5 -67t53.5 -29z" glyph-name="ring" horiz-adv-x="796" unicode="˚"/><glyph d="M305 -416q-86 0 -157.5 48.5t-71.5 144.5t84 165.5t186 98.5h107q-174 -113 -174 -234q0 -49 32.5 -81.5t81.5 -32.5q109 0 152 112h71q-15 -63 -81 -142t-230 -79z" glyph-name="ogonek" horiz-adv-x="698" unicode="˛"/><glyph d="M603 1108q-93 0 -186 69.5t-142 69.5t-78 -36.5t-25 -61.5h-84q-25 92 50 156.5t166 64.5t176.5 -59.5t139.5 -59.5t91 32t32 54h105q-10 -104 -81 -166.5t-164 -62.5z" glyph-name="tilde" horiz-adv-x="929" unicode="˜"/><glyph d="M121 1178l217 233q82 86 149 10q35 -45 21 -86t-64 -69l-274 -160q-37 -23 -59.5 8t10.5 64zM545 1178l217 233q82 86 149 10q35 -45 21 -86t-64 -69l-274 -160q-37 -23 -59.5 8t10.5 64z" glyph-name="hungarumlaut" horiz-adv-x="1038" unicode="˝"/><glyph d="M-496 1178l217 233q80 88 150 10q33 -45 18.5 -86t-61.5 -69l-277 -160q-37 -23 -57 8q-23 31 10 64z" glyph-name="acutecomb" horiz-adv-x="0" unicode="́"/><glyph d="M-113 -287q19 -90 -9 -186t-111 -166q-23 -16 -39 4l-37 41q105 117 84 184q-85 -21 -133 44q-30 42 -23.5 94.5t49.5 86t94 27.5t84 -44t41 -85z" glyph-name="uni0326" horiz-adv-x="0" unicode="̦"/><glyph d="M1239 0h-1198l588 1298zM219 180h721l-360 791z" glyph-name="Delta" horiz-adv-x="1280" unicode="Δ"/><glyph d="M1284 0h-399v289q113 10 178 124.5t65 321.5t-103 330t-281.5 123t-282 -123t-103.5 -330t65.5 -321.5t180.5 -124.5v-289h-401q-45 0 -62 47l-59 203h102l35 -55q23 -39 53.5 -50.5t87.5 -15.5l121 -6q16 -2 22.5 7t6.5 34q-174 49 -289 197.5t-115 340.5 q0 240 182.5 421.5t455 181.5t454.5 -181.5t182 -421.5q0 -182 -116.5 -335.5t-286.5 -202.5q-2 -45 29 -41l110 6q66 4 97.5 15.5t54.5 50.5l35 55h102l-59 -203q-16 -47 -62 -47z" glyph-name="Omega" horiz-adv-x="1486" unicode="Ω"/><glyph d="M987 195q0 -92 115 -74v-84l-158 -43q-66 -18 -112 29t-58 178v4q-16 -49 -45 -92t-97.5 -84t-180 -41t-197.5 61q6 -87 28 -149q24 -62 46 -86q56 -62 53 -86q-12 -88 -92 -125t-125 16q-25 31 -25 84v530q-10 47 -10 99v422q0 66 -57 65h-31v80l250 37q53 4 53 -43 v-539q0 -125 47 -178t143 -53t150.5 54t89.5 161v416q0 35 -12 50t-43 15h-31v80l248 37q51 10 51 -43v-698z" glyph-name="mu" horiz-adv-x="1163" unicode="μ"/><glyph d="M874 266v498h-249v-526q0 -113 -73 -181.5t-163 -68.5t-147 20l-27 96q82 -18 146.5 29t64.5 141v490h-100q-59 0 -87 -44t-8 -122l-73 49q-25 69 -25 129t48 104t130 44h967v-160h-150q-31 0 -44 -14.5t-13 -49.5v-499q0 -86 49 -107q16 -6 29.5 12.5t27 51t17.5 41.5 q41 61 115 28t43 -143q-20 -72 -117.5 -96.5t-198.5 16.5q-162 63 -162 262z" glyph-name="pi" horiz-adv-x="1490" unicode="π"/><glyph d="M731 1526q33 -33 11.5 -64t-58.5 -8l-276 160q-47 29 -61.5 69.5t18.5 85.5q70 78 149 -10zM1036 0h-964v92q63 14 93 33.5t30 60.5v901q0 41 -30 60.5t-93 34.5v90h940q20 0 27.5 -7.5t7.5 -29.5v-221h-91l-30 67q-18 41 -55 54.5t-109 13.5h-326v-442h344q58 1 80 41 q8 14 25 57h55v-313h-55q-31 74 -50 87t-55 13h-344v-471l428 4q57 0 83 11t54 48l54 68h108q-29 -57 -65 -205q-12 -47 -62 -47z" glyph-name="uni0400" unicode="Ѐ"/><glyph d="M366.5 1481q-57.5 0 -98.5 41t-41 98t41 98t98.5 41t98.5 -41t41 -98t-41 -98t-98.5 -41zM811 1481q-57 0 -98 41t-41 98t41 98t98 41t97 -41t40 -98t-40 -98t-97 -41zM1036 0h-964v92q63 14 93 33.5t30 60.5v901q0 41 -30 60.5t-93 34.5v90h940q20 0 27.5 -7.5 t7.5 -29.5v-221h-91l-30 67q-18 41 -55 54.5t-109 13.5h-326v-442h344q58 1 80 41q8 14 25 57h55v-313h-55q-31 74 -50 87t-55 13h-344v-471l428 4q57 0 83 11t54 48l54 68h108q-29 -57 -65 -205q-12 -47 -62 -47z" glyph-name="afii10023" unicode="Ё"/><glyph d="M526 1454q-37 -23 -57 8q-23 31 10 64l217 233q80 88 150 10q33 -45 18.5 -86t-61.5 -69zM397 1110v-928q0 -33 32 -52t108 -38v-92h-506v92q76 18 107.5 38t31.5 52v918q0 61 -139 80v92h911q52 0 62 -47l49 -215h-90l-33 65q-37 74 -164 76l-303 6q-66 -4 -66 -47z" glyph-name="afii10052" horiz-adv-x="1103" unicode="Ѓ"/><glyph d="M61 650q0 290 172.5 472.5t412.5 182.5t380 -168q40 0 57 102q10 39 39 33l60 -10l24 -373l-98 -33q-35 -10 -47 23q-4 12 -29 73q-92 236 -325 236q-168 0 -272.5 -122t-108.5 -359h467v-119h-461q27 -207 142.5 -339t270.5 -132q199 1 328 199q32 50 52.5 49.5 t48.5 -19.5t33 -40.5t-25 -74.5q-147 -252 -492 -251q-258 0 -443.5 190t-185.5 480z" glyph-name="afii10053" horiz-adv-x="1316" unicode="Є"/><glyph d="M540.5 1196q-116.5 0 -179 -67.5t-50.5 -161.5q7 -66 57 -107t110.5 -61.5t92 -30.5t75.5 -22.5t62.5 -18.5t64.5 -22.5t71.5 -32t65.5 -38t64 -48.5q24 -24 50 -56q50 -58 60 -156q10 -99 -32 -180q-42 -80 -117 -128q-152 -96 -341 -97q-106 0 -233.5 46t-192.5 24 l-107 321l91 33q45 14 67 -26q43 -80 45 -84q96 -195 326 -195q119 0 193.5 51t63.5 159.5t-129.5 159t-197.5 68.5q-212 65 -306.5 152.5t-115.5 220.5q-20 166 106 286t326 120t362 -100q62 -38 107 -46l27 -260l-96 -16q-41 -6 -49 24l-23 82q-20 84 -110.5 145.5 t-207 61.5z" glyph-name="afii10054" horiz-adv-x="1146" unicode="Ѕ"/><glyph d="M444 180q0 -41 31 -60.5t94 -33.5v-86h-487v86q63 14 94 33.5t31 60.5v907q0 41 -31 60.5t-94 34.5v90h487v-90q-63 -14 -94 -34t-31 -61v-907z" glyph-name="afii10055" horiz-adv-x="651" unicode="І"/><glyph d="M96.5 1481q-57.5 0 -98.5 41t-41 98t41 98t98.5 41t98.5 -41t41 -98t-41 -98t-98.5 -41zM540.5 1481q-57.5 0 -98.5 41t-41 98t41 98t98.5 41t97.5 -41t40 -98t-40 -98t-97.5 -41zM444 180q0 -41 31 -60.5t94 -33.5v-86h-487v86q63 14 94 33.5t31 60.5v907q0 41 -31 60.5 t-94 34.5v90h487v-90q-63 -14 -94 -34t-31 -61v-907z" glyph-name="afii10056" horiz-adv-x="651" unicode="Ї"/><glyph d="M700 1272v-90q-63 -14 -92.5 -34t-29.5 -61v-1103q0 -176 -81 -252t-219 -76t-213 56.5t-75 137.5q0 125 121 125q96 -1 96 -109t65 -108t66 109v1220q0 41 -29.5 60.5t-93.5 34.5v90h485z" glyph-name="afii10057" horiz-adv-x="782" unicode="Ј"/><glyph d="M563 1614q-47 29 -61.5 69.5t18.5 85.5q70 78 150 -10l217 -233q33 -33 11.5 -64t-58.5 -8zM1255 1087v-907q0 -41 31 -60.5t94 -33.5v-86h-487v86q63 14 94 33.5t31 60.5v692l-574 -634v-58q0 -41 31 -60.5t94 -33.5v-86h-487v86q63 14 94 33.5t31 60.5v907 q0 41 -31 60.5t-94 34.5v90h487v-90q-63 -14 -94 -34t-31 -61v-681l574 634v47q0 41 -31 60.5t-94 34.5v90h487v-90q-63 -14 -94 -34t-31 -61z" glyph-name="uni040D" horiz-adv-x="1472" unicode="Ѝ"/><glyph d="M739 1468q-123 0 -203.5 76t-86.5 197q0 23 20 22h59q20 0 23 -22q6 -47 57 -79t131 -32t131.5 32t55.5 67t24 34h60q20 0 20 -22q-6 -121 -87 -197t-204 -76zM1356 1272v-86q-76 -10 -110 -71q-5 -9 -29 -52l-400 -727q-132 -242 -178 -284q-73 -67 -111.5 -75t-81.5 -8 q-223 0 -258 125q-16 57 12.5 98t79 41t74 -22.5t29.5 -48t24.5 -48t42 -22.5t36 3t21.5 6t19.5 11.5t16.5 13.5t16 19.5t14.5 21.5t14.5 26.5t22 40.5t23 51l-426 727q-72 121 -97.5 143.5t-78.5 30.5v86h463v-86q-117 -21 -88 -70l364 -635l324 615q18 35 -16 57.5 t-99 32.5v86h377z" glyph-name="afii10062" horiz-adv-x="1386" unicode="Ў"/><glyph d="M1403 0h-479v90q82 14 97 29.5t-3 52.5l-117 270h-467l-106 -260q-14 -35 12.5 -55.5t103.5 -36.5v-90h-403v90q78 18 101.5 35.5t52.5 85.5l452 1077l80 -22q55 -18 74 -64l420 -940q45 -102 75.5 -129t106.5 -43v-90zM477 549h379l-194 448z" glyph-name="afii10017" horiz-adv-x="1443" unicode="А"/><glyph d="M629 780q213 0 352 -105.5t139 -285.5t-139 -284.5t-371 -104.5h-579v92q76 18 107.5 38t31.5 52v918q0 61 -139 80v92h911q51 0 62 -47l49 -215h-90l-33 65q-37 74 -164 76l-303 6q-66 -4 -66 -47v-330h232zM629 92q125 0 184 82t59 216t-60 217t-185 83h-230v-508 q0 -33 32 -52t108 -38h92z" glyph-name="afii10018" horiz-adv-x="1185" unicode="Б"/><glyph d="M1235 362q0 -180 -137 -274t-379 -88l-180 4q-281 18 -488 -4v102q133 29 133 99v884q0 70 -131 91v96h598q514 0 514 -301q0 -92 -69.5 -171t-210.5 -112q172 -27 261 -114t89 -212zM422 1165v-430h364q49 0 88 62.5t39 167.5q0 201 -245 200h-246zM688 117 q154 0 224.5 52t70.5 193.5t-104.5 211t-348.5 69.5h-108v-440q0 -86 59 -86h207z" glyph-name="afii10019" horiz-adv-x="1306" unicode="В"/><glyph d="M397 1110v-928q0 -33 32 -52t108 -38v-92h-506v92q76 18 107.5 38t31.5 52v918q0 61 -139 80v92h911q52 0 62 -47l49 -215h-90l-33 65q-37 74 -164 76l-303 6q-66 -4 -66 -47z" glyph-name="afii10020" horiz-adv-x="1103" unicode="Г"/><glyph d="M1348 1180q-134 0 -148 -18.5t-14 -39.5v-940q0 -45 31.5 -60.5t115.5 -17.5q27 0 23 -24l-49 -418h-74q-23 0 -23 22t1 63.5t0 56t-3 46t-9 42t-19.5 33t-31 29.5t-46 19.5t-65.5 15.5t-87 7t-110 4h-260q-204 0 -265 -26.5t-103 -59t-42 -229.5q0 -23 -23 -23h-59v422 q0 20 21 22q170 31 234.5 281t64.5 733q0 35 -35 47.5t-127 12.5v92h1102v-92zM836 106q61 0 89.5 15.5t28.5 62.5v922q0 57 -118 57h-203q-104 0 -105 -53q0 -403 -50 -669.5t-142 -334.5h500z" glyph-name="afii10021" horiz-adv-x="1443" unicode="Д"/><glyph d="M1036 0h-964v92q63 14 93 33.5t30 60.5v901q0 41 -30 60.5t-93 34.5v90h940q20 0 27.5 -7.5t7.5 -29.5v-221h-91l-30 67q-18 41 -55 54.5t-109 13.5h-326v-442h344q58 1 80 41q8 14 25 57h55v-313h-55q-31 74 -50 87t-55 13h-344v-471l428 4q57 0 83 11t54 48l54 68h108 q-29 -57 -65 -205q-12 -47 -62 -47z" glyph-name="afii10022" unicode="Е"/><glyph d="M1999 0h-526v90q107 17 55 90l-365 406h-12v-408q0 -68 137 -88v-90h-508v90q139 18 140 88v408h-15l-364 -406q-54 -72 57 -90v-90h-526v90q70 8 114.5 40t141.5 138l401 443l-315 391q-35 39 -57.5 30.5t-35 -14.5t-37 -24.5t-38.5 -26.5q-49 -31 -93 4t-44 90 q0 111 190 111q133 0 254 -156l256 -336q57 -72 111 -84v398q0 70 -140 88v90h508v-90q-72 -12 -104.5 -30.5t-32.5 -57.5v-398q55 12 109 84l258 336q121 156 254 156q190 0 190 -111q0 -55 -45 -90t-94 -4q-14 8 -44 30.5t-58.5 33t-63.5 -28.5l-318 -391l404 -443 q96 -106 141 -138t115 -40v-90z" glyph-name="afii10024" horiz-adv-x="2070" unicode="Ж"/><glyph d="M1194 422q0 -197 -160 -322t-396 -125t-385 109t-151 268q0 113 101 113q35 0 56.5 -15.5t28.5 -33t22.5 -64.5t29.5 -80q41 -96 115.5 -144t202.5 -48t211 79t83 209t-62.5 199.5t-150.5 69.5q-41 0 -77 -12l-84 -29l-39 92l88 35q231 94 231 276q0 94 -58.5 143.5 t-160.5 49.5q-229 0 -322 -231q-14 -35 -28 -78q-12 -33 -47 -23l-103 23l23 389h74q33 0 38 -35q16 -86 56 -86q129 154 332 154t315.5 -92.5t112.5 -195.5t-50.5 -172t-132.5 -102q104 12 195.5 -79t91.5 -242z" glyph-name="afii10025" horiz-adv-x="1286" unicode="З"/><glyph d="M1255 1087v-907q0 -41 31 -60.5t94 -33.5v-86h-487v86q63 14 94 33.5t31 60.5v692l-574 -634v-58q0 -41 31 -60.5t94 -33.5v-86h-487v86q63 14 94 33.5t31 60.5v907q0 41 -31 60.5t-94 34.5v90h487v-90q-63 -14 -94 -34t-31 -61v-681l574 634v47q0 41 -31 60.5t-94 34.5 v90h487v-90q-63 -14 -94 -34t-31 -61z" glyph-name="afii10026" horiz-adv-x="1472" unicode="И"/><glyph d="M747.5 1468q-122.5 0 -203.5 76t-87 197q0 23 20 22h60q20 0 22 -22q6 -47 57.5 -79t131 -32t131 32t55.5 67t24 34h60q20 0 20 -22q-6 -121 -87 -197t-203.5 -76zM1255 1087v-907q0 -41 31 -60.5t94 -33.5v-86h-487v86q63 14 94 33.5t31 60.5v692l-574 -634v-58 q0 -41 31 -60.5t94 -33.5v-86h-487v86q63 14 94 33.5t31 60.5v907q0 41 -31 60.5t-94 34.5v90h487v-90q-63 -14 -94 -34t-31 -61v-681l574 634v47q0 41 -31 60.5t-94 34.5v90h487v-90q-63 -14 -94 -34t-31 -61z" glyph-name="afii10027" horiz-adv-x="1472" unicode="Й"/><glyph d="M1309 0h-527v90q108 18 56 90l-363 406h-63v-408q0 -70 137 -88v-90h-508v90q137 18 137 88v916q0 39 -33.5 58t-103.5 30v90h508v-90q-72 -12 -104.5 -30.5t-32.5 -57.5v-400h28q61 0 131 86l256 336q121 156 252 156q193 0 193 -109q0 -55 -45 -91t-94 -3q-14 8 -47 30 t-61.5 31t-57.5 -28l-316 -391l402 -443q96 -106 141 -138t115 -40v-90z" glyph-name="afii10028" horiz-adv-x="1380" unicode="К"/><glyph d="M1198 1087v-907q0 -41 31 -60.5t94 -33.5v-86h-487v86q63 14 94 33.5t31 60.5v907q0 84 -111 84h-344v-604q0 -252 -10 -321q-47 -262 -248 -269q-170 1 -200 101t48 137q33 18 72 9t47 -38q4 -14 6 -52t12.5 -51t46.5 -10q81 7 97 109t16 212v128l-2 592q0 35 -13 46 t-54 11h-136v101h1135v-90q-63 -14 -94 -34t-31 -61z" glyph-name="afii10029" horiz-adv-x="1411" unicode="Л"/><glyph d="M1583 1081v-899q0 -41 28.5 -62.5t90.5 -33.5v-86h-479v86q63 12 93 33.5t30 62.5v789l-420 -858q-20 -39 -59.5 -39t-61.5 39l-471 819v-750q0 -41 29.5 -61.5t91.5 -34.5v-86h-383v86q63 12 93 33.5t30 62.5v899q0 78 -123 103v88h346l500 -895l450 895h334v-88 q-119 -25 -119 -103z" glyph-name="afii10030" horiz-adv-x="1773" unicode="М"/><glyph d="M1225 1087v-907q0 -41 29.5 -60.5t93.5 -33.5v-86h-486v86q63 14 93 33.5t30 60.5v406h-551v-406q0 -41 30 -60.5t93 -33.5v-86h-485v86q63 14 93 33.5t30 60.5v907q0 41 -30 60.5t-93 34.5v90h485v-90q-63 -14 -93 -34t-30 -61v-385h551v385q0 41 -29.5 60.5t-93.5 34.5 v90h486v-90q-63 -14 -93 -34t-30 -61z" glyph-name="afii10031" horiz-adv-x="1419" unicode="Н"/><glyph d="M1309 649q0 -283 -179.5 -476t-446.5 -193t-444.5 186t-177.5 479t178.5 476.5t444.5 183.5t445.5 -186.5t179.5 -469.5zM731 121q147 0 231.5 100.5t84.5 370.5t-112 432t-290 162q-322 0 -321 -471q0 -264 115.5 -429t291.5 -165z" glyph-name="afii10032" horiz-adv-x="1370" unicode="О"/><glyph d="M1255 1087v-907q0 -41 31 -60.5t94 -33.5v-86h-487v86q63 14 94 33.5t31 60.5v907q0 61 -94 89h-387q-92 -25 -93 -89v-907q0 -41 31 -60.5t94 -33.5v-86h-487v86q63 14 94 33.5t31 60.5v907q0 41 -31 60.5t-94 34.5v90h1298v-90q-63 -14 -94 -34t-31 -61z" glyph-name="afii10033" horiz-adv-x="1472" unicode="П"/><glyph d="M647 1272q242 0 382 -104.5t140 -287t-147.5 -292t-400.5 -109.5h-207v-299q0 -41 30.5 -60.5t94.5 -33.5v-86h-488v86q63 14 94 33.5t31 60.5v907q0 41 -30.5 60.5t-94.5 34.5v90h596zM649 584q273 0 273 296t-246 296h-262v-592h235z" glyph-name="afii10034" horiz-adv-x="1220" unicode="Р"/><glyph d="M707 1188q-172 0 -276.5 -126t-104.5 -371t122 -409q120 -165 308 -165q188 1 317 199q32 50 52.5 49.5t48.5 -19t33 -40.5t-25 -75q-147 -252 -492 -251q-258 0 -443.5 190t-185.5 480t172.5 472.5t412.5 182.5t380 -168q40 0 57 102q10 39 39 33l60 -10l24 -373 l-98 -33q-35 -10 -47 23q-4 12 -29 73q-92 236 -325 236z" glyph-name="afii10035" horiz-adv-x="1269" unicode="С"/><glyph d="M965 1155h-240v-975q0 -41 29.5 -60.5t95.5 -33.5v-86h-490v86q63 14 93 33.5t30 60.5v975h-239q-63 0 -97 -63l-32 -68h-74l16 199q4 49 47 49h1000q43 0 47 -49l16 -199h-73l-33 68q-33 63 -96 63z" glyph-name="afii10036" horiz-adv-x="1208" unicode="Т"/><glyph d="M1356 1272v-86q-76 -10 -110 -71q-5 -9 -29 -52l-400 -727q-132 -242 -178 -284q-73 -67 -111.5 -75t-81.5 -8q-223 0 -258 125q-16 57 12.5 98t79 41t74 -22.5t29.5 -48t24.5 -48t42 -22.5t36 3t21.5 6t19.5 11.5t16.5 13.5t16 19.5t14.5 21.5t14.5 26.5t22 40.5t23 51 l-426 727q-72 121 -97.5 143.5t-78.5 30.5v86h463v-86q-117 -21 -88 -70l364 -635l324 615q18 35 -16 57.5t-99 32.5v86h377z" glyph-name="afii10037" horiz-adv-x="1386" unicode="У"/><glyph d="M999 193h-81v-13q0 -41 30.5 -60.5t93.5 -33.5v-86h-487v86q63 14 94 33.5t31 60.5v13h-72q-233 0 -374.5 124.5t-141.5 316.5t143.5 318.5t370.5 126.5h74v8q0 41 -31 60.5t-94 34.5v90h487v-90q-63 -14 -93.5 -34t-30.5 -61v-8h83q227 0 371 -126q144 -127 144 -319 t-142 -316.5t-375 -124.5zM618 285h62v704h-70q-125 0 -197.5 -105.5t-72.5 -249.5t70.5 -246.5t207.5 -102.5zM997 989h-79v-704h71q137 0 208 102q71 103 71 247t-73 249.5t-198 105.5z" glyph-name="afii10038" horiz-adv-x="1607" unicode="Ф"/><glyph d="M1356 0h-486v96q51 6 78 23.5t6 42.5l-325 395l-289 -375q-25 -35 1 -57.5t87 -28.5v-96h-383v96q61 6 96 32t82 87l336 428l-303 369q-8 10 -27.5 33.5t-25.5 31.5t-20.5 24.5t-21.5 22.5t-29 26.5t-87 29.5v92h483v-92q-47 -8 -73.5 -25.5t-10.5 -38.5l293 -354 l260 334q23 31 -9 53t-97 31v92h395v-92q-104 -12 -182 -117l-299 -385l340 -412q47 -56 56 -69t25.5 -32.5t23.5 -24.5t28.5 -21t77.5 -23v-96z" glyph-name="afii10039" horiz-adv-x="1413" unicode="Х"/><glyph d="M1341 -338q-23 0 -22 23q0 154 -2 165q-12 88 -104.5 119t-313.5 31h-817v86q63 14 94 33.5t31 60.5v907q0 41 -31 60.5t-94 34.5v90h487v-90q-63 -14 -94 -34t-31 -61v-907q0 -59 82 -84h379q16 0 41 4q72 23 72 80v907q0 41 -31 60.5t-94 34.5v90h487v-90 q-63 -14 -94 -34t-31 -61v-727h5v-174q0 -86 188 -90q23 0 22 -24l-49 -410h-80z" glyph-name="afii10040" horiz-adv-x="1556" unicode="Ц"/><glyph d="M1155 1087v-907q0 -41 29.5 -60.5t95.5 -33.5v-86h-487v86q63 14 94 33.5t31 60.5v432q-137 -211 -361 -211q-383 0 -383 367v305q0 57 -25.5 83t-97.5 9l27 107h434v-98q-119 0 -119 -58v-317q0 -113 50.5 -180.5t148.5 -67.5t186 57.5t137 114.5v385q-12 51 -122 74v90 h487v-90q-66 -14 -95.5 -34t-29.5 -61z" glyph-name="afii10041" horiz-adv-x="1361" unicode="Ч"/><glyph d="M1729 1087v-907q0 -41 30.5 -60.5t93.5 -33.5v-86h-1771v86q63 14 94 33.5t31 60.5v907q0 41 -31 60.5t-94 34.5v90h487v-90q-63 -14 -94 -34t-31 -61v-907q0 -59 82 -84h244q78 27 78 84v907q0 41 -30 60.5t-93 34.5v90h485v-90q-63 -14 -93 -34t-30 -61v-907 q0 -57 78 -84h246q80 25 80 84v907q0 41 -30.5 60.5t-94.5 34.5v90h487v-90q-63 -14 -93.5 -34t-30.5 -61z" glyph-name="afii10042" horiz-adv-x="1945" unicode="Ш"/><glyph d="M1718 180q0 -79 187 -84q23 0 22 -24l-49 -410h-80q-23 0 -22.5 22.5t1.5 62.5t1 56.5t-3 46t-10.5 42t-20.5 32.5q-12 21 -34 29q-22 9 -53 21q-66 26 -295 26h-1290v86q63 14 93 33.5t30 60.5v907q0 41 -30 60.5t-93 34.5v90h485v-90q-63 -14 -93 -34t-30 -61v-907 q0 -59 82 -84h240q82 25 82 84v907q0 41 -30 60.5t-93 34.5v90h485v-90q-63 -14 -93 -34t-30 -61v-907q0 -57 78 -84h213q16 0 41 4q72 23 72 80v907q0 41 -31 60.5t-94 34.5v90h487v-90q-63 -14 -94 -34t-31 -61v-907z" glyph-name="afii10043" horiz-adv-x="2009" unicode="Щ"/><glyph d="M891 780q213 0 352 -105.5t139 -285.5t-139 -284.5t-371 -104.5h-581v86q63 14 94 33.5t31 60.5v907q0 55 -70 80l-67 -2q-70 -2 -102 -14t-52 -53l-33 -68l-92 4l49 191q12 47 62 47h667v-90q-63 -14 -94 -34t-31 -61v-307h238zM889 96q125 0 185.5 80t60.5 214 t-60.5 217t-185.5 83h-236v-510q0 -33 20.5 -52t63.5 -32h152z" glyph-name="afii10044" horiz-adv-x="1433" unicode="Ъ"/><glyph d="M680 780q215 0 354.5 -105.5t139.5 -285.5t-139.5 -284.5t-372.5 -104.5h-580v86q63 14 94 33.5t31 60.5v907q0 41 -31 60.5t-94 34.5v90h487v-90q-63 -14 -94 -34t-31 -61v-307h236zM1612 1087v-907q0 -41 30.5 -60.5t94.5 -33.5v-86h-488v86q63 14 94 33.5t31 60.5v907 q0 41 -30.5 60.5t-94.5 34.5v90h488v-90q-63 -14 -94 -34t-31 -61zM680 96q125 0 185.5 80t60.5 214t-60.5 217t-185.5 83h-236v-510q0 -61 84 -84h152z" glyph-name="afii10045" horiz-adv-x="1828" unicode="Ы"/><glyph d="M680 780q215 0 354.5 -105.5t139.5 -285.5t-139.5 -284.5t-372.5 -104.5h-580v86q63 14 94 33.5t31 60.5v907q0 41 -31 60.5t-94 34.5v90h487v-90q-63 -14 -94 -34t-31 -61v-307h236zM680 96q125 0 185.5 80t60.5 214t-60.5 217t-185.5 83h-236v-510q0 -61 84 -84h152z " glyph-name="afii10046" horiz-adv-x="1234" unicode="Ь"/><glyph d="M671.5 1305q242.5 0 413 -182.5t170.5 -472t-185 -480t-443 -190.5q-340 0 -492 251q-31 57 -25.5 76.5t33 38.5t42.5 19q15 1 25 -7q12 -10 34 -42q134 -198 327 -199q156 0 271.5 132t142.5 339h-461v119h467q-4 238 -107.5 359.5t-271.5 121.5q-236 0 -327 -236 q-25 -61 -29 -73q-12 -33 -47 -23l-96 33l24 373l60 10q27 4 36 -33q17 -102 60 -102q136 168 378.5 168z" glyph-name="afii10047" horiz-adv-x="1316" unicode="Э"/><glyph d="M1283 1305q259 0 438.5 -186.5t179.5 -469.5t-179.5 -476t-438.5 -193t-432 166.5t-194 441.5h-213v-408q0 -41 31 -60.5t94 -33.5v-86h-487v86q63 14 94 33.5t31 60.5v907q0 41 -31 60.5t-94 34.5v90h487v-90q-63 -14 -94 -34t-31 -61v-380h213q18 264 192.5 431 t433.5 167zM1323 121q147 0 232 100.5t85 370.5t-112.5 432t-288.5 162q-324 0 -324 -471q0 -264 116 -429t292 -165z" glyph-name="afii10048" horiz-adv-x="1986" unicode="Ю"/><glyph d="M41 94h47q68 6 110 72.5t78 177.5q70 221 304 254q-180 23 -273.5 113t-93.5 213q0 154 130 251t347 97h619v-86q-123 -27 -123 -105v-901q0 -41 29.5 -60.5t93.5 -33.5v-86h-484v86q63 14 93 33.5t30 60.5v375h-133q-102 0 -159.5 -49t-98.5 -176q-86 -258 -270 -330 h-246v94zM692 670h256v506h-272q-106 0 -158.5 -71t-52.5 -181.5t52 -182t175 -71.5z" glyph-name="afii10049" horiz-adv-x="1380" unicode="Я"/><glyph d="M854 193q0 -49 26.5 -66.5t86.5 -7.5l-6 -82q-117 -49 -181 -49q-115 0 -135 200q-84 -201 -280 -200q-139 0 -231.5 66.5t-92.5 197.5t125 209t471 125v41q0 113 -36 166t-121 53t-120.5 -32t-35.5 -124q0 -31 -37 -48t-84 -17t-76 27.5t-29 70.5q0 102 115 160.5 t276 58.5q365 0 365 -358v-391zM414 121q143 0 223 201v174q-239 -36 -313 -111q-58 -58 -58 -122t42.5 -103t105.5 -39z" glyph-name="afii10065" horiz-adv-x="997" unicode="а"/><glyph d="M543 938q186 0 324.5 -128t138.5 -343t-138.5 -351t-314.5 -136t-306 120.5t-175 358.5q-35 152 -18.5 298t65.5 261t154.5 184.5t248.5 69.5h238q34 0 63 17.5t41 21.5h68q-59 -231 -234 -232h-221q-158 0 -226.5 -82t-96.5 -270q63 100 167.5 155.5t221.5 55.5z M563 106q213 0 213 300q0 195 -71.5 305t-184.5 110q-211 0 -211 -301q0 -188 71.5 -301t182.5 -113z" glyph-name="afii10066" horiz-adv-x="1077" unicode="б"/><glyph d="M963 262q0 -131 -98.5 -199.5t-280.5 -62.5l-115 4q-223 14 -418 -4v90q117 18 117 72v620q0 27 -29.5 45.5t-87.5 18.5v78h477q385 0 385 -222q0 -63 -53 -121t-147 -83q117 -20 183.5 -83t66.5 -153zM379 846v-307h223q45 0 69.5 39.5t24.5 109.5q0 158 -178 158h-139z M748 271q0 93 -66 141.5t-221 48.5h-82v-297q0 -61 43 -62l137 -2q189 -4 189 171z" glyph-name="afii10067" horiz-adv-x="1040" unicode="в"/><glyph d="M612 842h-127q-96 0 -111 -21q-7 -10 -7 -28v-633q0 -33 30.5 -46.5t108.5 -21.5v-92h-475v92q63 8 91 21.5t28 46.5v631q0 57 -119 57v76h760q49 0 61 -47l49 -191l-92 -4l-33 68q-47 92 -164 92z" glyph-name="afii10068" horiz-adv-x="952" unicode="г"/><glyph d="M1223 848q-162 0 -162 -57v-621q0 -45 31.5 -60.5t115.5 -17.5q23 0 23 -24l-49 -344h-70q-23 0 -22 22q0 14 1 46t0 43t-3.5 36t-9.5 34t-19 27.5t-30.5 24.5t-63.5 24.5t-246 18.5h-176q-269 0 -320 -53t-60 -91t-9 -110q0 -23 -23 -22h-59v348q0 20 20 22 q289 49 289 694q0 35 -35 47.5t-127 12.5v76h1004v-76zM725 92q61 0 90 15.5t29 62.5v614q0 35 -16.5 47.5t-57.5 12.5h-215q-39 0 -51 -10.5t-12 -45.5q0 -575 -201 -696h434z" glyph-name="afii10069" horiz-adv-x="1302" unicode="д"/><glyph d="M934 559q0 -59 -30 -94t-85 -35h-524q0 -139 74.5 -231.5t204.5 -92.5t241 134l78 -80q-131 -172 -343 -172t-350.5 136t-138.5 348t133.5 341t309.5 129t303 -111.5t127 -271.5zM717 537q0 143 -52.5 223t-154.5 80t-158.5 -81t-56.5 -222h422z" glyph-name="afii10070" horiz-adv-x="995" unicode="е"/><glyph d="M1530 0h-385v72q68 12 65 26q0 4 -4 8l-258 306h-49v-273q0 -23 18 -39.5t78 -27.5v-72h-389v72q63 11 81 28t18 39v273h-52l-258 -306q-20 -20 62 -34v-72h-385v72q43 8 80.5 30.5t97.5 90.5l274 315l-194 278q-18 16 -33 12t-39 -20t-31 -20q-43 -27 -84 -0.5t-41 74.5 t38 71t96 23q119 0 190 -109l172 -256q37 -57 88 -57h19v282q0 23 -18 40t-81 28v70h389v-70q-59 -11 -77.5 -28t-18.5 -40v-282h16q51 0 89 57l172 256q72 109 190 109q57 0 95 -23.5t38 -70.5t-41 -74t-84 0q-70 43 -82 42t-20 -14l-195 -278l277 -315q59 -70 96 -91.5 t80 -29.5v-72z" glyph-name="afii10072" horiz-adv-x="1601" unicode="ж"/><glyph d="M889 305q0 -137 -126 -229t-297 -92t-271.5 78.5t-102.5 191.5q0 88 98 88q43 0 59.5 -14.5t26 -60.5t17.5 -64q45 -115 190 -115q82 0 137.5 48t55.5 136t-36 134.5t-80 46.5t-79 -13l-57 -22l-35 90l72 29q156 61 155 176q0 57 -34.5 92t-107.5 35t-132 -40t-84 -114 q0 -4 -1 -7l-9 -23q-8 -19 -9 -20t-6.5 -10.5t-8.5 -8.5t-9 -5t-11 -2t-14 2l-92 21l17 287h69q33 0 41 -40t23 -49q90 111 238 111t237.5 -68.5t89.5 -150.5q0 -125 -125 -174q80 -14 140.5 -78.5t60.5 -165.5z" glyph-name="afii10073" horiz-adv-x="980" unicode="з"/><glyph d="M1063 782v-632q0 -23 18 -40t78 -28v-82h-399v82q62 11 80 28t18 40v493l-467 -471v-22q0 -23 18 -40t78 -28v-82h-399v82q63 12 80.5 28.5t17.5 39.5v632q0 23 -17 40t-81 28v74h399v-74q-59 -11 -77.5 -28t-18.5 -40v-487l467 479v8q0 23 -18 40t-80 28v74h399v-74 q-59 -11 -77.5 -28t-18.5 -40z" glyph-name="afii10074" horiz-adv-x="1247" unicode="и"/><glyph d="M649 1120q-123 0 -203.5 76t-87.5 197q0 23 21 22h59q20 0 23 -22q6 -47 57 -79t131 -32t131 32t55.5 67t24.5 34h60q20 0 20 -22q-6 -121 -87 -197t-204 -76zM1063 782v-632q0 -23 18 -40t78 -28v-82h-399v82q62 11 80 28t18 40v493l-467 -471v-22q0 -23 18 -40t78 -28 v-82h-399v82q63 12 80.5 28.5t17.5 39.5v632q0 23 -17 40t-81 28v74h399v-74q-59 -11 -77.5 -28t-18.5 -40v-487l467 479v8q0 23 -18 40t-80 28v74h399v-74q-59 -11 -77.5 -28t-18.5 -40z" glyph-name="afii10075" horiz-adv-x="1247" unicode="й"/><glyph d="M1001 0h-385v72q70 10 66 30q0 2 -4 7l-268 303h-66v-262q0 -23 18 -40t78 -28v-82h-399v82q63 12 80.5 28.5t17.5 39.5v632q0 23 -17.5 39.5t-80.5 28.5v74h399v-76q-57 -10 -76.5 -22.5t-19.5 -45.5v-276h33q49 0 88 57l182 256q76 109 180 109q63 0 103.5 -23.5 t40.5 -70.5t-41 -74t-84 0q-70 43 -82 42t-21 -14l-206 -278l286 -313q63 -70 100.5 -94.5t77.5 -28.5v-72z" glyph-name="afii10076" horiz-adv-x="1052" unicode="к"/><glyph d="M1026 782v-626q0 -45 41 -54.5t92 -19.5v-82h-467v82q47 10 65.5 15t36 19.5t17.5 39.5v626q0 66 -80 66h-225v-346q0 -51 1 -102.5t-5 -103.5t-17.5 -122.5t-67 -133.5t-159.5 -63q-180 0 -209 103q-31 98 47 135q41 18 76 10t43 -39q4 -14 6 -55t13.5 -57.5t47.5 -13.5 q81 7 97.5 121t14.5 217q-1 102 -1 114l-2 274q0 35 -37 48.5t-133 13.5v76h938v-74q-76 -6 -104.5 -19.5t-28.5 -48.5z" glyph-name="afii10077" horiz-adv-x="1245" unicode="л"/><glyph d="M1178 780v-635q0 -33 12 -42t59 -23v-80h-342v80q63 20 71 32t7 33v510l-287 -544q-20 -37 -60 -37t-63 37l-327 544v-510q0 -29 13 -39t39 -17t30 -9v-80h-269v80q63 18 71 30t7 35v635q0 35 -17.5 50.5t-60.5 27.5v66h283q172 -340 344 -600q156 297 309 600h252v-66 q-41 -10 -56 -26.5t-15 -51.5z" glyph-name="afii10078" horiz-adv-x="1331" unicode="м"/><glyph d="M1042 782v-632q0 -23 18 -40t79 -28v-82h-400v82q63 11 81 28t18 40v266h-467v-266q0 -23 17.5 -40t78.5 -28v-82h-399v82q62 11 80 28t18 40v632q0 23 -18 39.5t-80 28.5v74h399v-74q-61 -11 -78.5 -28t-17.5 -40v-264h467v264q0 23 -18 40t-81 28v74h400v-74 q-61 -11 -79 -28t-18 -40z" glyph-name="afii10079" horiz-adv-x="1208" unicode="н"/><glyph d="M524.5 942q186.5 0 325.5 -129t139 -343t-138 -348t-322.5 -134t-326 132t-141.5 345t138.5 345t325 132zM760 408q0 195 -72 306t-184 111q-213 0 -213 -303q0 -184 71.5 -295.5t182.5 -111.5q215 0 215 293z" glyph-name="afii10080" horiz-adv-x="1050" unicode="о"/><glyph d="M1063 782v-632q0 -23 18.5 -40t77.5 -28v-82h-399v82q62 11 80 28t18 40v630q0 59 -61 68h-346q-59 -8 -60 -68v-630q0 -23 18 -40t78 -28v-82h-399v82q63 12 80.5 28.5t17.5 39.5v632q0 23 -17.5 39.5t-80.5 28.5v74h1071v-74q-59 -11 -77.5 -28t-18.5 -40z" glyph-name="afii10081" horiz-adv-x="1247" unicode="п"/><glyph d="M674 938q162 0 270.5 -126t108.5 -346t-121 -349t-281 -129q-96 0 -166.5 46t-107.5 107v-389q0 -35 23.5 -46t78.5 -11v-72h-413v72q51 0 73.5 11t22.5 46v989q0 96 -121 80v84l281 35q51 6 60 -43t-15 -117q145 158 307 158zM630 104q91 0 143 85t52 243t-50 258.5 t-142 100.5q-141 0 -256 -107v-379q31 -90 96.5 -145.5t156.5 -55.5z" glyph-name="afii10082" horiz-adv-x="1114" unicode="р"/><glyph d="M496 -12q-166 0 -300.5 134t-134.5 347t135.5 343t312.5 130t281.5 -78t104.5 -176q0 -43 -25.5 -69.5t-77.5 -26.5t-81 23.5t-29 61.5q0 66 -19.5 109t-137 43t-175 -76.5t-57.5 -246.5t78 -283.5t204 -111.5q20 0 39 3t32 5t29.5 11t24 12t22.5 16.5t19 16.5t20.5 20.5 t18.5 19.5q33 37 62 12l49 -45q-39 -74 -134 -134t-261 -60z" glyph-name="afii10083" horiz-adv-x="968" unicode="с"/><glyph d="M784 842h-168v-692q0 -23 18 -40t79 -28v-82h-400v82q63 11 81 28t18 40v692h-170q-61 0 -95 -68l-32 -67h-74l14 170q4 47 45 47h824q41 0 45 -47l14 -170h-72l-32 67q-35 68 -95 68z" glyph-name="afii10084" horiz-adv-x="1024" unicode="т"/><glyph d="M1110 924v-70l-29 -12q-20 -10 -36 -16q-41 -14 -50 -40l-420 -958q-59 -137 -123.5 -202.5t-170.5 -65.5q-207 0 -238 127q-16 66 11.5 105.5t87.5 39.5t82 -24q22 -26 24 -54q6 -79 61 -78.5t119 152.5l76 174l-377 784q-16 39 -68 56l-36 12v70h434v-70l-51 -10 q-66 -12 -46 -58l267 -555l225 555q8 20 -6.5 36t-40.5 22l-57 10v70h362z" glyph-name="afii10085" horiz-adv-x="1130" unicode="у"/><glyph d="M1090 936q137 0 239.5 -134t102.5 -346t-100 -340t-244 -128t-234 186v-401q0 -23 18 -40t78 -28v-82h-399v82q62 11 80 28t18 40v401q-90 -186 -234 -186t-243.5 128t-99.5 340t103.5 346t240.5 134q68 0 116 -28.5t70.5 -63.5t46.5 -94v395q0 96 -121 80v80l267 38 q34 4 42.5 -7t13.5 -21t5 -21l-2 -102v-442q27 61 48.5 95t69.5 62.5t118 28.5zM444 127q117 0 205 147v377q-86 168 -213 168q-63 0 -108 -95.5t-45 -241.5t46.5 -250.5t114.5 -104.5zM1061 127q66 0 113 104.5t47 250.5t-45.5 241.5t-106.5 95.5q-129 0 -215 -168v-377 q88 -147 207 -147z" glyph-name="afii10086" horiz-adv-x="1490" unicode="ф"/><glyph d="M1006 102l55 -4v-98q-221 16 -447 0v98l56 2q35 4 43 13.5t-13 44.5l-182 223l-184 -213q-23 -27 -12.5 -45.5t38.5 -22.5l43 -2v-98q-182 16 -362 0v98l55 4q43 6 99 68l256 295l-234 289q-44 54 -69 64.5t-52 17.5l-41 10v76q223 -14 447 0v-76l-56 -8q-53 -8 -12 -62 l146 -182l147 170q53 59 -10 74l-43 8v76q180 -12 360 0v-76l-47 -10q-76 -14 -153 -109l-187 -219l275 -342q45 -58 84 -64z" glyph-name="afii10087" horiz-adv-x="1101" unicode="х"/><glyph d="M1118 -276q-23 0 -22 22q0 14 1 46t0 43t-3 36t-9.5 34t-19.5 27.5t-30.5 24.5t-62.5 24.5t-247 18.5h-653v82q62 11 80 28t18 40v632q0 23 -18 39.5t-80 28.5v74h399v-74q-59 -11 -77.5 -28t-18.5 -40v-632q0 -66 96 -66h285q74 4 86 55v643q0 23 -18 40t-81 28v74h400 v-74q-61 -11 -78.5 -28t-17.5 -40v-612q0 -47 34.5 -61.5t130.5 -16.5q25 0 23 -24l-49 -344h-68z" glyph-name="afii10088" horiz-adv-x="1296" unicode="ц"/><glyph d="M1018 780v-630q0 -23 18.5 -40t77.5 -28v-82h-399v82q62 11 80 28t18 40v292q-16 -70 -92.5 -136t-226.5 -66t-243 79.5t-93 284.5v129q0 59 -23.5 84t-93.5 33l20 74h418v-74q-79 -10 -99 -26.5t-20 -41.5v-168q0 -117 52.5 -182t139.5 -65t158.5 53t102.5 106v256 q0 23 -18 40t-80 28v74h399v-76q-57 -10 -76.5 -22.5t-19.5 -45.5z" glyph-name="afii10089" horiz-adv-x="1202" unicode="ч"/><glyph d="M1475 786v-641q0 -51 96 -63v-82h-1483v82q98 12 98 63v641q0 51 -98 64v74h399v-74q-96 -12 -96 -64v-643q0 -63 76 -63h184q78 0 78 65v641q0 51 -98 64v74h399v-74q-96 -12 -96 -64v-643q0 -63 76 -63h182q78 0 78 63v643q0 51 -99 64v74h400v-74q-96 -12 -96 -64z " glyph-name="afii10090" horiz-adv-x="1658" unicode="ш"/><glyph d="M1546 -276q-23 0 -22 22q0 14 1 46t0 43t-3 36t-9.5 34t-19.5 27.5t-30.5 24.5t-62.5 24.5t-247 18.5h-1065v82q98 12 98 63v641q0 51 -98 64v74h399v-74q-96 -12 -96 -64v-643q0 -63 76 -63h184q78 0 78 65v641q0 51 -98 64v74h399v-74q-96 -12 -96 -64v-643 q0 -63 76 -63h153q59 0 83 15.5t24 62.5v628q0 51 -99 64v74h400v-74q-96 -12 -96 -64v-616q0 -47 34.5 -61.5t130.5 -16.5q27 0 23 -24l-49 -344h-68z" glyph-name="afii10091" horiz-adv-x="1751" unicode="щ"/><glyph d="M700 698q231 0 366.5 -94t135.5 -254t-135 -255t-365 -95h-428v82q63 11 81 28t18 40v632q0 37 -6.5 51.5t-32.5 16.5l-64 -2q-121 -2 -157 -76l-33 -65h-80l49 170q12 47 62 47h467v-226h122zM735 82q117 0 174.5 73.5t57.5 194.5t-64.5 194.5t-210.5 73.5h-114v-468 q0 -68 75 -68h82z" glyph-name="afii10092" horiz-adv-x="1253" unicode="ъ"/><glyph d="M514 698q229 0 365.5 -95t136.5 -254t-135.5 -254t-364.5 -95h-428v82q63 12 80.5 28.5t17.5 39.5v632q0 23 -17.5 39.5t-80.5 28.5v74h399v-76q-57 -10 -76.5 -22.5t-19.5 -45.5v-82h123zM1425 780v-630q0 -23 18 -40t79 -28v-82h-400v82q63 11 81 28t18 40v632 q0 23 -18 40t-81 28v74h400v-76q-57 -10 -77 -22.5t-20 -45.5zM549 82q115 0 172 74.5t57 194.5t-64.5 193.5t-207.5 73.5h-115v-468q0 -68 76 -68h82z" glyph-name="afii10093" horiz-adv-x="1607" unicode="ы"/><glyph d="M514 698q229 0 365.5 -95t136.5 -254t-135.5 -254t-364.5 -95h-428v82q63 12 80.5 28.5t17.5 39.5v632q0 23 -17.5 39.5t-80.5 28.5v74h399v-76q-57 -10 -76.5 -22.5t-19.5 -45.5v-82h123zM549 82q115 0 172 74.5t57 194.5t-64.5 193.5t-207.5 73.5h-115v-468 q0 -68 76 -68h82z" glyph-name="afii10094" horiz-adv-x="1077" unicode="ь"/><glyph d="M520 942q186 0 320.5 -138t134.5 -344t-139.5 -341t-339.5 -135q-268 0 -377 188q-23 29 -18 51.5t49 44.5q30 17 56 4.5t58 -77.5q37 -57 80 -79t117 -22q104 0 185 87t99 235h-290v102h297q-4 164 -75 243t-168 79t-162.5 -39t-91 -118.5t-34 -81t-20 -5.5t-23.5 2 l-84 23l17 297h63q31 0 38 -10.5t10 -37t16 -47.5q96 119 282 119z" glyph-name="afii10095" horiz-adv-x="1042" unicode="э"/><glyph d="M1039 942q179 0 317.5 -129t138.5 -343t-138 -348t-317.5 -134t-316.5 118.5t-152 309.5h-180v-266q0 -23 18 -40t78 -28v-82h-399v82q63 12 80.5 28.5t17.5 39.5v632q0 23 -17.5 39.5t-80.5 28.5v74h399v-74q-59 -11 -77.5 -28t-18.5 -40v-264h182q18 195 152.5 309.5 t313.5 114.5zM1053 115q215 0 215 293q0 195 -73 306t-185 111q-211 0 -211 -303q0 -184 71.5 -295.5t182.5 -111.5z" glyph-name="afii10096" horiz-adv-x="1556" unicode="ю"/><glyph d="M948 848q-78 0 -78 -82v-623q0 -16 3 -30t11 -17l64 -16v-80h-383v80q6 2 19.5 5t18.5 5t14.5 5t22.5 13t13 35v250h-104q-70 0 -101.5 -31.5t-57.5 -130.5t-76 -161t-105 -70h-178v80h26q41 0 72 48t43 120q27 150 182 174q-252 47 -252 240q0 119 98.5 190.5 t258.5 71.5h489v-76zM653 479v363h-202q-68 0 -102 -49.5t-34 -130.5q0 -182 148 -183h190z" glyph-name="afii10097" horiz-adv-x="1009" unicode="я"/><glyph d="M645 1178q33 -33 11 -64t-58 -8l-276 160q-47 29 -61.5 69.5t18.5 85.5q70 78 149 -10zM934 559q0 -59 -30 -94t-85 -35h-524q0 -139 74.5 -231.5t204.5 -92.5t241 134l78 -80q-131 -172 -343 -172t-350.5 136t-138.5 348t133.5 341t309.5 129t303 -111.5t127 -271.5z M717 537q0 143 -52.5 223t-154.5 80t-158.5 -81t-56.5 -222h422z" glyph-name="uni0450" horiz-adv-x="995" unicode="ѐ"/><glyph d="M280.5 1133q-57.5 0 -98.5 40.5t-41 98t41 98.5t98.5 41t98.5 -41t41 -98.5t-41 -98t-98.5 -40.5zM725 1133q-57 0 -98 40.5t-41 98t41 98.5t98 41t97 -41t40 -98.5t-40 -98t-97 -40.5zM934 559q0 -59 -30 -94t-85 -35h-524q0 -139 74.5 -231.5t204.5 -92.5t241 134 l78 -80q-131 -172 -343 -172t-350.5 136t-138.5 348t133.5 341t309.5 129t303 -111.5t127 -271.5zM717 537q0 143 -52.5 223t-154.5 80t-158.5 -81t-56.5 -222h422z" glyph-name="afii10071" horiz-adv-x="995" unicode="ё"/><glyph d="M373 1106q-37 -23 -59 8t12 64l217 233q80 88 149 10q33 -45 18.5 -86t-61.5 -69zM612 842h-127q-96 0 -111 -21q-7 -10 -7 -28v-633q0 -33 30.5 -46.5t108.5 -21.5v-92h-475v92q63 8 91 21.5t28 46.5v631q0 57 -119 57v76h760q49 0 61 -47l49 -191l-92 -4l-33 68 q-47 92 -164 92z" glyph-name="afii10100" horiz-adv-x="952" unicode="ѓ"/><glyph d="M823 885q0 33 45 33h64l16 -297l-84 -23q-12 0 -20 -2t-15.5 3t-11.5 7t-8 12.5t-6 16.5t-6 18.5t-9 20.5q-37 94 -97.5 130t-158.5 36t-168.5 -79t-72.5 -243h297v-102h-293q20 -147 102 -234.5t185 -87.5q74 0 118 22.5t82.5 85.5t59.5 73t57 -10q67 -37 25 -93 q-109 -188 -377 -188q-201 0 -340 135t-139 341t134 344t320 138t283 -119q18 29 18 62z" glyph-name="afii10101" horiz-adv-x="1042" unicode="є"/><glyph d="M872 268q0 -131 -118.5 -205.5t-276 -74.5t-273.5 55t-130 96q-57 176 37 191q117 20 125 -56q27 -186 223 -186q100 0 153.5 38t53.5 91t-38 85t-78 46t-112 36q-132 39 -226 95q-122 74 -122 198t94.5 194.5t251 70.5t268 -56.5t115.5 -94.5q8 -98 -10 -133t-59 -40 q-115 -8 -105 64q12 68 -39 119t-140 51q-175 0 -175 -115q0 -70 60.5 -103.5t195.5 -73.5t198 -81q127 -80 127 -211z" glyph-name="afii10102" horiz-adv-x="933" unicode="ѕ"/><glyph d="M259 1108q-54 0 -93 39t-39 92t39 92t93 39t93 -39t39 -92t-39 -92t-93 -39zM383 141q0 -57 88 -57v-84h-391v84q90 0 90 57v607q0 35 -13.5 49t-43.5 14h-41v94l245 35q66 8 66 -76v-723z" glyph-name="afii10103" horiz-adv-x="542" unicode="і"/><glyph d="M14.5 1133q-57.5 0 -98.5 40.5t-41 98t41 98.5t98.5 41t98.5 -41t41 -98.5t-41 -98t-98.5 -40.5zM458.5 1133q-57.5 0 -98.5 40.5t-41 98t41 98.5t98.5 41t97.5 -41t40 -98.5t-40 -98t-97.5 -40.5zM383 141q0 -57 88 -57v-84h-391v84q90 0 90 57v611q0 35 -13.5 49 t-43.5 14h-41v94l245 19q66 6 66 -64v-723z" glyph-name="afii10104" horiz-adv-x="552" unicode="ї"/><glyph d="M291 1108q-53 0 -92 39t-39 92t39 92t92 39t92 -39t39 -92t-39 -92t-92 -39zM414 864v-1016q0 -188 -166 -258q-111 -43 -205 -17t-131 103q-23 41 -13.5 89.5t50.5 68.5q49 20 84 8t47 -38t23.5 -68.5t21.5 -63t27 -14.5q49 20 49 102v992q0 35 -13.5 49t-44.5 14h-41 v94l246 19q66 6 66 -64z" glyph-name="afii10105" horiz-adv-x="544" unicode="ј"/><glyph d="M596 1120q-123 0 -204 76t-87 197q0 23 21 22h59q20 0 23 -22q6 -47 57 -79t131 -32t131 32t57 79q2 23 23 22h59q20 0 21 -22q-6 -121 -87 -197t-204 -76zM1110 924v-70l-29 -12q-20 -10 -36 -16q-41 -14 -50 -40l-420 -958q-59 -137 -123.5 -202.5t-170.5 -65.5 q-207 0 -238 127q-16 66 11.5 105.5t87.5 39.5t82 -24q22 -26 24 -54q6 -79 61 -78.5t119 152.5l76 174l-377 784q-16 39 -68 56l-36 12v70h434v-70l-51 -10q-66 -12 -46 -58l267 -555l225 555q8 20 -6.5 36t-40.5 22l-57 10v70h362z" glyph-name="afii10110" horiz-adv-x="1130" unicode="ў"/><glyph d="M981 1423v-217q0 -20 -19.5 -33.5t-41.5 -13.5h-449q-74 -4 -74 -49v-928q0 -33 32 -52t108 -38v-92h-506v92q76 18 107.5 38t31.5 52v918q0 61 -139 80v92h674q123 0 163 84l33 67h80z" glyph-name="afii10050" horiz-adv-x="1032" unicode="Ґ"/><glyph d="M813 1075v-168q0 -29 -23.5 -47t-52.5 -18l-307 -2q-63 -4 -63 -47v-633q0 -33 30.5 -46.5t108.5 -21.5v-92h-475v92q63 8 91 21.5t28 46.5v631q0 57 -119 57v76h493q123 0 164 84l33 67h92z" glyph-name="afii10098" horiz-adv-x="864" unicode="ґ"/><glyph d="M813 1614q-47 29 -61.5 69.5t18.5 85.5q70 78 150 -10l217 -233q33 -33 11 -64t-58 -8zM1573 1272h375v-92q-63 -8 -90 -31t-50 -82l-378 -1077h-60q-45 0 -65 49l-306 774l-282 -823h-60q-45 0 -65 49l-385 977q-39 98 -73 126.5t-103 37.5v92h475v-92q-59 -8 -81 -21.5 t-13 -38.5l301 -803l221 660l-14 39q-39 98 -73 126.5t-104 37.5v92h476v-92q-55 -8 -79 -22.5t-16 -37.5l301 -803l269 783q12 35 -22 53t-99 27v92z" glyph-name="Wgrave" horiz-adv-x="1978" unicode="Ẁ"/><glyph d="M643 1266q-47 29 -61.5 69.5t18.5 85.5q70 78 150 -10l217 -233q33 -33 11.5 -64t-58.5 -8zM1085 -6q-57 0 -77 57l-195 504l-219 -561h-86q-57 0 -78 57l-248 629q-53 133 -119 158l-43 16v70q217 -16 433 0v-70l-43 -16q-37 -14 -40 -36t31 -122l172 -477l168 530 q-41 88 -86 105l-53 16v70q223 -16 442 0v-70l-53 -16q-37 -14 -40 -36t30 -122l172 -477l147 471q27 100 23 124.5t-43 39.5l-45 16v70q203 -16 389 0v-70l-47 -16q-86 -29 -137 -162l-269 -682h-86z" glyph-name="wgrave" horiz-adv-x="1644" unicode="ẁ"/><glyph d="M977 1454q-37 -23 -57 8q-23 31 10 64l217 233q80 88 149 10q33 -45 18.5 -86t-61.5 -69zM1573 1272h375v-92q-63 -8 -90 -31t-50 -82l-378 -1077h-60q-45 0 -65 49l-306 774l-282 -823h-60q-45 0 -65 49l-385 977q-39 98 -73 126.5t-103 37.5v92h475v-92 q-59 -8 -81 -21.5t-13 -38.5l301 -803l221 660l-14 39q-39 98 -73 126.5t-104 37.5v92h476v-92q-55 -8 -79 -22.5t-16 -37.5l301 -803l269 783q12 35 -22 53t-99 27v92z" glyph-name="Wacute" horiz-adv-x="1978" unicode="Ẃ"/><glyph d="M807 1106q-37 -23 -57 8q-23 31 10 64l217 233q80 88 149 10q33 -45 18.5 -86t-61.5 -69zM1085 -6q-57 0 -77 57l-195 504l-219 -561h-86q-57 0 -78 57l-248 629q-53 133 -119 158l-43 16v70q217 -16 433 0v-70l-43 -16q-37 -14 -40 -36t31 -122l172 -477l168 530 q-41 88 -86 105l-53 16v70q223 -16 442 0v-70l-53 -16q-37 -14 -40 -36t30 -122l172 -477l147 471q27 100 23 124.5t-43 39.5l-45 16v70q203 -16 389 0v-70l-47 -16q-86 -29 -137 -162l-269 -682h-86z" glyph-name="wacute" horiz-adv-x="1644" unicode="ẃ"/><glyph d="M772 1481q-57 0 -98 41t-41 98t41 98t98 41t98 -41t41 -98t-41 -98t-98 -41zM1216.5 1481q-57.5 0 -98.5 41t-41 98t41 98t98.5 41t97.5 -41t40 -98t-40 -98t-97.5 -41zM1573 1272h375v-92q-63 -8 -90 -31t-50 -82l-378 -1077h-60q-45 0 -65 49l-306 774l-282 -823h-60 q-45 0 -65 49l-385 977q-39 98 -73 126.5t-103 37.5v92h475v-92q-59 -8 -81 -21.5t-13 -38.5l301 -803l221 660l-14 39q-39 98 -73 126.5t-104 37.5v92h476v-92q-55 -8 -79 -22.5t-16 -37.5l301 -803l269 783q12 35 -22 53t-99 27v92z" glyph-name="Wdieresis" horiz-adv-x="1978" unicode="Ẅ"/><glyph d="M602 1133q-57 0 -98 40.5t-41 98t41 98.5t98 41t98 -41t41 -98.5t-41 -98t-98 -40.5zM1046.5 1133q-57.5 0 -98.5 40.5t-41 98t41 98.5t98.5 41t97.5 -41t40 -98.5t-40 -98t-97.5 -40.5zM1085 -6q-57 0 -77 57l-195 504l-219 -561h-86q-57 0 -78 57l-248 629 q-53 133 -119 158l-43 16v70q217 -16 433 0v-70l-43 -16q-37 -14 -40 -36t31 -122l172 -477l168 530q-41 88 -86 105l-53 16v70q223 -16 442 0v-70l-53 -16q-37 -14 -40 -36t30 -122l172 -477l147 471q27 100 23 124.5t-43 39.5l-45 16v70q203 -16 389 0v-70l-47 -16 q-86 -29 -137 -162l-269 -682h-86z" glyph-name="wdieresis" horiz-adv-x="1644" unicode="ẅ"/><glyph d="M738 1456q-93 0 -186 69.5t-142 69.5t-78 -36.5t-25 -61.5h-84q-25 92 50 156.5t166.5 64.5t177 -59.5t139 -59.5t90.5 32t33 55h104q-10 -104 -81 -167t-164 -63zM1036 0h-964v92q63 14 93 33.5t30 60.5v901q0 41 -30 60.5t-93 34.5v90h940q20 0 27.5 -7.5t7.5 -29.5 v-221h-91l-30 67q-18 41 -55 54.5t-109 13.5h-326v-442h344q58 1 80 41q8 14 25 57h55v-313h-55q-31 74 -50 87t-55 13h-344v-471l428 4q57 0 83 11t54 48l54 68h108q-29 -57 -65 -205q-12 -47 -62 -47z" glyph-name="uni1EBC" unicode="Ẽ"/><glyph d="M652 1108q-93 0 -186 69.5t-142 69.5t-78 -36.5t-25 -61.5h-84q-25 92 50 156.5t166 64.5t177 -59.5t139.5 -59.5t90.5 32t33 54h104q-10 -104 -81 -166.5t-164 -62.5zM934 559q0 -59 -30 -94t-85 -35h-524q0 -139 74.5 -231.5t204.5 -92.5t241 134l78 -80 q-131 -172 -343 -172t-350.5 136t-138.5 348t133.5 341t309.5 129t303 -111.5t127 -271.5zM717 537q0 143 -52.5 223t-154.5 80t-158.5 -81t-56.5 -222h422z" glyph-name="uni1EBD" horiz-adv-x="995" unicode="ẽ"/><glyph d="M834 1526q33 -33 11.5 -64t-59.5 -8l-276 160q-47 29 -61.5 69.5t18.5 85.5q70 78 149 -10zM901 1272h379v-94q-61 -8 -95 -34t-77 -87l-338 -500v-389q0 -35 48 -48q32 -9 102 -20v-100h-517v100q121 19 136.5 35.5t15.5 32.5v336l-334 502q-78 119 -107.5 142.5 t-82.5 29.5v94h465v-94q-47 -8 -70 -25.5t-6 -42.5l297 -448l282 428q25 37 -3.5 58t-94.5 30v94z" glyph-name="Ygrave" horiz-adv-x="1310" unicode="Ỳ"/><glyph d="M735 1178q33 -33 11.5 -64t-58.5 -8l-276 160q-47 29 -61.5 69.5t18.5 85.5q70 78 149 -10zM1110 924v-70l-29 -12q-20 -10 -36 -16q-41 -14 -50 -40l-420 -958q-59 -137 -123.5 -202.5t-170.5 -65.5q-207 0 -238 127q-16 66 11.5 105.5t87.5 39.5t82 -24q22 -26 24 -54 q6 -79 61 -78.5t119 152.5l76 174l-377 784q-16 39 -68 56l-36 12v70h434v-70l-51 -10q-66 -12 -46 -58l267 -555l225 555q8 20 -6.5 36t-40.5 22l-57 10v70h362z" glyph-name="ygrave" horiz-adv-x="1130" unicode="ỳ"/><glyph d="M61 578h1192v-129h-1192v129z" glyph-name="endash" horiz-adv-x="1366" unicode="–"/><glyph d="M51 578h1678v-129h-1678v129z" glyph-name="emdash" horiz-adv-x="1820" unicode="—"/><glyph d="M51 578h1678v-129h-1678v129z" glyph-name="afii00208" horiz-adv-x="1820" unicode="―"/><glyph d="M113 979q-19 92 10 186t110 166q23 16 39 -4l39 -41q-106 -121 -86 -184q86 21 125 -32.5t32 -105.5t-49 -86t-94 -28t-85 44t-41 85z" glyph-name="quoteleft" horiz-adv-x="401" unicode="‘"/><glyph d="M311 1214q19 -90 -9 -186t-112 -166q-23 -16 -38 4l-37 41q105 117 84 185q-87 -21 -125.5 32.5t-31.5 105.5t50 86t95 28t84 -43t40 -87z" glyph-name="quoteright" horiz-adv-x="372" unicode="’"/><glyph d="M342 109q19 -91 -9 -187t-112 -166q-23 -16 -39 4l-37 41q107 119 84 185q-86 -21 -124.5 32.5t-31.5 105.5t50 86t95 28t84 -43t40 -86z" glyph-name="quotesinglbase" horiz-adv-x="446" unicode="‚"/><glyph d="M74 979q-19 90 9 186t112 166q23 16 38 -4l37 -41q-105 -117 -84 -184q86 21 125 -32.5t32 -105.5t-50 -86t-94 -28t-84 44t-41 85zM430 979q-19 90 9 186t112 166q23 16 39 -4l37 -41q-107 -118 -84 -184q85 20 125 -33t32 -105t-51 -86t-94 -28t-84 44t-41 85z" glyph-name="quotedblleft" horiz-adv-x="757" unicode="“"/><glyph d="M188 1343q104 -12 128 -150q12 -71 -16 -165t-110 -166q-20 -16 -40 4l-37 41q102 117 86 185q-87 -21 -125.5 32.5t-31.5 105.5t49 86t97 27zM545 1343q103 -12 127 -150q12 -71 -16 -165t-109 -166q-23 -16 -41 4l-37 41q63 72 76 103q18 53 10 82q-86 -21 -125 32.5 t-32 105.5t49 86t98 27z" glyph-name="quotedblright" horiz-adv-x="757" unicode="”"/><glyph d="M674 109q19 -91 -9 -187t-112 -166q-23 -16 -39 4l-37 41q107 119 84 185q-85 -20 -125 33t-32 105t51 86t95 28t84 -43t40 -86zM342 109q19 -91 -9 -187t-112 -166q-23 -16 -39 4l-37 41q107 119 84 185q-86 -21 -124.5 32.5t-31.5 105.5t50 86t95 28t84 -43t40 -86z " glyph-name="quotedblbase" horiz-adv-x="778" unicode="„"/><glyph d="M839 1047q41 0 78 -36t37 -87.5t-36 -87t-78 -35.5t-110 36.5t-120 41.5l4 -74l103 -100l-131 -439h-54l-131 439l103 100l4 74q-51 -4 -120.5 -41t-109.5 -37t-77 35.5t-37 87t37 87.5t78 36t110.5 -38t122.5 -42q2 55 -39 125.5t-41 108.5t37 74t90 36t90 -36t37 -74 t-41 -108.5t-39 -125.5q53 4 122.5 42t110.5 38z" glyph-name="dagger" horiz-adv-x="1118" unicode="†"/><glyph d="M839 432q41 0 78 -36t37 -87t-36 -87t-78 -36t-113.5 40t-124.5 44q2 -55 43 -126.5t41 -110.5t-37 -75t-90 -36t-90 36t-37 75t41 110.5t43 126.5q-53 -4 -125.5 -44t-112.5 -40t-77 36t-37 87t37 87t78 36t112.5 -40t124.5 -44v68l-115 202l115 199v68 q-53 -4 -125.5 -44t-112.5 -40t-77 35.5t-37 87t37 87.5t78 36t112.5 -40t124.5 -44q-2 55 -43 126.5t-41 110.5t37 75t90 36t90 -36t37 -75t-41 -110.5t-43 -126.5q53 4 125.5 44t112.5 40t77 -36t37 -87.5t-36 -87t-78 -35.5t-113.5 40t-124.5 44v-68l115 -201l-115 -200 v-68q53 4 124.5 44t112.5 40z" glyph-name="daggerdbl" horiz-adv-x="1128" unicode="‡"/><glyph d="M352 371q-94 0 -161.5 66.5t-67.5 160.5t67.5 161.5t161.5 67.5t161 -67.5t67 -161.5t-67 -160.5t-161 -66.5z" glyph-name="bullet" horiz-adv-x="702" unicode="•"/><glyph d="M581 -20q-52 0 -90 38.5t-38 92t37.5 91.5t89.5 38t90.5 -38t38.5 -91.5t-38 -92t-90 -38.5zM960.5 -20q-53.5 0 -91.5 38.5t-38 92t39 91.5t90.5 38t90.5 -38t39 -91.5t-38 -92t-91.5 -38.5zM200.5 -20q-53.5 0 -91 38.5t-37.5 92t37.5 91.5t91 38t91.5 -38t38 -91.5 t-38 -92t-91.5 -38.5z" glyph-name="ellipsis" horiz-adv-x="1243" unicode="…"/><glyph d="M347 754q-124 0 -182.5 86t-34.5 196t115 195.5t220 85.5q74 0 125 -39q195 -88 305.5 -57t196.5 82h137l-885 -1313h-199l885 1229q-203 -168 -350 -113q0 -163 -104.5 -257.5t-228.5 -94.5zM440 1229q-62 0 -103.5 -58.5t-57.5 -134.5q-35 -193 83 -192q61 0 101.5 57 t54.5 135q18 66 1 129.5t-79 63.5zM1067 541q123 0 180.5 -88t34.5 -200t-114 -194t-215 -82t-181 86.5t-37 196.5q25 109 117 195t215 86zM1714 541q123 0 180.5 -89.5t34.5 -199.5t-114 -192.5t-215 -82.5t-181 86.5t-37 196.5q25 109 117 195t215 86zM1049 453 q-61 0 -103.5 -58.5t-58.5 -134.5q-35 -193 84 -192q61 0 101 57t52 135q18 63 2 128t-77 65zM1696 453q-61 0 -103.5 -58.5t-58.5 -134.5q-35 -193 84 -192q61 0 100.5 57t53.5 135q18 63 1.5 128t-77.5 65z" glyph-name="perthousand" horiz-adv-x="2078" unicode="‰"/><glyph d="M98 469l365 338v-141l-137 -197l137 -197v-141z" glyph-name="guilsinglleft" horiz-adv-x="528" unicode="‹"/><glyph d="M430 469l-364 -338v141l137 197l-137 197v141z" glyph-name="guilsinglright" horiz-adv-x="528" unicode="›"/><glyph d="M567 1303h142l-885 -1313h-141z" glyph-name="fraction" horiz-adv-x="350" unicode="⁄"/><glyph d="M246 664v34h-133l24 123h125q47 217 207 350.5t381 133.5t360 -168q33 0 42.5 32.5t15.5 69.5q10 39 39 33l59 -10l25 -373l-99 -33q-35 -10 -47 23q-4 12 -28 73q-92 236 -326 236q-145 0 -245.5 -93.5t-127.5 -273.5h459l-25 -123h-442v-8q0 -63 10 -135h412l-25 -123 h-354q51 -143 152.5 -229t224.5 -86q193 0 277 124t104 124t48 -18.5t33 -40.5t-26 -75q-147 -252 -492 -251q-203 0 -367.5 121.5t-227.5 330.5h-211l24 123h160q-6 51 -6 109z" glyph-name="Euro" horiz-adv-x="1503" unicode="€"/><glyph d="M485 1272q12 0 21.5 -8.5t9.5 -18.5l6 -98h-45l-16 33q-8 16 -27 16h-92v-317q0 -20 53 -21v-51h-227v51q51 0 51 21v317h-90q-18 0 -27 -16l-16 -33h-45l6 98q0 10 9.5 18.5t21.5 8.5h407zM1206 1184v-297q0 -16 6.5 -20.5t36.5 -12.5v-47h-200v47q29 8 37 13t8 20v225 l-158 -256q-10 -23 -28.5 -22.5t-30.5 22.5l-177 258v-227q0 -14 8.5 -19.5t36.5 -13.5v-47h-167v47q31 8 38 13t7 20v297q0 18 -8.5 24t-36.5 13v51h155l187 -283l184 283h137v-49q-23 -8 -29 -14.5t-6 -24.5z" glyph-name="trademark" horiz-adv-x="1290" unicode="™"/><glyph d="M264 897q0 -33 60 -37v-57h-238v57q59 4 59 37v313l-63 -20v70l115 51q27 12 48 -0.5t19 -30.5v-383zM963 1303h141l-885 -1313h-141zM1276 125q0 -55 -60.5 -101.5t-155.5 -46.5t-151.5 46.5t-56.5 117.5q0 41 26.5 77t69.5 50q-68 34 -68 94t48.5 99t129.5 39 t132.5 -38t51.5 -96t-68 -94q45 -16 73.5 -54t28.5 -93zM1141 371q0 68 -78 67q-33 0 -49.5 -20.5t-16.5 -44.5q1 -54 54 -64l43 -10q16 -2 31.5 22.5t15.5 49.5zM1147 133q0 63 -80 82l-57 12q-16 4 -32.5 -24.5t-16.5 -66.5t25.5 -66.5t74.5 -28.5q86 0 86 92z" glyph-name="oneeighth" horiz-adv-x="1382" unicode="⅛"/><glyph d="M551 967q0 -78 -62.5 -130.5t-156.5 -52.5t-151.5 48.5t-57.5 106.5t53 58q31 0 43 -11t16.5 -41t6.5 -36q20 -61 90 -61q41 0 68.5 31t27.5 85t-44 67t-95 -15l-27 57l49 23q76 27 76 90t-65 63q-45 0 -61.5 -40t-4.5 -81l-90 13q-25 10 -25 28q-2 63 48.5 104.5 t137.5 41.5t136 -40t49 -92t-55 -81q94 -35 94 -135zM1153 1303h141l-884 -1313h-142zM1446 125q0 -55 -61.5 -101.5t-156.5 -46.5t-151.5 46.5t-56.5 117.5q0 41 26.5 77t69.5 50q-68 34 -68 94t48.5 99t130.5 39t133 -38t51 -96t-70 -94q45 -16 75 -54t30 -93zM1309 371 q0 68 -78 67q-33 0 -49.5 -20.5t-16.5 -44.5q1 -54 54 -64l43 -10q16 -2 31.5 22.5t15.5 49.5zM1315 133q0 63 -80 82l-57 12q-16 4 -33 -24.5t-17 -66.5t26 -66.5t75 -28.5q86 0 86 92z" glyph-name="threeeighths" horiz-adv-x="1581" unicode="⅜"/><glyph d="M322 1092q-40 0 -105 -33h-65l20 256h272l15 10h49l-6 -86l-25 -20h-231l-6 -82q48 29 118 29t132.5 -49.5t62.5 -133.5t-60.5 -135t-157.5 -51t-152.5 42t-59.5 117q-2 23 14.5 39.5t42.5 16.5t44 -12.5t27 -76.5t85 -65q35 0 60.5 31t25.5 82t-30 86t-70 35zM1143 1303 h141l-885 -1313h-141zM1434 125q0 -55 -60.5 -101.5t-155.5 -46.5t-151.5 46.5t-56.5 117.5q0 41 26.5 77t69.5 50q-68 34 -68 94t48.5 99t129.5 39t132 -38t51 -96t-68 -94q45 -16 74 -54t29 -93zM1298 371q0 68 -77 67q-33 0 -49.5 -20.5t-16.5 -44.5q0 -54 53 -64l43 -10 q16 -2 31.5 22.5t15.5 49.5zM1305 133q0 63 -80 82l-58 12q-16 4 -32.5 -24.5t-16.5 -66.5t25.5 -66.5t75.5 -28.5q86 0 86 92z" glyph-name="fiveeighths" horiz-adv-x="1542" unicode="⅝"/><glyph d="M180 1311h355l-256 -512h-39q-25 0 -37.5 17.5t0.5 39.5l194 358h-200l-13 -34h-71l24 102q6 29 43 29zM1092 1303h141l-885 -1313h-141zM1382 125q0 -55 -60 -101.5t-156 -46.5t-152 46.5t-56 117.5q0 41 27 77t70 50q-68 34 -68 94t48 99t129 39t132.5 -38t51.5 -96 t-68 -94q45 -16 73.5 -54t28.5 -93zM1247 371q0 68 -78 67q-33 0 -49 -20.5t-16 -44.5q0 -54 53 -64l43 -10q16 -2 31.5 22.5t15.5 49.5zM1253 133q0 63 -79 82l-58 12q-16 4 -32.5 -24.5t-16.5 -66.5t25.5 -66.5t74.5 -28.5q86 0 86 92z" glyph-name="seveneighths" horiz-adv-x="1474" unicode="⅞"/><glyph d="M523 1303q169 0 351.5 -152.5t186.5 -560.5q4 -364 -161.5 -489.5t-353.5 -125.5t-321 127t-133 305t130 291t315 113q100 0 181 -44t116 -87q-27 371 -130.5 437.5t-199.5 66.5t-191 -39q-27 -12 -37 6l-28 39q-14 23 4 37q102 76 271 76zM549 690q-106 0 -170 -79 t-64 -209t57.5 -218t190.5 -88t204.5 123t61.5 332q-2 35 -88 87t-192 52z" glyph-name="partialdiff" horiz-adv-x="1155" unicode="∂"/><glyph d="M555 -16q-139 0 -260 71l-41 -55l-82 61l41 56q-141 135 -141 348t147.5 345t335.5 132q123 0 236 -59l49 63l82 -61l-45 -60q157 -137 157 -357t-146.5 -352t-332.5 -132zM293 496q0 -117 45 -213l354 469q-72 66 -147 65q-252 1 -252 -321zM578 109q102 0 169.5 77.5 t67.5 227.5t-59 252l-359 -473q79 -84 181 -84z" glyph-name="emptyset" horiz-adv-x="1105" unicode="∅"/><glyph d="M1165 1638v-2048h-143v1905h-735v-1905h-144v2048h1022z" glyph-name="product" horiz-adv-x="1308" unicode="∏"/><glyph d="M1024 1638v-143h-700l600 -883l-600 -878h700v-144h-881v144l594 880l-594 881v143h881z" glyph-name="summation" horiz-adv-x="1167" unicode="∑"/><glyph d="M143 586h758v-142h-758v142z" glyph-name="minus" horiz-adv-x="1044" unicode="−"/><glyph d="M623 -410q-43 0 -66 50l-272 608q-55 127 -140 158l-43 16v92q145 -10 289 -4l305 -651l625 1781h266v-92l-55 -16q-86 -23 -137 -162l-670 -1780h-102z" glyph-name="radical" horiz-adv-x="1587" unicode="√"/><glyph d="M465 119q-135 0 -238.5 111.5t-103.5 276.5t107.5 278.5t256.5 113.5q102 0 188.5 -52t119.5 -147q68 170 288 170q133 0 221.5 -103t88.5 -265t-88 -266.5t-228 -104.5q-96 0 -177 52.5t-99 144.5q-33 -96 -117 -152.5t-219 -56.5zM475 285q104 0 168 36.5t80 133.5 l22 135q10 57 -77.5 103t-191.5 46t-179.5 -59t-75.5 -171t75 -168t179 -56zM1073 279q227 0 227 227q0 92 -69.5 150.5t-155.5 58.5t-149.5 -41t-75.5 -115l-19 -117q-12 -70 68 -116.5t174 -46.5z" glyph-name="infinity" horiz-adv-x="1515" unicode="∞"/><glyph d="M590 1358v-1450q0 -348 -275 -348q-184 0 -266 151q-18 33 -8 70t45 52q86 37 112.5 -51t54.5 -100t52 -12q98 0 98 170v1450q0 348 273 348q198 1 266 -151q16 -31 5 -71t-47 -54t-64 -2t-38 41t-20.5 60.5t-32 49t-66.5 17.5q-89 0 -89 -170z" glyph-name="integral" horiz-adv-x="989" unicode="∫"/><glyph d="M772 561q-121 0 -226 70.5t-153 70.5q-47 0 -82 -50t-73 -50h-95q31 100 106 162.5t171 62.5t198.5 -60t151.5 -60t94 44t70 44h94q-23 -104 -102.5 -169t-153.5 -65zM772 213q-121 0 -226 70.5t-153 70.5q-47 0 -82 -50t-73 -50h-95q31 100 106 162.5t171 62.5 t198.5 -60.5t151.5 -60.5t94 44t70 44h94q-23 -104 -102.5 -168.5t-153.5 -64.5z" glyph-name="approxequal" horiz-adv-x="1171" unicode="≈"/><glyph d="M901 629h-254l-94 -228h348v-141h-407l-109 -260h-149l108 260h-201v141h258l97 228h-355v141h414l102 246h150l-102 -246h194v-141z" glyph-name="notequal" horiz-adv-x="1044" unicode="≠"/><glyph d="M143 752q406 156 764 350v-162q-297 -158 -610 -258q330 -109 610 -260v-162q-358 195 -764 350v142zM907 133v-141h-757v141h757z" glyph-name="lessequal" horiz-adv-x="1050" unicode="≤"/><glyph d="M907 752v-142q-406 -156 -764 -350v162q281 152 611 260q-313 100 -611 258v162q358 -194 764 -350zM143 133h758v-141h-758v141z" glyph-name="greaterequal" horiz-adv-x="1050" unicode="≥"/><glyph d="M772 635l-266 -635h-168l-266 635l266 637h168zM616 635l-194 506l-195 -506l195 -506z" glyph-name="lozenge" horiz-adv-x="843" unicode="◊"/><glyph d="M252 1130q-55 0 -94 40t-39 95.5t39 94.5t94 39t95 -39t40 -94.5t-40 -95.5t-95 -40zM383 141q0 -57 88 -57v-84h-391v84q90 0 90 57v611q0 35 -13.5 49t-43.5 14h-41v94l245 19q66 6 66 -64v-723z" glyph-name="i.aalt" horiz-adv-x="552"/><glyph d="M1407 940q170 0 283.5 -126t113.5 -345t-124 -350t-287 -131q-113 0 -193 61.5t-104 128.5l-68 -147q-25 -49 -79 -43t-54 47v1012q-8 82 -102.5 150.5t-202.5 68.5q-195 0 -195 -271v-59h297q-27 -82 -43 -103.5t-49 -21.5h-205v-672q0 -35 19.5 -46t87.5 -11v-82h-434 v82q68 0 91 11t23 46v672h-96q-20 0 -20 20v105h116v35q0 178 100 286.5t290 108.5t350 -41l139 21q49 6 49 -39v-320q0 -129 -33 -254l35 45q125 162 295 162zM1374 109q94 0 148.5 85.5t54.5 241.5t-51.5 256.5t-145.5 100.5t-153.5 -31t-114.5 -90v-367q31 -86 99.5 -141 t162.5 -55z" glyph-name="f_b.dlig" horiz-adv-x="1880"/><glyph d="M1757 205q0 -57 26.5 -81t98.5 -7l-27 -97q-57 -20 -140 -20t-127 42t-44 105v412q0 123 -31.5 182.5t-119.5 59.5q-131 0 -281 -174v-486q0 -35 23.5 -46t78.5 -11v-84h-411v84q51 0 73.5 11t22.5 46v895l-4 -2q0 86 -94 159t-211 73q-195 0 -195 -271v-59h279 q-29 -84 -44.5 -104.5t-47.5 -20.5h-187v-672q0 -35 19.5 -46t87.5 -11v-82h-424v82q66 0 85 11t19 46v672h-96q-20 0 -20 20v105h116v35q0 178 101 286.5t293 108.5t350 -41l125 16q49 6 58 -39t-3 -112v-399l-10 -74q131 227 342 227q156 0 236.5 -79t82.5 -279v-381z" glyph-name="f_h.dlig" horiz-adv-x="1935"/><glyph d="M395 936h246q-27 -82 -43 -103.5t-47 -21.5h-156v-672q0 -35 19.5 -46t87.5 -11v-82h-424v82q66 0 85 11t19 46v672h-96q-20 0 -20 20v105h116v35q0 184 111 289.5t325 105.5t346 -71.5t132 -172.5q0 -45 -32 -73.5t-83 -28.5t-86 27.5t-35 74.5q0 143 -227 144 q-147 0 -192.5 -81.5t-45.5 -189.5v-59zM1135 864v-1016q0 -188 -168 -258q-111 -43 -205 -17t-131 103q-23 41 -13.5 89.5t50.5 68.5q97 40 135 -39q8 -16 20.5 -59t22.5 -63.5t26 -14.5q49 20 50 102v992q0 35 -13.5 49t-44.5 14h-41v94l246 19q66 6 66 -64z" glyph-name="f_j.dlig" horiz-adv-x="1245"/><glyph d="M1810 82v-82h-405v82q72 0 65 27q-2 6 -8 12l-356 338v-320q0 -57 65 -57v-82h-354v82q74 0 74 57v914q-12 82 -105.5 147.5t-208.5 65.5t-149.5 -82t-34.5 -189v-59h287q-29 -84 -44 -104.5t-48 -20.5h-195v-672q0 -35 19.5 -46t87.5 -11v-82h-406v82q53 0 69.5 11 t16.5 46v672h-98q-20 0 -21 20v105h119v35q0 178 100 286.5t290 108.5t348 -41l139 21q49 6 49 -39v-779l299 254q33 29 0 45q-18 10 -59 11v86q188 -16 372 0v-86q-94 0 -141 -41l-295 -254l414 -410q33 -33 52 -42t62 -9z" glyph-name="f_k.dlig" horiz-adv-x="1851"/><glyph d="M554 942q187 0 333.5 -128t146.5 -347t-146.5 -351t-332.5 -132t-334.5 128t-148.5 347t147.5 351t334.5 132zM815 426q0 162 -83 276.5t-187 114.5q-252 0 -252 -321q0 -162 81.5 -274.5t193.5 -112.5t179.5 77.5t67.5 239.5z" glyph-name="zero.oldstyle" horiz-adv-x="1105"/><glyph d="M471 168q0 -35 49 -46t62.5 -14.5t58.5 -9.5v-98h-553v98q127 19 147.5 36.5t20.5 33.5v483q0 37 -15.5 54.5t-43.5 9.5l-105 -29v119l303 135q35 14 55.5 3t20.5 -36v-739z" glyph-name="one.oldstyle" horiz-adv-x="712"/><glyph d="M672 775q-49 48 -133 48q-154 0 -172 -145q-4 -33 -4.5 -61.5t-4.5 -49.5q-37 -49 -92 -53t-97 30t-42 85q0 119 112.5 216t304.5 97t297 -89t105 -224q0 -195 -410 -435q-44 -26 -53 -32l283 8q68 2 102.5 15.5t61.5 52.5l41 55h71l-55 -246q-4 -18 -9 -32.5t-67 -14.5 h-819l248 207q196 157 232 195t92.5 98t56.5 143q0 84 -49 132z" glyph-name="two.oldstyle" horiz-adv-x="1134"/><glyph d="M520 -410q-301 0 -397 203q-14 66 50.5 99.5t125.5 -23.5q37 -84 88 -125t165 -41t202 94.5t88 228.5t-60.5 194.5t-134.5 60.5q-35 0 -78 -15l-90 -33l-35 95l95 37q113 43 169 104t56 157t-53 149.5t-129 53.5q-137 0 -185 -86.5t-69 -187.5q-41 -31 -86 -28t-81 32 t-36 64q0 121 120.5 220t316.5 99t307.5 -89t111.5 -201t-65.5 -182.5t-145.5 -88.5q92 10 198.5 -73t108.5 -224q0 -211 -162.5 -352.5t-394.5 -141.5z" glyph-name="three.oldstyle" horiz-adv-x="1181"/><glyph d="M1077 0h-180v-209q0 -35 48.5 -48t103.5 -19v-101h-527v101q95 11 122.5 28t27.5 39v209h-574v104l645 783q37 45 95.5 27.5t58.5 -74.5v-721h180v-119zM672 119v491l-412 -491h412z" glyph-name="four.oldstyle" horiz-adv-x="1179"/><glyph d="M1124 88q0 -211 -176 -354.5t-393 -143.5q-330 0 -428 226q-23 66 43 106.5t129 -8.5q53 -209 264 -209q129 0 224.5 97.5t95.5 251.5t-79 245.5t-214 91.5q-195 0 -316 -108h-100l80 641h657l35 26l45 2l-20 -196l-35 -31h-588l-43 -328q119 129 344 129 q182 0 286.5 -76.5t146.5 -163.5t42 -198z" glyph-name="five.oldstyle" horiz-adv-x="1236"/><glyph d="M652 1184q-187 0 -251 -145t-79 -359q35 43 115.5 87t180.5 44q184 0 314.5 -112.5t130.5 -290.5t-133.5 -305.5t-321.5 -127.5t-353 125.5t-161 489.5q4 408 186.5 560.5t351.5 152.5t271 -76q18 -14 4 -37l-28 -39q-10 -18 -37 -6q-94 39 -190 39zM592 96 q133 0 190.5 88t57.5 218t-63.5 209t-170.5 79t-192.5 -52t-87.5 -87q-10 -209 61.5 -332t204.5 -123z" glyph-name="six.oldstyle" horiz-adv-x="1155"/><glyph d="M227 924h842l-620 -1297h-62q-27 0 -42 21.5t-3 48.5l506 1022h-612l-43 -92h-80l57 250q10 47 57 47z" glyph-name="seven.oldstyle" horiz-adv-x="1150"/><glyph d="M1118 343q0 -149 -147.5 -260.5t-369.5 -111.5t-360.5 112t-138.5 277q0 117 78 208t211 139q-219 84 -219 268q0 131 121 221t309 90t305 -89t117 -226q0 -84 -64.5 -157.5t-160.5 -100.5q145 -37 232 -129t87 -241zM604 1180q-209 0 -209 -205q0 -158 172 -199l105 -24 q76 -16 132 62.5t56 154.5t-49.5 143.5t-206.5 67.5zM879 352q0 98 -54.5 157.5t-195.5 92.5l-158 37q-68 14 -126 -72.5t-58 -200.5t78.5 -193t238.5 -79q275 0 275 258z" glyph-name="eight.oldstyle" horiz-adv-x="1220"/><glyph d="M537 98q-184 0 -313.5 113t-129.5 295t132 311t339 129q127 0 225.5 -50t185.5 -176.5t87 -369.5q-2 -311 -194.5 -526t-534.5 -234q-25 -2 -37 26t-4 57.5t31 31.5q250 27 372.5 171t139.5 364q-35 -49 -117 -95.5t-182 -46.5zM562 823q-132 0 -189.5 -93t-57.5 -222 t63.5 -208t170.5 -79t193.5 55.5t88.5 90.5q8 201 -64.5 328.5t-204.5 127.5z" glyph-name="nine.oldstyle" horiz-adv-x="1155"/><glyph d="M1153 640q0 -175 -60.5 -323.5t-184.5 -245t-291.5 -96.5t-291.5 96.5t-183.5 245t-59.5 324.5q0 272 143.5 467t390.5 195q168 0 293 -95.5t184.5 -244t59.5 -323.5zM616.5 96q155.5 0 223 140.5t67.5 404.5q0 543 -290.5 543t-290.5 -543q0 -264 67.5 -404.5 t223 -140.5z" glyph-name="zero.tnum" horiz-adv-x="1228"/><glyph d="M723 174q0 -51 207 -70v-104h-629v104q104 10 155.5 23.5t51.5 46.5v817q0 37 -15.5 54.5t-43.5 9.5l-105 -29v119l303 135q35 14 55.5 3t20.5 -36v-1073z" glyph-name="one.tnum" horiz-adv-x="1228"/><glyph d="M1022 0h-924q47 253 182 399.5t298 255.5q198 119 229 176.5t31 112.5q0 115 -66.5 178.5t-167.5 63.5q-209 0 -242 -150q-16 -70 -1.5 -132t12.5 -77q-37 -84 -129 -84q-53 0 -88 33t-35 76q0 211 126 332t351 121t349 -98.5t124 -272.5q0 -116 -39 -169.5t-62.5 -82.5 t-69.5 -61.5t-71.5 -49t-81 -48t-79.5 -47.5t-93 -56.5t-90.5 -56t-61.5 -46t-61.5 -62.5t-42.5 -73l539 -4q70 0 102.5 10.5t59.5 49.5l33 45h77l-47 -236q-10 -47 -61 -47z" glyph-name="two.tnum" horiz-adv-x="1228"/><glyph d="M1114 414q0 -174 -159.5 -306.5t-378.5 -132.5t-352.5 97.5t-143.5 259.5q-10 127 104 127q51 0 77 -17.5t31 -40t27.5 -166t276.5 -143.5q123 0 204 79t81 208t-63.5 195.5t-158.5 66.5q-41 0 -77 -12l-82 -29l-39 100l88 35q121 49 179 108.5t58 149.5t-52 144.5 t-153 54.5t-150.5 -44t-55.5 -92t-6 -77t-4 -49q-35 -39 -86.5 -42t-90 26.5t-38.5 76.5q0 119 115.5 216.5t311.5 97.5t312.5 -93.5t116.5 -196.5t-62.5 -169t-144.5 -86q106 8 210.5 -82t104.5 -264z" glyph-name="three.tnum" horiz-adv-x="1228"/><glyph d="M1081 401h-176v-233q0 -35 36 -45t48 -13.5t47 -9.5v-100h-485v100q113 18 129 47q6 8 6 21v233h-580v103l646 790q37 45 95 28t58 -75v-729h176v-117zM686 518v504l-420 -504h420z" glyph-name="four.tnum" horiz-adv-x="1228"/><glyph d="M1087 418q0 -195 -151.5 -320t-374.5 -125t-355 97.5t-145 261.5q-8 123 107 123q82 0 95 -30t22 -86t20 -87q61 -162 258 -162q121 0 201 74t80 226t-91 249.5t-247 97.5t-270 -98h-101l49 631h705l35 26l51 2l-21 -196l-34 -31h-635l-25 -301q145 106 336 107 q139 0 315 -99.5t176 -359.5z" glyph-name="five.tnum" horiz-adv-x="1228"/><glyph d="M690 1184q-186 0 -249 -143.5t-81 -360.5q35 43 116 87t181 44q184 0 314.5 -112.5t130.5 -290.5t-133 -305.5t-321 -127.5t-353.5 125.5t-161.5 489.5q4 408 186.5 560.5t351.5 152.5t271 -76q18 -14 4 -37l-28 -39q-10 -18 -37 -6q-95 39 -191 39zM631 96 q133 0 190.5 88t57.5 218t-63.5 209t-170.5 79t-192.5 -52t-87.5 -87q-10 -209 61.5 -332t204.5 -123z" glyph-name="six.tnum" horiz-adv-x="1228"/><glyph d="M223 1272h860l-645 -1282h-65q-29 0 -44.5 21.5t-0.5 47.5l532 1008h-629l-43 -92h-79l57 250q10 47 57 47z" glyph-name="seven.tnum" horiz-adv-x="1228"/><glyph d="M1118 343q0 -149 -147.5 -260.5t-369.5 -111.5t-360.5 112t-138.5 277q0 117 78 208t211 139q-100 39 -158.5 107.5t-58.5 160.5q0 133 120 222t308 89t306 -90t118 -225q0 -84 -65.5 -157.5t-161.5 -100.5q145 -37 232 -129t87 -241zM604 1180q-209 0 -209 -205 q0 -158 172 -199l105 -24q76 -16 132 62.5t56 154.5t-49.5 143.5t-206.5 67.5zM879 352q0 98 -54.5 157.5t-195.5 92.5l-158 37q-68 14 -126 -72.5t-58 -200.5t78.5 -193t238.5 -79q275 0 275 258z" glyph-name="eight.tnum" horiz-adv-x="1228"/><glyph d="M540 94q186 0 249.5 146.5t78.5 357.5q-35 -43 -115.5 -87t-181.5 -44q-182 0 -312 112.5t-130 290.5t132 305.5t341 127.5q170 0 335 -126t161 -489q-2 -184 -60.5 -343t-184.5 -264.5t-294 -105.5t-270 76q-18 14 -4 37l26 39q10 18 37 6q96 -39 192 -39zM600 1182 q-133 0 -191.5 -88t-58.5 -218t64.5 -208t171.5 -78t191.5 52t86.5 87q10 207 -60.5 330t-203.5 123z" glyph-name="nine.tnum" horiz-adv-x="1228"/><glyph d="M502 237q0 -105 -58.5 -182.5t-157.5 -77.5t-156.5 76.5t-57.5 182.5t58 185t156.5 79t157 -79t58.5 -184zM286 66q97 0 97 173t-97 173t-97 -173t97 -173z" glyph-name="zero.dnom" horiz-adv-x="573"/><glyph d="M264 82q0 -33 60 -37v-57h-238v57q59 4 59 37v313l-63 -20v69l115 52q27 12 48 -0.5t19 -30.5v-383z" glyph-name="one.dnom" horiz-adv-x="395"/><glyph d="M387 358q0 35 -21.5 58.5t-54.5 23.5q-63 0 -78 -49q-4 -20 1.5 -43.5t3.5 -34.5q-14 -31 -46 -35t-57.5 13.5t-25.5 40.5q0 76 52 126t147 50t144.5 -42t49.5 -114q0 -35 -10.5 -52t-15.5 -27.5t-17.5 -21.5t-18.5 -17.5t-23.5 -17.5t-22.5 -14t-24.5 -14.5t-41.5 -23.5 t-51 -31.5t-41 -54.5h176q33 0 43 16l18 27h57l-20 -105q-6 -29 -43 -28h-375q31 152 201 256q94 57 94 114z" glyph-name="two.dnom" horiz-adv-x="622"/><glyph d="M551 160q0 -78 -62.5 -130.5t-156.5 -52.5t-151.5 48.5t-57.5 106.5t53 58q31 0 43 -11t16.5 -40.5t6.5 -36.5q20 -61 90 -61q41 0 68.5 30.5t27.5 84.5t-44 68t-95 -15l-27 57l49 23q76 27 76 90t-65 63q-45 0 -61.5 -40t-4.5 -80l-90 12q-25 10 -25 28 q-2 63 48.5 104.5t137.5 41.5t136 -40t49 -92t-55 -81q94 -35 94 -135z" glyph-name="three.dnom" horiz-adv-x="653"/><glyph d="M510 137h-70v-65q0 -37 52 -37v-47h-226v47q49 0 49 37v65h-202v70l245 295q18 23 50 14.5t32 -33.5v-272h70v-74zM315 211v127l-106 -127h106z" glyph-name="four.dnom" horiz-adv-x="612"/><glyph d="M322 272q-40 0 -105 -32h-65l20 256h272l15 10h49l-6 -86l-25 -21h-231l-6 -82q48 29 118 29t132.5 -49t62.5 -133t-60.5 -135.5t-157.5 -51.5t-152.5 42t-59.5 118q-2 23 14.5 39.5t42.5 16.5t44 -12.5t27 -77t85 -64.5q35 0 60.5 30.5t25.5 82t-30 86t-70 34.5z" glyph-name="five.dnom" horiz-adv-x="665"/><glyph d="M324 442q-84 0 -99 -145q41 23 106 23t117 -48t52 -118t-54 -123.5t-154 -53.5t-150 70.5t-50 178.5t59.5 195t167.5 87q68 0 115 -33q16 -12 -2 -47q-14 -12 -25.5 -9t-38 13t-44.5 10zM301 45q76 0 76 111q0 45 -19.5 70.5t-52.5 25.5t-58.5 -13.5t-25.5 -23.5 q-2 -84 20.5 -127t59.5 -43z" glyph-name="six.dnom" horiz-adv-x="589"/><glyph d="M180 496h355l-256 -512h-39q-25 0 -37.5 17t0.5 40l194 358h-200l-13 -34h-71l24 102q6 29 43 29z" glyph-name="seven.dnom" horiz-adv-x="616"/><glyph d="M530 125q0 -55 -60 -101.5t-156 -46.5t-152 46.5t-56 117.5q0 41 27 77t70 50q-68 34 -68 94t48 99t129 39t132.5 -38t51.5 -96t-68 -94q45 -16 73.5 -54t28.5 -93zM395 371q0 68 -78 67q-33 0 -49 -20.5t-16 -44.5q0 -54 53 -64l43 -10q16 -2 31.5 22.5t15.5 49.5z M401 133q0 63 -79 82l-58 12q-16 4 -32.5 -24.5t-16.5 -66.5t25.5 -66.5t74.5 -28.5q86 0 86 92z" glyph-name="eight.dnom" horiz-adv-x="636"/><glyph d="M268 43q86 0 101 145q-41 -22 -106 -22t-117 47t-52 118t53 124t153 53t150 -70.5t50 -178.5t-59.5 -195t-168.5 -87q-66 0 -112 33q-16 12 2 47q14 12 24.5 9t37 -13t44.5 -10zM291 440q-74 0 -74 -110q0 -45 18.5 -71t51.5 -26t59.5 13.5t26.5 23.5q6 170 -82 170z" glyph-name="nine.dnom" horiz-adv-x="591"/><glyph d="M502 1054q0 -105 -58.5 -182t-157.5 -77t-156.5 76.5t-57.5 182.5t58 184.5t156.5 78.5t157 -79t58.5 -184zM286 883q97 0 97 173t-97 173t-97 -173t97 -173z" glyph-name="zero.numr" horiz-adv-x="573"/><glyph d="M264 897q0 -33 60 -37v-57h-238v57q59 4 59 37v313l-63 -20v70l115 51q27 12 48 -0.5t19 -30.5v-383z" glyph-name="one.numr" horiz-adv-x="395"/><glyph d="M387 1163q0 35 -21.5 58.5t-54.5 23.5q-63 0 -78 -49q-4 -20 1.5 -44t3.5 -34q-14 -31 -46 -35t-57.5 13.5t-25.5 40.5q0 76 52 126t147 50t144.5 -42t49.5 -114q0 -35 -10.5 -52.5t-15.5 -27.5t-17.5 -21.5t-18.5 -17.5t-23.5 -17t-22.5 -14t-24.5 -15t-41.5 -24 t-51 -31t-41 -54h176q33 0 43 16l18 27h57l-20 -105q-6 -29 -43 -28h-375q31 152 201 256q94 57 94 114z" glyph-name="two.numr" horiz-adv-x="622"/><glyph d="M551 967q0 -78 -62.5 -130.5t-156.5 -52.5t-151.5 48.5t-57.5 106.5t53 58q31 0 43 -11t16.5 -41t6.5 -36q20 -61 90 -61q41 0 68.5 31t27.5 85t-44 67t-95 -15l-27 57l49 23q76 27 76 90t-65 63q-45 0 -61.5 -40t-4.5 -81l-90 13q-25 10 -25 28q-2 63 48.5 104.5 t137.5 41.5t136 -40t49 -92t-55 -81q94 -35 94 -135z" glyph-name="three.numr" horiz-adv-x="653"/><glyph d="M510 938h-70v-66q0 -37 52 -36v-48h-226v48q49 0 49 36v66h-202v70l245 295q18 23 50 14.5t32 -33.5v-272h70v-74zM315 1012v127l-106 -127h106z" glyph-name="four.numr" horiz-adv-x="612"/><glyph d="M322 1092q-40 0 -105 -33h-65l20 256h272l15 10h49l-6 -86l-25 -20h-231l-6 -82q48 29 118 29t132.5 -49.5t62.5 -133.5t-60.5 -135t-157.5 -51t-152.5 42t-59.5 117q-2 23 14.5 39.5t42.5 16.5t44 -12.5t27 -76.5t85 -65q35 0 60.5 31t25.5 82t-30 86t-70 35z" glyph-name="five.numr" horiz-adv-x="665"/><glyph d="M324 1247q-84 0 -99 -145q41 22 106 22t117 -47t52 -118t-54 -124t-154 -53t-150 71t-50 179t59.5 194.5t167.5 86.5q68 0 115 -33q16 -12 -2 -47q-14 -12 -25.5 -9t-38 13t-44.5 10zM301 850q76 0 76 111q0 45 -19.5 70.5t-52.5 25.5t-58.5 -13.5t-25.5 -23.5 q-2 -84 20.5 -127t59.5 -43z" glyph-name="six.numr" horiz-adv-x="589"/><glyph d="M180 1311h355l-256 -512h-39q-25 0 -37.5 17.5t0.5 39.5l194 358h-200l-13 -34h-71l24 102q6 29 43 29z" glyph-name="seven.numr" horiz-adv-x="614"/><glyph d="M530 940q0 -55 -60 -101t-156 -46t-152 46t-56 117q0 41 27 77t70 50q-68 35 -68 95t48 98.5t129 38.5t132.5 -38.5t51.5 -96.5t-68 -93q45 -16 73.5 -54t28.5 -93zM395 1186q0 68 -78 67q-33 0 -49 -20.5t-16 -44.5q0 -54 53 -64l43 -10q16 -2 31.5 22.5t15.5 49.5z M401 948q0 63 -79 82l-58 12q-16 4 -32.5 -24.5t-16.5 -66.5t25.5 -66.5t74.5 -28.5q86 0 86 92z" glyph-name="eight.numr" horiz-adv-x="636"/><glyph d="M268 850q86 0 101 145q-41 -23 -106 -23t-117 47.5t-52 118.5t53 124t153 53t150 -70.5t50 -178.5t-59.5 -195t-168.5 -87q-66 0 -112 33q-16 12 2 47q14 12 24.5 9t37 -13t44.5 -10zM291 1247q-74 0 -74 -110q0 -45 18.5 -71t51.5 -26t59.5 13.5t26.5 23.5 q6 170 -82 170z" glyph-name="nine.numr" horiz-adv-x="591"/></font>
</defs>
</svg>
