<?xml version="1.0" encoding="UTF-8" standalone="no"?>
<svg width="96px" height="96px" viewBox="0 0 96 96" version="1.1" xmlns="http://www.w3.org/2000/svg" xmlns:xlink="http://www.w3.org/1999/xlink">
    <defs>
        <filter x="-50%" y="-50%" width="200%" height="200%" filterUnits="objectBoundingBox" id="filter-1">
            <feOffset dx="0" dy="0" in="SourceAlpha" result="shadowOffsetOuter1"></feOffset>
            <feGaussianBlur stdDeviation="4" in="shadowOffsetOuter1" result="shadowBlurOuter1"></feGaussianBlur>
            <feColorMatrix values="0 0 0 0 0   0 0 0 0 0   0 0 0 0 0  0 0 0 0.543676404 0" type="matrix" in="shadowBlurOuter1" result="shadowMatrixOuter1"></feColorMatrix>
            <feMerge>
                <feMergeNode in="shadowMatrixOuter1"></feMergeNode>
                <feMergeNode in="SourceGraphic"></feMergeNode>
            </feMerge>
        </filter>
        <polyline id="path-2" points="0 0.197468354 79.8008439 0.197468354 79.8008439 80 0 80"></polyline>
    </defs>
    <g id="Page-1" stroke="none" stroke-width="1" fill="none" fill-rule="evenodd">
        <g id="Artboard" transform="translate(-2.000000, -2.000000)">
            <g id="Play-Button" filter="url(#filter-1)" transform="translate(10.000000, 10.000000)">
                <g id="Group-3">
                    <mask id="mask-3" fill="white">
                        <use xlink:href="#path-2"></use>
                    </mask>
                    <g id="Clip-2"></g>
                    <path d="M39.9029536,77.1485232 C19.4388186,77.1485232 2.85316456,60.5611814 2.85316456,40.0970464 C2.85316456,19.6345992 19.4388186,3.04894515 39.9029536,3.04894515 C60.3637131,3.04894515 76.9527426,19.6345992 76.9527426,40.0970464 C76.9527426,60.5611814 60.3637131,77.1485232 39.9029536,77.1485232 M39.9029536,0.196624473 C17.8624473,0.196624473 -0.000843881853,18.0616034 -0.000843881853,40.0970464 C-0.000843881853,62.1341772 17.8624473,79.9991561 39.9029536,79.9991561 C61.9400844,79.9991561 79.8016878,62.1341772 79.8016878,40.0970464 C79.8016878,18.0616034 61.9400844,0.196624473 39.9029536,0.196624473" id="Fill-1" fill="#FFFFFF" mask="url(#mask-3)"></path>
                </g>
                <polygon id="Fill-4" fill="#FFFFFF" points="32.7284388 54.6077637 52.1005907 40.2381435 32.784135 25.9478481"></polygon>
                <polygon id="Stroke-6" fill="#FFFFFF" points="32.7284388 54.6077637 52.1005907 40.2381435 32.784135 25.9478481"></polygon>
            </g>
        </g>
    </g>
</svg>